<?xml version="1.0" encoding="UTF-8" standalone="no"?>
<!-- Created with Inkscape (http://www.inkscape.org/) -->

<svg
   xmlns:dc="http://purl.org/dc/elements/1.1/"
   xmlns:cc="http://creativecommons.org/ns#"
   xmlns:rdf="http://www.w3.org/1999/02/22-rdf-syntax-ns#"
   xmlns:svg="http://www.w3.org/2000/svg"
   xmlns="http://www.w3.org/2000/svg"
   xmlns:sodipodi="http://sodipodi.sourceforge.net/DTD/sodipodi-0.dtd"
   xmlns:inkscape="http://www.inkscape.org/namespaces/inkscape"
   version="1.1"
   id="svg29"
   xml:space="preserve"
   width="55"
   height="54.756363"
   viewBox="0 0 55 54.756363"
   sodipodi:docname="cab-icon-4.svg"
   inkscape:version="0.92.4 (unknown)"><metadata
     id="metadata35"><rdf:RDF><cc:Work
         rdf:about=""><dc:format>image/svg+xml</dc:format><dc:type
           rdf:resource="http://purl.org/dc/dcmitype/StillImage" /><dc:title></dc:title></cc:Work></rdf:RDF></metadata><defs
     id="defs33"><clipPath
       clipPathUnits="userSpaceOnUse"
       id="clipPath45"><path
         d="M 0,140.125 H 140.748 V 0 H 0 Z"
         id="path43"
         inkscape:connector-curvature="0" /></clipPath></defs><sodipodi:namedview
     pagecolor="#ffffff"
     bordercolor="#666666"
     borderopacity="1"
     objecttolerance="10"
     gridtolerance="10"
     guidetolerance="10"
     inkscape:pageopacity="0"
     inkscape:pageshadow="2"
     inkscape:window-width="1920"
     inkscape:window-height="1007"
     id="namedview31"
     showgrid="false"
     inkscape:zoom="4.629795"
     inkscape:cx="93.832001"
     inkscape:cy="93.416602"
     inkscape:window-x="0"
     inkscape:window-y="24"
     inkscape:window-maximized="1"
     inkscape:current-layer="g37" /><g
     id="g37"
     inkscape:groupmode="layer"
     inkscape:label="cab-icon-4"
     transform="matrix(1.3333333,0,0,-1.3333333,0,54.756428)"><g
       id="g39"
       transform="matrix(0.293077,0,0,0.293077,0,3.39626e-5)"><g
         id="g41"
         clip-path="url(#clipPath45)"><g
           id="g47"
           transform="translate(64.6161,117.1023)"><path
             d="m 0,0 c -0.258,0.316 -0.334,0.446 -0.442,0.538 -4.756,4.011 -9.483,8.059 -14.298,11.999 -1.103,0.902 -2.443,1.642 -3.795,2.089 -4.102,1.354 -8.447,-1.309 -9.396,-5.603 -0.9,-4.073 1.896,-8.35 6.046,-8.806 2.925,-0.322 5.903,-0.191 8.857,-0.21 C -8.768,-0.021 -4.508,0 0,0 M 11.63,0.331 C 11.673,0.235 11.716,0.14 11.759,0.044 11.938,0.03 12.118,0.002 12.297,0.002 18.868,0 25.439,-0.01 32.01,0.016 c 0.758,0.003 1.546,0.109 2.266,0.338 2.937,0.931 4.758,2.952 5.227,5.987 0.475,3.081 -0.65,5.622 -3.24,7.372 -2.567,1.733 -5.335,1.738 -7.943,0.192 C 26.448,12.795 24.727,11.404 23.045,10.01 19.205,6.826 15.431,3.562 11.63,0.331 m 7.64,-36.409 h 1.187 c 15.522,0 31.045,-0.003 46.567,0.004 2.46,10e-4 3.488,1.032 3.493,3.515 0.012,6.071 0.01,12.142 0.001,18.212 -0.005,2.539 -1.035,3.555 -3.57,3.555 -15.483,0.002 -30.968,10e-4 -46.452,-10e-4 -0.404,0 -0.809,-0.04 -1.226,-0.061 z m -27.003,25.287 h -1.348 c -15.368,0 -30.737,0 -46.106,-10e-4 -2.856,0 -3.796,-0.936 -3.798,-3.789 -0.003,-5.878 -0.003,-11.757 0,-17.636 10e-4,-2.952 0.905,-3.86 3.845,-3.86 15.33,-0.002 30.661,-0.001 45.991,-0.001 h 1.416 z m 5.669,-0.05 v -1.12 c 0,-32.776 0.004,-65.551 -0.021,-98.326 -10e-4,-1.014 0.359,-1.201 1.265,-1.193 4.342,0.039 8.684,0.052 13.025,-0.007 1.095,-0.016 1.419,0.276 1.418,1.396 -0.029,32.66 -0.024,65.321 -0.023,97.981 0,0.407 -10e-4,0.814 -10e-4,1.269 z m 21.352,-30.957 v -69.653 h 1.339 c 10.298,0 20.597,0.07 30.894,-0.037 3.86,-0.04 6.16,2.565 6.15,6.14 -0.061,20.75 -0.029,41.5 -0.029,62.25 v 1.3 z m -27.055,-69.665 v 69.658 h -38.339 v -1.312 c 0,-20.713 0.034,-41.425 -0.033,-62.138 -0.011,-3.592 2.18,-6.292 6.289,-6.246 10.221,0.115 20.443,0.038 30.665,0.038 z m -43.924,69.865 c -1.895,0 -3.663,-0.137 -5.401,0.028 -4.084,0.388 -7.314,3.577 -7.408,7.668 -0.162,6.991 -0.148,13.991 0,20.982 0.082,3.829 3.353,7.813 8.945,7.77 8.071,-0.063 16.143,-0.016 24.214,-0.016 h 1.37 c 0.05,0.08 0.1,0.16 0.15,0.239 -0.34,0.31 -0.673,0.629 -1.021,0.929 -4.971,4.291 -6.595,11.428 -3.989,17.548 2.601,6.107 8.878,9.876 15.402,9.356 3.853,-0.307 7.065,-1.996 9.955,-4.385 4.768,-3.94 9.481,-7.947 14.216,-11.927 0.32,-0.269 0.637,-0.542 1.029,-0.875 1.006,0.881 1.958,1.763 2.96,2.584 4.843,3.967 9.52,8.168 14.593,11.816 7.442,5.351 17.376,3.043 22.119,-4.769 3.784,-6.231 2.478,-14.482 -3.073,-19.417 -0.314,-0.28 -0.638,-0.549 -1.195,-1.028 0.618,-0.031 0.997,-0.068 1.376,-0.068 8.11,-0.003 16.22,-0.022 24.33,0.007 2.971,0.01 5.515,-0.845 7.407,-3.242 1.211,-1.534 1.816,-3.29 1.819,-5.233 0.015,-6.534 0.052,-13.069 -0.008,-19.602 -0.046,-4.918 -3.659,-8.365 -8.749,-8.486 -1.333,-0.031 -2.666,-0.005 -4.13,-0.005 v -1.614 c 0,-20.717 -0.006,-41.433 0.005,-62.149 0.002,-4.687 -1.938,-8.211 -6.108,-10.431 -1.666,-0.886 -3.49,-1.173 -5.347,-1.173 -30.672,-0.01 -61.344,-0.021 -92.015,0.004 -6.824,0.006 -11.439,4.738 -11.442,11.61 -0.01,20.678 -0.003,41.357 -0.004,62.035 z"
             style="fill-opacity:1;fill-rule:nonzero;stroke:none"
             id="path49"
             inkscape:connector-curvature="0" /></g></g></g></g></svg>