<?xml version="1.0" encoding="UTF-8" standalone="no"?>
<!-- Created with Inkscape (http://www.inkscape.org/) -->

<svg
   xmlns:dc="http://purl.org/dc/elements/1.1/"
   xmlns:cc="http://creativecommons.org/ns#"
   xmlns:rdf="http://www.w3.org/1999/02/22-rdf-syntax-ns#"
   xmlns:svg="http://www.w3.org/2000/svg"
   xmlns="http://www.w3.org/2000/svg"
   xmlns:sodipodi="http://sodipodi.sourceforge.net/DTD/sodipodi-0.dtd"
   xmlns:inkscape="http://www.inkscape.org/namespaces/inkscape"
   version="1.1"
   id="svg77"
   xml:space="preserve"
   width="55"
   height="55.001976"
   viewBox="0 0 55.000001 55.001977"
   sodipodi:docname="cab-icon-2.svg"
   inkscape:version="0.92.4 (unknown)"><metadata
     id="metadata83"><rdf:RDF><cc:Work
         rdf:about=""><dc:format>image/svg+xml</dc:format><dc:type
           rdf:resource="http://purl.org/dc/dcmitype/StillImage" /><dc:title></dc:title></cc:Work></rdf:RDF></metadata><defs
     id="defs81"><clipPath
       clipPathUnits="userSpaceOnUse"
       id="clipPath93"><path
         d="M 0,126.154 H 126.15 V 0 H 0 Z"
         id="path91"
         inkscape:connector-curvature="0" /></clipPath></defs><sodipodi:namedview
     pagecolor="#ffffff"
     bordercolor="#666666"
     borderopacity="1"
     objecttolerance="10"
     gridtolerance="10"
     guidetolerance="10"
     inkscape:pageopacity="0"
     inkscape:pageshadow="2"
     inkscape:window-width="1920"
     inkscape:window-height="1007"
     id="namedview79"
     showgrid="false"
     inkscape:zoom="1.403047"
     inkscape:cx="84.099335"
     inkscape:cy="84.102661"
     inkscape:window-x="0"
     inkscape:window-y="24"
     inkscape:window-maximized="1"
     inkscape:current-layer="g85" /><g
     id="g85"
     inkscape:groupmode="layer"
     inkscape:label="cab-icon-2"
     transform="matrix(1.3333333,0,0,-1.3333333,-6.6390443e-4,55.001977)"><g
       id="g87"
       transform="matrix(0.32699307,0,0,0.32699307,3.3510922e-4,0)"><g
         id="g89"
         clip-path="url(#clipPath93)"><g
           id="g95"
           transform="translate(89.8755,33.5991)"><path
             d="M 0,0 C 2.28,1.661 4.404,3.208 6.581,4.794 4.741,5.818 2.997,6.789 1.205,7.787 0.801,5.174 0.412,2.664 0,0 m 21.588,45.689 c -0.994,-1.73 -1.942,-3.378 -2.909,-5.062 2.648,-1.474 5.248,-2.92 7.882,-4.387 0.981,1.692 1.935,3.337 2.909,5.015 -2.633,1.482 -5.228,2.941 -7.882,4.434 M -79.949,69.652 h 12.972 v 12.972 c -4.327,-4.328 -8.639,-8.639 -12.972,-12.972 M 15.81,35.655 C 11.506,28.202 7.241,20.817 2.953,13.393 c 2.635,-1.482 5.241,-2.948 7.885,-4.434 4.303,7.467 8.566,14.865 12.854,22.306 -2.645,1.474 -5.228,2.912 -7.882,4.39 M 1.856,-5.78 C 1.627,-5.935 1.464,-6.037 1.307,-6.149 0.145,-6.986 -1,-7.85 -2.184,-8.656 c -1.031,-0.702 -2.148,-0.75 -3.198,-0.071 -1.046,0.677 -1.466,1.694 -1.273,2.938 0.816,5.307 1.672,10.607 2.435,15.922 0.289,2.019 0.835,3.884 1.938,5.629 1.378,2.184 2.611,4.462 3.883,6.713 0.165,0.293 0.265,0.667 0.266,1.003 0.012,20.882 0.011,41.765 0.011,62.648 v 0.648 h -63.073 v -0.745 c 0,-6.33 10e-4,-12.661 0,-18.991 -10e-4,-1.922 -1.248,-3.16 -3.182,-3.16 -6.351,-10e-4 -12.701,-10e-4 -19.052,-10e-4 h -0.67 V -27.828 H 1.856 Z m 5.756,38.711 c 0.2,0.323 0.316,0.497 0.42,0.678 3.28,5.684 6.559,11.37 9.838,17.054 1.05,1.82 2.526,2.224 4.373,1.197 4.103,-2.279 8.206,-4.557 12.307,-6.839 1.746,-0.972 2.198,-2.571 1.21,-4.284 C 28.717,28.521 21.677,16.304 14.609,4.103 14.272,3.521 13.75,3.002 13.212,2.588 11.571,1.327 9.891,0.117 8.202,-1.079 7.771,-1.385 7.598,-1.698 7.599,-2.239 c 0.018,-9.358 0.013,-18.715 0.012,-28.072 0,-2.096 -1.193,-3.288 -3.293,-3.288 -30.301,0 -60.603,-0.001 -90.905,0 -2.091,0 -3.278,1.196 -3.278,3.301 0,32.213 0.003,64.426 -0.01,96.639 -0.001,1.113 0.36,1.982 1.145,2.763 7.459,7.436 14.905,14.884 22.342,22.341 0.751,0.753 1.594,1.111 2.659,1.11 C -41.013,92.544 -18.296,92.547 4.42,92.547 6.389,92.546 7.611,91.318 7.611,89.339 7.612,70.823 7.612,52.308 7.612,33.792 Z"
             style="fill-opacity:1;fill-rule:nonzero;stroke:none"
             id="path97"
             inkscape:connector-curvature="0" /></g><g
           id="g99"
           transform="translate(22.981,84.1748)"><path
             d="m 0,0 c 0.239,0.338 0.352,0.558 0.518,0.725 4.837,4.846 9.679,9.687 14.522,14.527 0.997,0.997 2.16,1.248 3.317,0.735 1.785,-0.792 2.286,-3.022 1.01,-4.502 C 19.25,11.35 19.12,11.226 18.993,11.099 13.42,5.526 7.847,-0.048 2.273,-5.621 0.807,-7.087 -0.873,-7.089 -2.336,-5.627 c -2.745,2.744 -5.485,5.493 -8.236,8.231 -0.75,0.746 -1.051,1.635 -0.885,2.661 0.173,1.068 0.771,1.836 1.819,2.162 C -8.51,7.777 -7.46,7.59 -6.601,6.739 -4.593,4.75 -2.6,2.747 -0.604,0.745 -0.437,0.576 -0.302,0.375 0,0"
             style="fill-opacity:1;fill-rule:nonzero;stroke:none"
             id="path101"
             inkscape:connector-curvature="0" /></g><g
           id="g103"
           transform="translate(23.0708,55.5991)"><path
             d="m 0,0 c 0.152,0.229 0.255,0.456 0.42,0.622 4.837,4.847 9.679,9.688 14.521,14.528 1.02,1.019 2.191,1.265 3.369,0.72 1.751,-0.809 2.231,-3.003 0.974,-4.47 C 19.142,11.234 18.982,11.084 18.827,10.929 13.296,5.397 7.737,-0.106 2.254,-5.685 c -1.329,-1.351 -3.412,-1.417 -4.776,0.02 -2.646,2.784 -5.408,5.457 -8.132,8.166 -0.75,0.746 -1.057,1.632 -0.894,2.659 0.169,1.068 0.762,1.841 1.809,2.169 1.151,0.361 2.208,0.156 3.084,-0.716 2.016,-2.009 4.026,-4.024 6.04,-6.036 C -0.464,0.427 -0.304,0.284 0,0"
             style="fill-opacity:1;fill-rule:nonzero;stroke:none"
             id="path105"
             inkscape:connector-curvature="0" /></g><g
           id="g107"
           transform="translate(22.9609,26.8676)"><path
             d="m 0,0 c 0.255,0.331 0.382,0.538 0.55,0.706 4.824,4.831 9.655,9.654 14.476,14.488 0.86,0.862 1.844,1.24 3.032,0.875 2.041,-0.625 2.706,-3.086 1.276,-4.673 C 19.215,11.263 19.085,11.139 18.958,11.012 13.413,5.467 7.868,-0.078 2.323,-5.623 c -1.517,-1.517 -3.165,-1.51 -4.694,0.019 -2.744,2.744 -5.49,5.487 -8.232,8.234 -0.835,0.838 -1.062,1.849 -0.748,2.969 0.289,1.029 0.997,1.665 2.037,1.88 C -8.227,7.702 -7.276,7.42 -6.479,6.616 -4.502,4.624 -2.511,2.646 -0.53,0.658 -0.377,0.505 -0.256,0.32 0,0"
             style="fill-opacity:1;fill-rule:nonzero;stroke:none"
             id="path109"
             inkscape:connector-curvature="0" /></g><g
           id="g111"
           transform="translate(65.9097,87.4419)"><path
             d="m 0,0 c 5.711,0 11.422,0.002 17.134,-0.001 1.621,-0.001 2.964,-1.258 3.001,-2.787 0.036,-1.518 -1.255,-2.887 -2.785,-2.941 -0.497,-0.018 -0.996,-0.004 -1.494,-0.004 -10.984,-0.001 -21.968,-0.001 -32.953,10e-4 -1.671,0 -3.033,1.249 -3.059,2.789 -0.028,1.604 1.312,2.942 2.963,2.943 4.437,0.003 8.875,0 13.313,0 1.293,0 2.586,0 3.88,0"
             style="fill-opacity:1;fill-rule:nonzero;stroke:none"
             id="path113"
             inkscape:connector-curvature="0" /></g><g
           id="g115"
           transform="translate(65.8862,53.0385)"><path
             d="m 0,0 c -5.711,0 -11.422,-0.003 -17.134,0.002 -1.7,0.002 -3.049,1.349 -2.998,2.968 0.045,1.41 1.315,2.699 2.724,2.761 0.258,0.012 0.517,0.003 0.776,0.003 11.243,0 22.486,0 33.73,-0.001 1.673,-10e-4 3.023,-1.235 3.06,-2.788 C 20.196,1.333 18.84,0.003 17.134,0.002 11.422,-0.002 5.711,0 0,0"
             style="fill-opacity:1;fill-rule:nonzero;stroke:none"
             id="path117"
             inkscape:connector-curvature="0" /></g><g
           id="g119"
           transform="translate(60.8789,24.3696)"><path
             d="m 0,0 c -4.059,0 -8.118,-0.005 -12.177,0.002 -1.474,0.003 -2.796,1.16 -2.937,2.54 -0.147,1.427 0.853,2.8 2.29,3.131 0.192,0.044 0.394,0.059 0.591,0.059 C -4.095,5.734 4.042,5.736 12.18,5.731 13.657,5.73 14.971,4.579 15.115,3.193 15.264,1.754 14.286,0.405 12.826,0.072 12.54,0.007 12.235,0.003 11.938,0.002 7.958,-0.002 3.98,0 0,0"
             style="fill-opacity:1;fill-rule:nonzero;stroke:none"
             id="path121"
             inkscape:connector-curvature="0" /></g></g></g></g></svg>