<?xml version="1.0" encoding="UTF-8" standalone="no"?>
<!-- Created with Inkscape (http://www.inkscape.org/) -->

<svg
   xmlns:dc="http://purl.org/dc/elements/1.1/"
   xmlns:cc="http://creativecommons.org/ns#"
   xmlns:rdf="http://www.w3.org/1999/02/22-rdf-syntax-ns#"
   xmlns:svg="http://www.w3.org/2000/svg"
   xmlns="http://www.w3.org/2000/svg"
   xmlns:sodipodi="http://sodipodi.sourceforge.net/DTD/sodipodi-0.dtd"
   xmlns:inkscape="http://www.inkscape.org/namespaces/inkscape"
   version="1.1"
   id="svg51"
   xml:space="preserve"
   width="55"
   height="54.966114"
   viewBox="0 0 55.000001 54.966113"
   sodipodi:docname="cab-icon-3.svg"
   inkscape:version="0.92.4 (unknown)"><metadata
     id="metadata57"><rdf:RDF><cc:Work
         rdf:about=""><dc:format>image/svg+xml</dc:format><dc:type
           rdf:resource="http://purl.org/dc/dcmitype/StillImage" /><dc:title></dc:title></cc:Work></rdf:RDF></metadata><defs
     id="defs55"><clipPath
       clipPathUnits="userSpaceOnUse"
       id="clipPath67"><path
         d="M 0,117.927 H 118 V 0 H 0 Z"
         id="path65"
         inkscape:connector-curvature="0" /></clipPath></defs><sodipodi:namedview
     pagecolor="#ffffff"
     bordercolor="#666666"
     borderopacity="1"
     objecttolerance="10"
     gridtolerance="10"
     guidetolerance="10"
     inkscape:pageopacity="0"
     inkscape:pageshadow="2"
     inkscape:window-width="1920"
     inkscape:window-height="1007"
     id="namedview53"
     showgrid="false"
     inkscape:zoom="1.5009286"
     inkscape:cx="78.666264"
     inkscape:cy="78.618004"
     inkscape:window-x="0"
     inkscape:window-y="24"
     inkscape:window-maximized="1"
     inkscape:current-layer="g59" /><g
     id="g59"
     inkscape:groupmode="layer"
     inkscape:label="cab-icon-3"
     transform="matrix(1.3333333,0,0,-1.3333333,-3.9999999e-4,54.966115)"><g
       id="g61"
       transform="matrix(0.34957717,0,0,0.34957717,1.9512685e-4,0)"><g
         id="g63"
         clip-path="url(#clipPath67)"><g
           id="g69"
           transform="translate(84.2783,25.3214)"><path
             d="M 0,0 C 0.189,0.305 0.349,0.705 0.627,0.989 2.796,3.204 4.985,5.4 7.175,7.596 7.754,8.177 8.43,8.332 9.216,8.025 9.723,7.827 10.26,7.705 10.772,7.519 c 2.976,-1.082 5.951,-2.165 8.917,-3.27 0.466,-0.174 0.752,-0.125 1.012,0.326 0.676,1.173 1.372,2.335 2.093,3.481 0.314,0.499 0.268,0.816 -0.21,1.197 -1.35,1.075 -2.669,2.189 -3.978,3.314 -1.605,1.381 -3.195,2.78 -4.775,4.19 -0.591,0.526 -0.737,1.178 -0.492,1.962 0.496,1.583 0.946,3.18 1.393,4.778 0.352,1.261 0.66,2.534 1.008,3.795 0.218,0.787 0.753,1.261 1.552,1.432 0.854,0.182 1.702,0.388 2.562,0.538 2.882,0.5 5.769,0.973 8.65,1.484 0.21,0.037 0.54,0.294 0.544,0.453 0.029,1.55 0.004,3.1 -0.011,4.65 -0.004,0.426 -0.241,0.606 -0.652,0.664 -0.649,0.091 -1.289,0.232 -1.934,0.343 -2.861,0.491 -5.722,0.989 -8.587,1.465 -1.374,0.228 -2.135,1.019 -2.466,2.361 -0.618,2.499 -1.26,4.994 -1.972,7.468 -0.282,0.979 -0.14,1.76 0.569,2.45 0.579,0.563 1.157,1.131 1.775,1.651 2.255,1.899 4.521,3.788 6.799,5.66 0.393,0.323 0.477,0.612 0.221,1.051 -0.681,1.169 -1.353,2.345 -2.003,3.531 -0.29,0.529 -0.598,0.644 -1.205,0.42 -3.42,-1.264 -6.865,-2.458 -10.288,-3.712 -0.847,-0.31 -1.524,-0.172 -2.152,0.436 -1.178,1.139 -2.384,2.25 -3.538,3.412 -1.061,1.069 -2.074,2.186 -3.099,3.29 -0.438,0.471 -0.557,1.011 -0.329,1.635 0.224,0.615 0.383,1.255 0.606,1.87 1.065,2.935 2.13,5.869 3.225,8.793 0.183,0.488 0.097,0.759 -0.338,1.012 -1.207,0.704 -2.408,1.42 -3.598,2.153 -0.423,0.261 -0.69,0.172 -0.993,-0.198 -1.16,-1.422 -2.334,-2.833 -3.527,-4.227 -1.306,-1.526 -2.633,-3.035 -3.964,-4.539 -0.577,-0.652 -1.261,-0.787 -2.127,-0.534 -2.43,0.71 -4.862,1.43 -7.332,1.97 -1.663,0.365 -2.565,1.229 -2.834,2.88 -0.544,3.34 -1.129,6.673 -1.677,10.012 -0.081,0.496 -0.241,0.838 -0.794,0.84 -1.442,0.003 -2.884,0.004 -4.325,-0.001 -0.466,-0.002 -0.707,-0.245 -0.774,-0.713 -0.113,-0.777 -0.259,-1.55 -0.392,-2.324 -0.48,-2.775 -0.975,-5.548 -1.435,-8.326 -0.196,-1.18 -0.854,-1.87 -2.003,-2.131 -0.362,-0.082 -0.72,-0.18 -1.079,-0.277 -1.833,-0.495 -3.669,-0.979 -5.497,-1.492 -2.7,-0.758 -2.437,-1.314 -4.833,1.419 -2.103,2.398 -4.119,4.871 -6.141,7.338 -0.406,0.496 -0.733,0.543 -1.253,0.212 -1.05,-0.668 -2.114,-1.317 -3.204,-1.917 -0.634,-0.348 -0.748,-0.712 -0.491,-1.405 1.23,-3.316 2.373,-6.664 3.608,-9.978 0.382,-1.025 0.191,-1.796 -0.551,-2.539 -1.682,-1.685 -3.335,-3.399 -5.015,-5.087 -0.476,-0.479 -1.002,-0.91 -1.512,-1.355 -0.485,-0.424 -1.023,-0.532 -1.643,-0.305 -0.637,0.23 -1.295,0.398 -1.931,0.628 -2.895,1.047 -5.791,2.093 -8.672,3.176 -0.542,0.204 -0.829,0.097 -1.104,-0.383 -0.685,-1.193 -1.392,-2.374 -2.114,-3.545 -0.258,-0.42 -0.176,-0.683 0.198,-0.985 1.24,-1.002 2.469,-2.019 3.677,-3.06 1.737,-1.496 3.459,-3.009 5.169,-4.536 0.591,-0.527 0.698,-1.181 0.475,-1.967 -0.75,-2.645 -1.464,-5.301 -2.152,-7.963 -0.286,-1.105 -0.906,-1.814 -2.023,-2.075 -0.339,-0.08 -0.673,-0.19 -1.016,-0.248 -3.249,-0.555 -6.498,-1.114 -9.752,-1.64 -0.54,-0.087 -0.771,-0.324 -0.774,-0.845 -0.009,-1.245 -0.051,-2.491 -0.028,-3.735 0.021,-1.153 0.057,-1.163 1.204,-1.358 3.335,-0.568 6.668,-1.152 10.008,-1.695 1.49,-0.242 2.188,-1.157 2.519,-2.549 0.493,-2.079 0.905,-4.199 1.65,-6.191 0.727,-1.943 0.391,-3.27 -1.244,-4.547 -2.615,-2.043 -5.093,-4.26 -7.652,-6.378 -0.443,-0.366 -0.505,-0.665 -0.208,-1.141 0.693,-1.111 1.375,-2.232 2.013,-3.376 0.32,-0.574 0.657,-0.628 1.257,-0.408 3.403,1.246 6.829,2.427 10.232,3.674 0.875,0.32 1.56,0.174 2.205,-0.455 1.143,-1.112 2.318,-2.191 3.444,-3.321 1.047,-1.052 2.051,-2.147 3.07,-3.228 0.509,-0.54 0.653,-1.147 0.381,-1.867 -0.262,-0.694 -0.441,-1.419 -0.694,-2.116 -1.014,-2.791 -2.03,-5.581 -3.08,-8.359 -0.201,-0.533 -0.11,-0.83 0.377,-1.111 1.191,-0.687 2.367,-1.402 3.534,-2.13 0.423,-0.264 0.685,-0.177 0.989,0.194 1.217,1.488 2.449,2.965 3.698,4.426 1.235,1.443 2.492,2.868 3.75,4.291 0.63,0.712 1.364,0.845 2.303,0.566 2.404,-0.715 4.819,-1.421 7.266,-1.963 1.643,-0.364 2.505,-1.247 2.769,-2.863 0.546,-3.339 1.135,-6.671 1.679,-10.011 0.094,-0.58 0.344,-0.857 0.929,-0.855 1.354,0.007 2.709,0.004 4.063,0.001 0.543,-0.001 0.825,0.236 0.91,0.801 0.297,1.964 0.611,3.926 0.955,5.883 0.296,1.675 0.62,3.346 0.975,5.01 0.234,1.094 0.957,1.731 2.063,1.932 0.429,0.078 0.863,0.146 1.283,0.261 2.253,0.616 4.507,1.228 6.75,1.877 0.687,0.2 1.255,0.077 1.748,-0.4 0.55,-0.53 1.106,-1.059 1.598,-1.642 2.03,-2.403 4.046,-4.818 6.041,-7.25 0.365,-0.444 0.666,-0.51 1.149,-0.208 1.072,0.674 2.158,1.33 3.265,1.945 0.62,0.344 0.752,0.707 0.495,1.402 C 2.688,-7.854 1.503,-4.474 0.306,-1.1 0.188,-0.772 0.118,-0.429 0,0 m 33.722,30.842 c -0.066,-0.36 -0.135,-0.718 -0.195,-1.079 -0.286,-1.714 -1.298,-2.837 -2.947,-3.232 -2.015,-0.481 -4.066,-0.809 -6.105,-1.184 -1.353,-0.249 -2.709,-0.476 -4.068,-0.688 -0.462,-0.072 -0.716,-0.258 -0.825,-0.746 -0.314,-1.405 -0.663,-2.805 -1.038,-4.195 -0.138,-0.511 -0.032,-0.864 0.365,-1.203 1.827,-1.561 3.649,-3.128 5.451,-4.717 0.884,-0.778 1.757,-1.576 2.572,-2.426 C 28.007,10.251 28.309,8.9 27.567,7.514 26.396,5.321 25.209,3.127 23.851,1.05 22.717,-0.684 21.165,-1.117 19.203,-0.435 16.09,0.648 13.001,1.804 9.916,2.967 9.381,3.168 9.063,3.095 8.676,2.684 7.657,1.603 6.603,0.554 5.526,-0.47 5.154,-0.824 5.083,-1.113 5.267,-1.603 c 1.179,-3.149 2.337,-6.306 3.468,-9.473 0.603,-1.688 0.067,-3.526 -1.44,-4.495 -1.962,-1.263 -3.974,-2.463 -6.036,-3.553 -1.817,-0.96 -3.605,-0.566 -4.954,0.98 -2.126,2.436 -4.212,4.908 -6.283,7.39 -0.406,0.487 -0.785,0.641 -1.4,0.475 -1.433,-0.385 -2.88,-0.719 -4.327,-1.048 -0.425,-0.097 -0.601,-0.304 -0.676,-0.738 -0.55,-3.184 -1.116,-6.365 -1.703,-9.541 -0.239,-1.296 -0.671,-2.51 -1.927,-3.197 -0.358,-0.196 -0.758,-0.437 -1.142,-0.445 -2.618,-0.05 -5.24,-0.123 -7.854,-0.025 -1.733,0.065 -2.924,1.159 -3.332,2.794 -0.565,2.262 -0.915,4.578 -1.345,6.873 -0.224,1.202 -0.434,2.406 -0.622,3.614 -0.055,0.36 -0.216,0.514 -0.561,0.601 -1.46,0.37 -2.918,0.748 -4.366,1.162 -0.438,0.125 -0.765,0.061 -1.058,-0.266 -0.684,-0.766 -1.377,-1.523 -2.05,-2.298 -1.59,-1.83 -3.15,-3.688 -4.762,-5.499 -1.141,-1.281 -2.934,-1.762 -4.463,-0.974 -2.207,1.137 -4.373,2.384 -6.432,3.769 -1.638,1.101 -2.028,2.613 -1.37,4.512 1.095,3.155 2.264,6.285 3.437,9.414 0.175,0.467 0.108,0.732 -0.241,1.067 -1.119,1.074 -2.215,2.173 -3.289,3.292 -0.326,0.338 -0.595,0.373 -1.026,0.214 -3.215,-1.19 -6.434,-2.368 -9.664,-3.517 -1.47,-0.523 -3.32,-0.049 -4.157,1.242 -1.375,2.121 -2.675,4.301 -3.853,6.538 -0.807,1.534 -0.375,3.373 0.916,4.527 2.184,1.949 4.429,3.829 6.641,5.746 1.623,1.407 1.616,1.413 1.069,3.509 -0.237,0.909 -0.504,1.811 -0.683,2.732 -0.115,0.586 -0.396,0.822 -0.975,0.915 -2.78,0.453 -5.553,0.945 -8.328,1.427 -0.365,0.064 -0.723,0.17 -1.089,0.23 -1.933,0.32 -3.227,1.341 -3.668,3.311 v 8.653 c 0.085,0.058 0.201,0.095 0.251,0.174 0.972,1.55 2.459,2.202 4.191,2.496 2.861,0.485 5.713,1.033 8.576,1.513 0.593,0.099 0.903,0.293 1.035,0.92 0.287,1.366 0.643,2.719 1.022,4.063 0.146,0.519 0.029,0.859 -0.366,1.196 -1.877,1.602 -3.753,3.207 -5.604,4.839 -0.867,0.764 -1.715,1.556 -2.505,2.399 -1.029,1.097 -1.293,2.416 -0.573,3.749 1.201,2.225 2.468,4.416 3.784,6.575 0.605,0.993 1.596,1.611 2.774,1.638 0.762,0.019 1.567,-0.154 2.293,-0.41 2.985,-1.052 5.95,-2.16 8.915,-3.27 0.424,-0.159 0.697,-0.133 1.026,0.21 1.071,1.12 2.168,2.218 3.287,3.292 0.348,0.334 0.419,0.596 0.245,1.066 -1.194,3.235 -2.365,6.48 -3.504,9.735 -0.52,1.485 -0.028,3.369 1.286,4.204 2.152,1.367 4.375,2.64 6.647,3.797 1.46,0.743 3.243,0.248 4.352,-0.971 1.16,-1.277 2.276,-2.594 3.414,-3.891 1.137,-1.297 2.262,-2.606 3.434,-3.871 0.19,-0.205 0.627,-0.342 0.9,-0.283 1.514,0.327 3.018,0.705 4.511,1.114 0.225,0.062 0.495,0.352 0.548,0.581 0.216,0.956 0.349,1.932 0.529,2.897 0.472,2.531 0.872,5.08 1.456,7.586 0.452,1.946 1.824,2.922 3.815,2.937 2.403,0.018 4.807,-0.006 7.209,-0.051 0.338,-0.007 0.703,-0.181 1.001,-0.365 1.331,-0.827 2.001,-2.082 2.27,-3.594 0.557,-3.116 1.136,-6.228 1.68,-9.346 0.073,-0.415 0.253,-0.583 0.644,-0.678 1.293,-0.314 2.601,-0.594 3.857,-1.024 0.85,-0.291 1.391,-0.077 1.923,0.562 1.524,1.829 3.049,3.659 4.624,5.443 0.835,0.947 1.731,1.849 2.681,2.68 0.849,0.745 1.892,0.85 2.96,0.466 0.451,-0.162 0.91,-0.326 1.325,-0.562 1.745,-0.993 3.5,-1.973 5.203,-3.035 2.002,-1.248 2.573,-2.967 1.779,-5.178 -1.093,-3.041 -2.208,-6.073 -3.339,-9.1 -0.175,-0.47 -0.154,-0.771 0.233,-1.137 1.111,-1.05 2.188,-2.138 3.245,-3.243 0.337,-0.353 0.617,-0.415 1.077,-0.244 3.213,1.192 6.433,2.369 9.661,3.518 1.437,0.512 3.277,0.071 4.109,-1.208 1.424,-2.191 2.805,-4.433 3.939,-6.781 0.718,-1.487 0.443,-3.088 -0.923,-4.296 -0.753,-0.666 -1.485,-1.353 -2.244,-2.012 -1.749,-1.518 -3.5,-3.032 -5.266,-4.53 -0.536,-0.454 -0.731,-0.912 -0.512,-1.641 0.402,-1.336 0.694,-2.705 1.007,-4.066 0.084,-0.37 0.24,-0.536 0.635,-0.597 1.79,-0.278 3.578,-0.573 5.359,-0.907 1.779,-0.334 3.556,-0.684 5.318,-1.098 1.595,-0.374 2.352,-1.552 2.68,-3.07 0.036,-0.168 0.084,-0.334 0.126,-0.502 z"
             style="fill-opacity:1;fill-rule:nonzero;stroke:none"
             id="path71"
             inkscape:connector-curvature="0" /></g><g
           id="g73"
           transform="translate(58.7861,39.6798)"><path
             d="M 0,0 C 10.517,-0.354 19.305,8.553 19.492,18.96 19.656,28.059 12.495,39.02 -0.873,38.51 -10.397,38.146 -19.085,30.348 -19.127,19.334 -19.174,7.144 -8.836,-0.33 0,0 M -23.668,19.342 C -24.176,31.441 -13.404,43.019 -0.427,43.166 14.184,43.331 24.056,31.406 24.099,19.175 24.142,7.092 13.852,-4.807 0.178,-4.703 -14.365,-4.594 -24.267,7.786 -23.668,19.342"
             style="fill-opacity:1;fill-rule:nonzero;stroke:none"
             id="path75"
             inkscape:connector-curvature="0" /></g></g></g></g></svg>