<?xml version="1.0" encoding="UTF-8" standalone="no"?>
<!-- Created with Inkscape (http://www.inkscape.org/) -->

<svg
   xmlns:dc="http://purl.org/dc/elements/1.1/"
   xmlns:cc="http://creativecommons.org/ns#"
   xmlns:rdf="http://www.w3.org/1999/02/22-rdf-syntax-ns#"
   xmlns:svg="http://www.w3.org/2000/svg"
   xmlns="http://www.w3.org/2000/svg"
   xmlns:sodipodi="http://sodipodi.sourceforge.net/DTD/sodipodi-0.dtd"
   xmlns:inkscape="http://www.inkscape.org/namespaces/inkscape"
   version="1.1"
   id="svg123"
   xml:space="preserve"
   width="55"
   height="55.853794"
   viewBox="0 0 54.999999 55.853796"
   sodipodi:docname="cab-icon-1.svg"
   inkscape:version="0.92.4 (unknown)"><metadata
     id="metadata129"><rdf:RDF><cc:Work
         rdf:about=""><dc:format>image/svg+xml</dc:format><dc:type
           rdf:resource="http://purl.org/dc/dcmitype/StillImage" /><dc:title></dc:title></cc:Work></rdf:RDF></metadata><defs
     id="defs127"><clipPath
       clipPathUnits="userSpaceOnUse"
       id="clipPath139"><path
         d="M 0,123.842 H 121.949 V 0 H 0 Z"
         id="path137"
         inkscape:connector-curvature="0" /></clipPath></defs><sodipodi:namedview
     pagecolor="#ffffff"
     bordercolor="#666666"
     borderopacity="1"
     objecttolerance="10"
     gridtolerance="10"
     guidetolerance="10"
     inkscape:pageopacity="0"
     inkscape:pageshadow="2"
     inkscape:window-width="1920"
     inkscape:window-height="1007"
     id="namedview125"
     showgrid="false"
     inkscape:zoom="1.4292405"
     inkscape:cx="81.298858"
     inkscape:cy="82.560963"
     inkscape:window-x="0"
     inkscape:window-y="24"
     inkscape:window-maximized="1"
     inkscape:current-layer="g131" /><g
     id="g131"
     inkscape:groupmode="layer"
     inkscape:label="cab-icon-1"
     transform="matrix(1.3333333,0,0,-1.3333333,-4.7407292e-4,55.854169)"><g
       id="g133"
       transform="matrix(0.33825715,0,0,0.33825715,2.3528578e-4,1.8559819e-4)"><g
         id="g135"
         clip-path="url(#clipPath139)"><g
           id="g141"
           transform="translate(117.1952,4.7913)"><path
             d="m 0,0 v 1.196 c 0,7.912 0.015,15.825 -0.028,23.736 -0.003,0.608 -0.273,1.328 -0.656,1.804 -3.281,4.086 -7.35,7.242 -11.865,9.854 -5.469,3.164 -11.282,5.493 -17.359,7.195 -0.572,0.16 -1.165,0.404 -1.63,0.763 -0.845,0.651 -1.005,1.898 -0.486,2.858 0.535,0.992 1.642,1.499 2.876,1.081 3.993,-1.353 8.032,-2.608 11.919,-4.225 6.377,-2.655 12.217,-6.244 17.161,-11.135 C 1.44,31.635 2.798,29.98 4.126,28.32 4.511,27.84 4.722,27.084 4.725,26.452 4.762,16.951 4.759,7.45 4.743,-2.051 4.74,-3.947 3.791,-4.787 1.769,-4.787 -12.195,-4.79 -26.16,-4.789 -40.124,-4.789 c -24.547,0 -49.095,0 -73.642,0.002 -0.406,0 -0.816,-0.021 -1.215,0.033 -1.227,0.165 -2.001,0.983 -2.118,2.22 -0.038,0.403 -0.032,0.81 -0.032,1.216 -0.001,8.589 0.097,17.178 -0.062,25.763 -0.047,2.492 0.806,4.297 2.357,6.076 4.427,5.074 9.798,8.873 15.736,11.934 4.79,2.469 9.797,4.394 15.001,5.779 0.783,0.208 1.76,0.15 2.517,-0.133 0.882,-0.33 1.173,-1.275 1.078,-2.218 -0.113,-1.113 -0.855,-1.734 -1.85,-2.059 -1.829,-0.598 -3.694,-1.095 -5.501,-1.749 -7.49,-2.71 -14.543,-6.208 -20.442,-11.693 -1.233,-1.148 -2.369,-2.412 -3.451,-3.705 -0.369,-0.442 -0.612,-1.136 -0.615,-1.716 -0.04,-7.878 -0.027,-15.756 -0.027,-23.635 0,-1.323 0.001,-1.325 1.304,-1.325 C -90.528,0 -69.971,0 -49.413,0 h 47.979 z"
             style="fill-opacity:1;fill-rule:nonzero;stroke:none"
             id="path143"
             inkscape:connector-curvature="0" /></g><g
           id="g145"
           transform="translate(85.8563,89.0881)"><path
             d="m 0,0 c -0.089,1.183 -0.183,3.448 -0.442,5.695 -0.527,4.56 -1.618,8.967 -3.873,13.021 -2.999,5.388 -7.443,8.951 -13.445,10.415 -4.822,1.177 -9.76,0.954 -14.619,0.465 -6.158,-0.62 -10.987,-3.708 -14.297,-9.016 -2.391,-3.836 -3.511,-8.097 -4.026,-12.529 -0.603,-5.192 -0.487,-10.376 0.216,-15.567 1.152,-8.506 3.944,-16.318 9.403,-23.045 3.792,-4.671 8.402,-8.29 13.994,-10.585 0.418,-0.171 1.006,-0.221 1.419,-0.068 9.381,3.474 16.375,9.689 20.954,18.561 C -1.231,-15.9 -0.014,-8.612 0,0 M 4.75,-1.15 C 4.746,-11.485 2.503,-21.272 -3.618,-29.888 -8.38,-36.589 -14.555,-41.623 -22.13,-44.889 c -4.669,-2.012 -4.07,-1.938 -8.441,0.111 -6.674,3.13 -11.986,7.914 -16.18,13.93 -4.939,7.085 -7.562,15.032 -8.581,23.562 -0.787,6.59 -0.801,13.163 0.517,19.682 1.356,6.7 4.174,12.633 9.665,16.988 3.408,2.703 7.317,4.426 11.63,4.883 5.647,0.598 11.332,0.875 16.921,-0.549 C -8.16,31.569 -2.355,26.328 1.154,18.426 3.914,12.211 4.669,5.636 4.75,-1.15"
             style="fill-opacity:1;fill-rule:nonzero;stroke:none"
             id="path147"
             inkscape:connector-curvature="0" /></g></g></g></g></svg>