<?xml version="1.0" encoding="UTF-8" standalone="no"?>
<!-- Created with Inkscape (http://www.inkscape.org/) -->

<svg
   xmlns:dc="http://purl.org/dc/elements/1.1/"
   xmlns:cc="http://creativecommons.org/ns#"
   xmlns:rdf="http://www.w3.org/1999/02/22-rdf-syntax-ns#"
   xmlns:svg="http://www.w3.org/2000/svg"
   xmlns="http://www.w3.org/2000/svg"
   xmlns:sodipodi="http://sodipodi.sourceforge.net/DTD/sodipodi-0.dtd"
   xmlns:inkscape="http://www.inkscape.org/namespaces/inkscape"
   version="1.1"
   id="svg57"
   xml:space="preserve"
   width="23.226908"
   height="20.000002"
   viewBox="0 0 23.226908 20.000002"
   sodipodi:docname="cart-icon.svg"
   inkscape:version="0.92.4 (unknown)"><metadata
     id="metadata63"><rdf:RDF><cc:Work
         rdf:about=""><dc:format>image/svg+xml</dc:format><dc:type
           rdf:resource="http://purl.org/dc/dcmitype/StillImage" /><dc:title></dc:title></cc:Work></rdf:RDF></metadata><defs
     id="defs61"><clipPath
       clipPathUnits="userSpaceOnUse"
       id="clipPath73"><path
         d="M 0,559.828 H 650.154 V 0 H 0 Z"
         id="path71"
         inkscape:connector-curvature="0" /></clipPath></defs><sodipodi:namedview
     pagecolor="#ffffff"
     bordercolor="#666666"
     borderopacity="1"
     objecttolerance="10"
     gridtolerance="10"
     guidetolerance="10"
     inkscape:pageopacity="0"
     inkscape:pageshadow="2"
     inkscape:window-width="1920"
     inkscape:window-height="1007"
     id="namedview59"
     showgrid="false"
     inkscape:zoom="10.117393"
     inkscape:cx="26.849682"
     inkscape:cy="11.008044"
     inkscape:window-x="0"
     inkscape:window-y="24"
     inkscape:window-maximized="1"
     inkscape:current-layer="g65" /><g
     id="g65"
     inkscape:groupmode="layer"
     inkscape:label="cart-icon"
     transform="matrix(1.3333333,0,0,-1.3333333,-9.3333331e-4,20.000001)"><g
       id="g67"
       transform="matrix(0.02679396,0,0,0.02679396,6.8124423e-4,0)"><g
         id="g69"
         clip-path="url(#clipPath73)"><g
           id="g75"
           transform="translate(463.8137,72.5587)"><path
             d="m 0,0 c -0.083,-15.89 12.779,-28.858 28.582,-28.818 15.562,0.04 28.478,12.907 28.599,28.491 C 57.304,15.471 44.36,28.412 28.468,28.384 12.668,28.355 0.083,15.808 0,0 m -201.005,28.383 c -15.731,-0.12 -28.429,-12.857 -28.437,-28.522 -0.008,-15.784 13.107,-28.833 28.824,-28.678 15.643,0.153 28.391,12.986 28.437,28.627 0.048,15.807 -12.953,28.695 -28.824,28.573 m -61.013,279.721 c 12.945,-49.597 25.799,-98.844 38.67,-148.159 H 84.16 c 14.733,49.396 29.413,98.615 44.191,148.159 z m 53.307,-376.663 c -3.226,0.788 -6.495,1.433 -9.671,2.388 -27.251,8.188 -44.538,26.172 -49.584,54.094 -4.959,27.437 4.868,50.016 26.981,66.984 2.74,2.102 3.049,3.798 2.263,6.801 -32.851,125.567 -65.649,251.148 -98.353,376.754 -0.959,3.684 -2.302,5.054 -6.372,5.026 -30.419,-0.213 -60.844,0.187 -91.258,-0.263 -12.344,-0.183 -20.865,4.056 -25.108,15.883 v 8.78 c 0.393,0.734 0.848,1.442 1.172,2.204 3.555,8.378 9.781,13.051 18.961,13.066 42.87,0.071 85.742,-0.004 128.612,0.111 3.25,0.008 3.765,-1.671 4.402,-4.122 10.947,-42.128 21.954,-84.241 32.954,-126.355 0.364,-1.393 0.795,-2.767 1.284,-4.459 h 453.935 c -0.314,-1.646 -0.439,-2.88 -0.786,-4.047 -21.9,-73.485 -43.855,-146.954 -65.627,-220.476 -1.155,-3.898 -3.352,-3.924 -6.41,-3.923 -105.056,0.034 -210.111,0.028 -315.166,0.028 h -6.186 c 0.851,-3.567 1.505,-6.51 2.258,-9.427 3.248,-12.588 6.648,-25.138 9.71,-37.77 0.839,-3.465 2.236,-4.528 5.869,-4.517 47.845,0.144 95.69,0.096 143.536,0.096 26.629,0 53.272,-0.5 79.884,0.176 17.725,0.45 32.468,-6.174 45.023,-17.326 21.271,-18.893 28.557,-43.024 20.573,-70.338 -8.029,-27.464 -27.294,-43.458 -55.489,-48.588 -0.836,-0.152 -1.633,-0.515 -2.45,-0.78 H 21.32 c -0.968,0.275 -1.921,0.662 -2.909,0.806 -39.495,5.773 -65.891,45.069 -56.177,83.741 1.012,4.028 2.409,7.958 3.66,12.043 h -104.227 c 0.536,-1.379 0.909,-2.314 1.266,-3.256 13.238,-34.899 -2.458,-72.762 -36.67,-87.66 -6.064,-2.64 -12.764,-3.819 -19.17,-5.674 z"
             style="fill-opacity:1;fill-rule:nonzero;stroke:none"
             id="path77"
             inkscape:connector-curvature="0" /></g><g
           id="g79"
           transform="translate(463.8137,72.5587)"><path
             d="m 0,0 c -0.083,-15.89 12.779,-28.858 28.582,-28.818 15.562,0.04 28.478,12.907 28.599,28.491 C 57.304,15.471 44.36,28.412 28.468,28.384 12.668,28.355 0.083,15.808 0,0 Z m -201.005,28.383 c -15.731,-0.12 -28.429,-12.857 -28.437,-28.522 -0.008,-15.784 13.107,-28.833 28.824,-28.678 15.643,0.153 28.391,12.986 28.437,28.627 0.048,15.807 -12.953,28.695 -28.824,28.573 z m -61.013,279.721 c 12.945,-49.597 25.799,-98.844 38.67,-148.159 H 84.16 c 14.733,49.396 29.413,98.615 44.191,148.159 z m 53.307,-376.663 c -3.226,0.788 -6.495,1.433 -9.671,2.388 -27.251,8.188 -44.538,26.172 -49.584,54.094 -4.959,27.437 4.868,50.016 26.981,66.984 2.74,2.102 3.049,3.798 2.263,6.801 -32.851,125.567 -65.649,251.148 -98.353,376.754 -0.959,3.684 -2.302,5.054 -6.372,5.026 -30.419,-0.213 -60.844,0.187 -91.258,-0.263 -12.344,-0.183 -20.865,4.056 -25.108,15.883 v 8.78 c 0.393,0.734 0.848,1.442 1.172,2.204 3.555,8.378 9.781,13.051 18.961,13.066 42.87,0.071 85.742,-0.004 128.612,0.111 3.25,0.008 3.765,-1.671 4.402,-4.122 10.947,-42.128 21.954,-84.241 32.954,-126.355 0.364,-1.393 0.795,-2.767 1.284,-4.459 h 453.935 c -0.314,-1.646 -0.439,-2.88 -0.786,-4.047 -21.9,-73.485 -43.855,-146.954 -65.627,-220.476 -1.155,-3.898 -3.352,-3.924 -6.41,-3.923 -105.056,0.034 -210.111,0.028 -315.166,0.028 h -6.186 c 0.851,-3.567 1.505,-6.51 2.258,-9.427 3.248,-12.588 6.648,-25.138 9.71,-37.77 0.839,-3.465 2.236,-4.528 5.869,-4.517 47.845,0.144 95.69,0.096 143.536,0.096 26.629,0 53.272,-0.5 79.884,0.176 17.725,0.45 32.468,-6.174 45.023,-17.326 21.271,-18.893 28.557,-43.024 20.573,-70.338 -8.029,-27.464 -27.294,-43.458 -55.489,-48.588 -0.836,-0.152 -1.633,-0.515 -2.45,-0.78 H 21.32 c -0.968,0.275 -1.921,0.662 -2.909,0.806 -39.495,5.773 -65.891,45.069 -56.177,83.741 1.012,4.028 2.409,7.958 3.66,12.043 h -104.227 c 0.536,-1.379 0.909,-2.314 1.266,-3.256 13.238,-34.899 -2.458,-72.762 -36.67,-87.66 -6.064,-2.64 -12.764,-3.819 -19.17,-5.674 z"
             style="stroke:#231f20;stroke-width:8;stroke-linecap:butt;stroke-linejoin:miter;stroke-miterlimit:10;stroke-dasharray:none;stroke-opacity:1"
             id="path81"
             inkscape:connector-curvature="0" /></g></g></g></g></svg>