<?xml version="1.0" encoding="UTF-8" standalone="no"?>
<!-- Created with Inkscape (http://www.inkscape.org/) -->

<svg
   xmlns:dc="http://purl.org/dc/elements/1.1/"
   xmlns:cc="http://creativecommons.org/ns#"
   xmlns:rdf="http://www.w3.org/1999/02/22-rdf-syntax-ns#"
   xmlns:svg="http://www.w3.org/2000/svg"
   xmlns="http://www.w3.org/2000/svg"
   xmlns:sodipodi="http://sodipodi.sourceforge.net/DTD/sodipodi-0.dtd"
   xmlns:inkscape="http://www.inkscape.org/namespaces/inkscape"
   version="1.1"
   id="svg29"
   xml:space="preserve"
   width="36"
   height="27.192488"
   viewBox="0 0 36 27.192488"
   sodipodi:docname="cartplus-icon.svg"
   inkscape:version="0.92.4 (unknown)"><metadata
     id="metadata35"><rdf:RDF><cc:Work
         rdf:about=""><dc:format>image/svg+xml</dc:format><dc:type
           rdf:resource="http://purl.org/dc/dcmitype/StillImage" /><dc:title></dc:title></cc:Work></rdf:RDF></metadata><defs
     id="defs33"><clipPath
       clipPathUnits="userSpaceOnUse"
       id="clipPath45"><path
         d="M 0,655.974 H 868.422 V 0 H 0 Z"
         id="path43"
         inkscape:connector-curvature="0" /></clipPath></defs><sodipodi:namedview
     pagecolor="#ffffff"
     bordercolor="#666666"
     borderopacity="1"
     objecttolerance="10"
     gridtolerance="10"
     guidetolerance="10"
     inkscape:pageopacity="0"
     inkscape:pageshadow="2"
     inkscape:window-width="1920"
     inkscape:window-height="1007"
     id="namedview31"
     showgrid="false"
     inkscape:zoom="7.9118988"
     inkscape:cx="60.710225"
     inkscape:cy="22.89344"
     inkscape:window-x="0"
     inkscape:window-y="24"
     inkscape:window-maximized="1"
     inkscape:current-layer="g37" /><g
     id="g37"
     inkscape:groupmode="layer"
     inkscape:label="cartplus-icon"
     transform="matrix(1.3333333,0,0,-1.3333333,1927.5867,10.032953)"><g
       id="g39"
       transform="matrix(0.0310909,0,0,0.0310909,-1445.6901,-12.869651)"><g
         id="g41"
         clip-path="url(#clipPath45)"><g
           id="g47"
           transform="translate(463.8137,72.5587)"><path
             d="m 0,0 c -0.083,-15.89 12.779,-28.858 28.582,-28.818 15.562,0.04 28.478,12.907 28.599,28.491 C 57.304,15.471 44.36,28.412 28.468,28.384 12.668,28.355 0.083,15.808 0,0 m -201.005,28.383 c -15.731,-0.12 -28.429,-12.857 -28.437,-28.522 -0.008,-15.784 13.107,-28.833 28.824,-28.678 15.643,0.153 28.391,12.986 28.437,28.627 0.048,15.807 -12.953,28.695 -28.824,28.573 m -61.013,279.721 c 12.945,-49.597 25.799,-98.844 38.67,-148.159 H 84.16 c 14.733,49.396 29.413,98.615 44.191,148.159 z m 53.307,-376.663 c -3.226,0.788 -6.495,1.433 -9.671,2.388 -27.251,8.188 -44.538,26.172 -49.584,54.094 -4.959,27.437 4.868,50.016 26.981,66.984 2.74,2.102 3.049,3.798 2.263,6.801 -32.851,125.567 -65.649,251.148 -98.353,376.754 -0.959,3.684 -2.302,5.054 -6.372,5.026 -30.419,-0.213 -60.844,0.187 -91.258,-0.263 -12.344,-0.183 -20.865,4.056 -25.108,15.883 v 8.78 c 0.393,0.734 0.848,1.442 1.172,2.204 3.555,8.378 9.781,13.051 18.961,13.066 42.87,0.071 85.742,-0.004 128.612,0.111 3.25,0.008 3.765,-1.671 4.402,-4.122 10.947,-42.128 21.954,-84.241 32.954,-126.355 0.364,-1.393 0.795,-2.767 1.284,-4.459 h 453.935 c -0.314,-1.646 -0.439,-2.88 -0.786,-4.047 -21.9,-73.485 -43.855,-146.954 -65.627,-220.476 -1.155,-3.898 -3.352,-3.924 -6.41,-3.923 -105.056,0.034 -210.111,0.028 -315.166,0.028 h -6.186 c 0.851,-3.567 1.505,-6.51 2.258,-9.427 3.248,-12.588 6.648,-25.138 9.71,-37.77 0.839,-3.465 2.236,-4.528 5.869,-4.517 47.845,0.144 95.69,0.096 143.536,0.096 26.629,0 53.272,-0.5 79.884,0.176 17.725,0.45 32.468,-6.174 45.023,-17.326 21.271,-18.893 28.557,-43.024 20.573,-70.338 -8.029,-27.464 -27.294,-43.458 -55.489,-48.588 -0.836,-0.152 -1.633,-0.515 -2.45,-0.78 H 21.32 c -0.968,0.275 -1.921,0.662 -2.909,0.806 -39.495,5.773 -65.891,45.069 -56.177,83.741 1.012,4.028 2.409,7.958 3.66,12.043 h -104.227 c 0.536,-1.379 0.909,-2.314 1.266,-3.256 13.238,-34.899 -2.458,-72.762 -36.67,-87.66 -6.064,-2.64 -12.764,-3.819 -19.17,-5.674 z"
             style="fill-opacity:1;fill-rule:nonzero;stroke:none"
             id="path49"
             inkscape:connector-curvature="0" /></g><g
           id="g51"
           transform="translate(463.8137,72.5587)"><path
             d="m 0,0 c -0.083,-15.89 12.779,-28.858 28.582,-28.818 15.562,0.04 28.478,12.907 28.599,28.491 C 57.304,15.471 44.36,28.412 28.468,28.384 12.668,28.355 0.083,15.808 0,0 Z m -201.005,28.383 c -15.731,-0.12 -28.429,-12.857 -28.437,-28.522 -0.008,-15.784 13.107,-28.833 28.824,-28.678 15.643,0.153 28.391,12.986 28.437,28.627 0.048,15.807 -12.953,28.695 -28.824,28.573 z m -61.013,279.721 c 12.945,-49.597 25.799,-98.844 38.67,-148.159 H 84.16 c 14.733,49.396 29.413,98.615 44.191,148.159 z m 53.307,-376.663 c -3.226,0.788 -6.495,1.433 -9.671,2.388 -27.251,8.188 -44.538,26.172 -49.584,54.094 -4.959,27.437 4.868,50.016 26.981,66.984 2.74,2.102 3.049,3.798 2.263,6.801 -32.851,125.567 -65.649,251.148 -98.353,376.754 -0.959,3.684 -2.302,5.054 -6.372,5.026 -30.419,-0.213 -60.844,0.187 -91.258,-0.263 -12.344,-0.183 -20.865,4.056 -25.108,15.883 v 8.78 c 0.393,0.734 0.848,1.442 1.172,2.204 3.555,8.378 9.781,13.051 18.961,13.066 42.87,0.071 85.742,-0.004 128.612,0.111 3.25,0.008 3.765,-1.671 4.402,-4.122 10.947,-42.128 21.954,-84.241 32.954,-126.355 0.364,-1.393 0.795,-2.767 1.284,-4.459 h 453.935 c -0.314,-1.646 -0.439,-2.88 -0.786,-4.047 -21.9,-73.485 -43.855,-146.954 -65.627,-220.476 -1.155,-3.898 -3.352,-3.924 -6.41,-3.923 -105.056,0.034 -210.111,0.028 -315.166,0.028 h -6.186 c 0.851,-3.567 1.505,-6.51 2.258,-9.427 3.248,-12.588 6.648,-25.138 9.71,-37.77 0.839,-3.465 2.236,-4.528 5.869,-4.517 47.845,0.144 95.69,0.096 143.536,0.096 26.629,0 53.272,-0.5 79.884,0.176 17.725,0.45 32.468,-6.174 45.023,-17.326 21.271,-18.893 28.557,-43.024 20.573,-70.338 -8.029,-27.464 -27.294,-43.458 -55.489,-48.588 -0.836,-0.152 -1.633,-0.515 -2.45,-0.78 H 21.32 c -0.968,0.275 -1.921,0.662 -2.909,0.806 -39.495,5.773 -65.891,45.069 -56.177,83.741 1.012,4.028 2.409,7.958 3.66,12.043 h -104.227 c 0.536,-1.379 0.909,-2.314 1.266,-3.256 13.238,-34.899 -2.458,-72.762 -36.67,-87.66 -6.064,-2.64 -12.764,-3.819 -19.17,-5.674 z"
             style="stroke-width:8;stroke-linecap:butt;stroke-linejoin:miter;stroke-miterlimit:10;stroke-dasharray:none;stroke-opacity:1"
             id="path53"
             inkscape:connector-curvature="0" /></g><g
           id="g55"
           transform="translate(864.4221,479.8663)"><path
             d="m 0,0 c -1.449,-8.761 -2.482,-17.615 -4.415,-26.268 -14.689,-65.781 -71.353,-116.364 -138.57,-123.997 -18.038,-2.047 -35.891,-1.219 -53.631,2.686 -2.978,0.655 -3.983,1.838 -3.934,4.951 0.193,12.261 0.078,24.527 0.078,37.278 33.429,-10.371 65.41,-7.991 95.959,8.204 23.176,12.287 40.499,30.495 52.148,54.015 22.962,46.361 13.426,103.095 -23.434,139.751 -37.403,37.195 -93.403,46.292 -140.557,22.79 -17.461,-8.702 -31.977,-20.975 -43.583,-36.632 -11.695,-15.774 -19.173,-33.384 -22.3,-52.785 -3.098,-19.215 -1.628,-38.146 4.285,-57.012 -1.358,-0.203 -2.308,-0.466 -3.259,-0.468 -11.411,-0.03 -22.823,0.047 -34.233,-0.071 -2.675,-0.027 -3.7,0.791 -4.32,3.527 -18.615,82.324 31.728,166.896 113.12,189.861 C -114.801,191.744 -21.87,134.932 -3.123,41.326 -1.727,34.353 -1.024,27.241 0,20.193 Z"
             style="fill-opacity:1;fill-rule:nonzero;stroke:none"
             id="path57"
             inkscape:connector-curvature="0" /></g><g
           id="g59"
           transform="translate(864.4221,479.8663)"><path
             d="m 0,0 c -1.449,-8.761 -2.482,-17.615 -4.415,-26.268 -14.689,-65.781 -71.353,-116.364 -138.57,-123.997 -18.038,-2.047 -35.891,-1.219 -53.631,2.686 -2.978,0.655 -3.983,1.838 -3.934,4.951 0.193,12.261 0.078,24.527 0.078,37.278 33.429,-10.371 65.41,-7.991 95.959,8.204 23.176,12.287 40.499,30.495 52.148,54.015 22.962,46.361 13.426,103.095 -23.434,139.751 -37.403,37.195 -93.403,46.292 -140.557,22.79 -17.461,-8.702 -31.977,-20.975 -43.583,-36.632 -11.695,-15.774 -19.173,-33.384 -22.3,-52.785 -3.098,-19.215 -1.628,-38.146 4.285,-57.012 -1.358,-0.203 -2.308,-0.466 -3.259,-0.468 -11.411,-0.03 -22.823,0.047 -34.233,-0.071 -2.675,-0.027 -3.7,0.791 -4.32,3.527 -18.615,82.324 31.728,166.896 113.12,189.861 C -114.801,191.744 -21.87,134.932 -3.123,41.326 -1.727,34.353 -1.024,27.241 0,20.193 Z"
             style="fill:none;stroke-width:8;stroke-linecap:butt;stroke-linejoin:miter;stroke-miterlimit:10;stroke-dasharray:none;stroke-opacity:1"
             id="path61"
             inkscape:connector-curvature="0" /></g><g
           id="g63"
           transform="translate(722.4817,510.0963)"><path
             d="m 0,0 c 12.495,0 24.185,0.118 35.87,-0.031 13.103,-0.167 21.961,-10.488 20.116,-23.165 -1.352,-9.299 -9.467,-16.481 -19.217,-16.639 -10.531,-0.17 -21.067,-0.048 -31.6,-0.053 -1.565,-0.001 -3.131,0 -5.169,0 0,-5.254 0.011,-10.047 -0.003,-14.84 -0.021,-7.606 0.196,-15.225 -0.153,-22.817 -0.493,-10.701 -9.326,-18.676 -20.047,-18.559 -10.511,0.113 -19.224,8.572 -19.547,19.203 -0.187,6.139 -0.048,12.288 -0.051,18.432 -0.003,5.984 -10e-4,11.969 -10e-4,18.371 -1.6,0.077 -3.001,0.199 -4.402,0.201 -10.533,0.018 -21.067,-0.07 -31.601,0.034 -11.285,0.112 -20.049,8.626 -20.216,19.442 -0.173,11.26 8.17,20.01 19.728,20.264 10.382,0.228 20.773,0.063 31.16,0.071 1.586,10e-4 3.172,0 5.331,0 v 5.461 c 0.004,10.387 -0.114,20.776 0.044,31.161 0.168,11.09 9.07,19.821 19.913,19.823 10.699,0.002 19.45,-8.39 19.741,-19.429 C 0.172,26.403 -0.016,15.865 0,5.332 0.002,3.761 0,2.19 0,0"
             style="fill-opacity:1;fill-rule:nonzero;stroke:none"
             id="path65"
             inkscape:connector-curvature="0" /></g><g
           id="g67"
           transform="translate(722.4817,510.0963)"><path
             d="m 0,0 c 12.495,0 24.185,0.118 35.87,-0.031 13.103,-0.167 21.961,-10.488 20.116,-23.165 -1.352,-9.299 -9.467,-16.481 -19.217,-16.639 -10.531,-0.17 -21.067,-0.048 -31.6,-0.053 -1.565,-0.001 -3.131,0 -5.169,0 0,-5.254 0.011,-10.047 -0.003,-14.84 -0.021,-7.606 0.196,-15.225 -0.153,-22.817 -0.493,-10.701 -9.326,-18.676 -20.047,-18.559 -10.511,0.113 -19.224,8.572 -19.547,19.203 -0.187,6.139 -0.048,12.288 -0.051,18.432 -0.003,5.984 -10e-4,11.969 -10e-4,18.371 -1.6,0.077 -3.001,0.199 -4.402,0.201 -10.533,0.018 -21.067,-0.07 -31.601,0.034 -11.285,0.112 -20.049,8.626 -20.216,19.442 -0.173,11.26 8.17,20.01 19.728,20.264 10.382,0.228 20.773,0.063 31.16,0.071 1.586,10e-4 3.172,0 5.331,0 v 5.461 c 0.004,10.387 -0.114,20.776 0.044,31.161 0.168,11.09 9.07,19.821 19.913,19.823 10.699,0.002 19.45,-8.39 19.741,-19.429 C 0.172,26.403 -0.016,15.865 0,5.332 0.002,3.761 0,2.19 0,0 Z"
             style="stroke-width:8;stroke-linecap:butt;stroke-linejoin:miter;stroke-miterlimit:10;stroke-dasharray:none;stroke-opacity:1"
             id="path69"
             inkscape:connector-curvature="0" /></g></g></g></g></svg>