<?xml version="1.0" encoding="UTF-8" standalone="no"?>
<!-- Created with Inkscape (http://www.inkscape.org/) -->

<svg
   xmlns:dc="http://purl.org/dc/elements/1.1/"
   xmlns:cc="http://creativecommons.org/ns#"
   xmlns:rdf="http://www.w3.org/1999/02/22-rdf-syntax-ns#"
   xmlns:svg="http://www.w3.org/2000/svg"
   xmlns="http://www.w3.org/2000/svg"
   xmlns:sodipodi="http://sodipodi.sourceforge.net/DTD/sodipodi-0.dtd"
   xmlns:inkscape="http://www.inkscape.org/namespaces/inkscape"
   version="1.1"
   id="svg114"
   xml:space="preserve"
   width="187.51199"
   height="187.48267"
   viewBox="0 0 187.51199 187.48267"
   sodipodi:docname="delete-icon.svg"
   inkscape:version="0.92.4 (unknown)"><metadata
     id="metadata120"><rdf:RDF><cc:Work
         rdf:about=""><dc:format>image/svg+xml</dc:format><dc:type
           rdf:resource="http://purl.org/dc/dcmitype/StillImage" /><dc:title></dc:title></cc:Work></rdf:RDF></metadata><defs
     id="defs118"><clipPath
       clipPathUnits="userSpaceOnUse"
       id="clipPath130"><path
         d="M 0,140.612 H 140.634 V 0 H 0 Z"
         id="path128"
         inkscape:connector-curvature="0" /></clipPath></defs><sodipodi:namedview
     pagecolor="#ffffff"
     bordercolor="#666666"
     borderopacity="1"
     objecttolerance="10"
     gridtolerance="10"
     guidetolerance="10"
     inkscape:pageopacity="0"
     inkscape:pageshadow="2"
     inkscape:window-width="1920"
     inkscape:window-height="1007"
     id="namedview116"
     showgrid="false"
     inkscape:zoom="1.258783"
     inkscape:cx="93.755997"
     inkscape:cy="93.741333"
     inkscape:window-x="0"
     inkscape:window-y="24"
     inkscape:window-maximized="1"
     inkscape:current-layer="g122" /><g
     id="g122"
     inkscape:groupmode="layer"
     inkscape:label="delete-icon"
     transform="matrix(1.3333333,0,0,-1.3333333,0,187.48267)"><g
       id="g124"><g
         id="g126"
         clip-path="url(#clipPath130)"><path
           d="m 53.027,120.592 h 34.598 v 9.883 H 53.027 Z M 32.453,9.879 h 75.773 c 3.991,33.537 7.975,67.016 11.96,100.511 H 20.493 C 24.485,76.842 28.466,43.389 32.453,9.879 M 10.395,110.466 c -1.823,0 -3.59,-0.04 -5.354,0.009 -2.316,0.066 -4.336,1.633 -4.872,3.695 -0.555,2.136 0.275,4.516 2.199,5.523 0.986,0.515 2.219,0.773 3.342,0.778 11.993,0.052 23.987,0.031 35.981,0.03 h 1.236 c 0,3.19 0,6.271 10e-4,9.352 0,1.677 -0.026,3.354 0.014,5.03 0.09,3.784 1.907,5.655 5.642,5.677 8.232,0.048 16.464,0.038 24.696,0.046 5.691,0.007 11.383,0.008 17.074,0.004 0.762,0 1.527,-0.004 2.284,-0.064 3.207,-0.254 5.036,-2.086 5.084,-5.311 0.072,-4.826 0.019,-9.654 0.019,-14.733 H 99.4 c 11.739,-10e-4 23.479,0.009 35.218,-0.021 0.999,-0.003 2.04,-0.134 2.988,-0.436 1.967,-0.626 3.141,-2.6 3.02,-4.79 -0.122,-2.201 -1.484,-4.005 -3.472,-4.483 -0.781,-0.187 -1.601,-0.268 -2.405,-0.293 -1.462,-0.045 -2.926,-0.013 -4.462,-0.013 -0.468,-3.845 -0.917,-7.557 -1.372,-11.269 -0.698,-5.683 -1.421,-11.363 -2.093,-17.049 C 125.966,74.903 125.17,67.65 124.31,60.405 123.57,54.163 122.765,47.931 122.011,41.692 121.343,36.157 120.71,30.617 120.054,25.079 119.24,18.19 118.443,11.298 117.59,4.413 117.267,1.812 115.218,0.02 112.573,0.014 102.716,-0.007 92.858,0.015 83,0.017 72.228,0.019 61.455,0.018 50.683,0.016 43.264,0.014 35.845,-0.019 28.426,0.017 c -3.348,0.016 -5.001,1.762 -5.387,5.132 -0.82,7.146 -1.768,14.277 -2.625,21.42 -0.676,5.635 -1.279,11.279 -1.944,16.917 -0.611,5.181 -1.261,10.359 -1.893,15.539 -0.577,4.729 -1.161,9.457 -1.725,14.188 -0.751,6.287 -1.477,12.576 -2.228,18.864 -0.722,6.039 -1.463,12.077 -2.229,18.389"
           style="fill-opacity:1;fill-rule:nonzero;stroke:none"
           id="path132"
           inkscape:connector-curvature="0" /><g
           id="g134"
           transform="translate(58.7658,59.4418)"><path
             d="m 0,0 c 0,-9.851 0.015,-19.701 -0.009,-29.552 -0.008,-2.989 -1.922,-4.873 -4.827,-4.889 -2.969,-0.017 -4.94,1.915 -4.945,4.945 -0.021,12.896 -0.016,25.794 -0.023,38.69 -0.005,6.804 -0.012,13.608 -0.024,20.411 -0.005,3.119 2.067,5.29 5.032,5.256 2.864,-0.032 4.845,-2.227 4.842,-5.31 C 0.037,19.701 0.042,9.851 0.042,0 Z"
             style="fill-opacity:1;fill-rule:nonzero;stroke:none"
             id="path136"
             inkscape:connector-curvature="0" /></g><g
           id="g138"
           transform="translate(81.8552,59.8402)"><path
             d="m 0,0 c 0.001,9.244 -0.005,18.487 0.01,27.73 10e-4,1.063 -0.032,2.162 0.213,3.18 0.551,2.291 3.009,3.836 5.371,3.535 2.33,-0.298 4.215,-2.26 4.238,-4.634 0.065,-6.653 0.07,-13.306 0.074,-19.958 0.006,-13.104 0.008,-26.207 -0.017,-39.311 -0.006,-3.083 -1.634,-5.049 -4.282,-5.36 -3.01,-0.354 -5.446,1.603 -5.55,4.651 C -0.058,-26.818 0.003,-23.464 0,-20.112 -0.006,-13.408 -0.002,-6.704 0,0"
             style="fill-opacity:1;fill-rule:nonzero;stroke:none"
             id="path140"
             inkscape:connector-curvature="0" /></g></g></g></g></svg>