<?xml version="1.0" encoding="UTF-8" standalone="no"?>
<!-- Created with Inkscape (http://www.inkscape.org/) -->

<svg
   xmlns:dc="http://purl.org/dc/elements/1.1/"
   xmlns:cc="http://creativecommons.org/ns#"
   xmlns:rdf="http://www.w3.org/1999/02/22-rdf-syntax-ns#"
   xmlns:svg="http://www.w3.org/2000/svg"
   xmlns="http://www.w3.org/2000/svg"
   xmlns:sodipodi="http://sodipodi.sourceforge.net/DTD/sodipodi-0.dtd"
   xmlns:inkscape="http://www.inkscape.org/namespaces/inkscape"
   version="1.1"
   id="svg410"
   width="1092.8511"
   height="625.62842"
   viewBox="0 0 1092.8511 625.62842"
   sodipodi:docname="delivery-icon-3.svg"
   inkscape:version="0.92.4 (unknown)">
  <metadata
     id="metadata416">
    <rdf:RDF>
      <cc:Work
         rdf:about="">
        <dc:format>image/svg+xml</dc:format>
        <dc:type
           rdf:resource="http://purl.org/dc/dcmitype/StillImage" />
        <dc:title></dc:title>
      </cc:Work>
    </rdf:RDF>
  </metadata>
  <defs
     id="defs414" />
  <sodipodi:namedview
     pagecolor="#ffffff"
     bordercolor="#666666"
     borderopacity="1"
     objecttolerance="10"
     gridtolerance="10"
     guidetolerance="10"
     inkscape:pageopacity="0"
     inkscape:pageshadow="2"
     inkscape:window-width="1920"
     inkscape:window-height="1007"
     id="namedview412"
     showgrid="false"
     inkscape:zoom="0.28270814"
     inkscape:cx="2459.9956"
     inkscape:cy="291.58792"
     inkscape:window-x="0"
     inkscape:window-y="24"
     inkscape:window-maximized="1"
     inkscape:current-layer="svg410" />
  <path
     d="m 931.16561,623.92061 c -4.80083,-3.0165 -6.43511,-6.29509 -7.40029,-14.84603 -0.87935,-7.79046 -2.90599,-15.60963 -6.93523,-26.75738 -1.53656,-4.25122 -2.04442,-7.50916 -1.74243,-11.17786 0.60396,-7.33736 3.75509,-11.20926 14.60343,-17.94369 0.1814,-0.11261 -0.24128,-3.60354 -0.93929,-7.75763 l -1.26911,-7.55288 -5.25437,4.96936 c -5.98716,5.66241 -8.73924,6.9627 -14.73634,6.9627 -2.9853,0 -5.6281,-0.88082 -8.9349,-2.97798 -2.5827,-1.63788 -4.6958,-3.40336 -4.6958,-3.92327 0,-0.51991 -1.163,-2.32742 -2.5844,-4.01667 l -2.5844,-3.07137 -12.6656,0.13283 c -10.8195,0.11348 -13.3462,-0.16862 -17.3353,-1.93538 -6.2735,-2.77856 -12.0667,-8.19303 -17.2613,-16.13284 -9.1563,-13.99503 -18.632,-20.90411 -26.9317,-19.63694 -2.2755,0.34742 -6.6123,1.90562 -9.6373,3.46267 -5.0581,2.60353 -5.46,3.06272 -5.0022,5.71497 0.2738,1.58619 0.4598,6.25898 0.4133,10.38398 -0.4289,38.05637 -0.4466,38.14928 -8.6378,45.51388 -3.6922,3.31965 -6.8389,5.05595 -12.0083,6.62613 -6.9131,2.09978 -7.1883,2.10605 -20.9523,0.47762 l -13.9472,-1.65011 -8.6827,7.65449 c -5.4774,4.82869 -11.4516,8.98784 -16.1828,11.26624 -7.1967,3.4657 -7.9246,3.60903 -18,3.54454 -11.0217,-0.0705 -13.9339,-0.82116 -31,-7.99047 -7.8012,-3.27721 -16.4276,-3.59758 -25.4281,-0.94436 -13.9402,4.10935 -23.7334,-0.097 -30.3333,-13.02864 -2.7525,-5.39322 -4.8761,-7.10827 -11.7149,-9.46116 -3.2102,-1.10449 -5.8914,-2.00816 -5.958,-2.00816 -0.067,0 -0.1361,3.2625 -0.1542,7.25 -0.038,8.41524 -2.2264,13.62423 -7.7668,18.48882 -5.0676,4.44939 -9.6219,5.63219 -19.0719,4.95318 -11.1285,-0.79962 -20.171,-3.82201 -27.4361,-9.17027 -4.6554,-3.4271 -7.5311,-4.72902 -12.446,-5.63463 l -6.3918,-1.17773 -18.8994,7.59119 c -10.3947,4.17516 -20.3243,7.86803 -22.0658,8.20639 -4.5827,0.89039 -10.8939,-1.13032 -15.1404,-4.84763 -2.1016,-1.83969 -5.8482,-3.77703 -8.6933,-4.49524 -7.6939,-1.94221 -11.3639,-5.50676 -16.7038,-16.22375 l -4.7038,-9.44033 -7.3422,-0.53665 c -5.2182,-0.38141 -8.1968,-1.14482 -10.2962,-2.63897 -2.1532,-1.53236 -4.3788,-2.08061 -8.2096,-2.02228 -3.8247,0.0582 -6.0028,-0.47692 -8,-1.96557 -4.9625,-3.69891 -5.9607,-6.83111 -7.1916,-22.56748 -1.2098,-15.46563 -2.6561,-22.65156 -6.2322,-30.96438 l -2.1585,-5.01751 -4.581,0.59188 c -14.2018,1.8349 -18.6884,1.87541 -21.932,0.19805 -4.3039,-2.2256 -7.1407,-7.08738 -7.1454,-12.24553 0,-3.67187 -0.4146,-4.42241 -3.4533,-6.30041 -5.3004,-3.27585 -8.0171,-8.44655 -8.0171,-15.25927 0,-4.18897 -0.4092,-5.9039 -1.5166,-6.3556 -0.8342,-0.34023 -13.063,-2.95974 -27.1751,-5.82112 l -25.6584,-5.2025 -1.5521,3.25472 c -2.0299,4.25667 -5.958,6.73908 -11.0351,6.97375 -6.7928,0.31396 -7.6067,0.97914 -7.0034,5.72354 0.6645,5.22695 -1.9462,10.34689 -6.7057,13.15023 -2.6247,1.54598 -5.1988,1.99605 -11.4388,2 -7.3206,0.005 -8.754,-0.34191 -15.7827,-3.81569 -5.834,-2.88331 -8.7055,-5.05384 -11.7032,-8.84626 -2.1848,-2.76401 -4.2428,-6.10264 -4.5732,-7.41918 -0.4466,-1.77935 -1.6644,-2.66856 -4.7449,-3.46459 -7.9767,-2.06128 -13.0225,-4.38127 -17.1834,-7.90076 -2.3073,-1.95163 -5.6236,-4.32572 -7.3695,-5.27576 -4.485,-2.44056 -6.4252,-7.58687 -5.5861,-14.81692 0.7851,-6.76455 -0.7432,-10.55118 -5.7541,-14.25616 -8.5014,-6.2859 -18.59,-6.60594 -21.756,-0.69018 -0.6413,1.1983 -3.1474,3.05515 -5.5689,4.12633 -5.4728,2.42086 -10.7483,1.33769 -15.0841,-3.09713 -1.9318,-1.97584 -3.3221,-2.66894 -4.2292,-2.1083 -1.1194,0.6918 -1.0518,1.73739 0.3938,6.08956 2.0487,6.16813 1.6267,16.60155 -0.8227,20.33984 -1.3508,2.0615 -1.3713,2.8687 -0.1621,6.3783 1.803,5.23326 0.4755,10.245 -3.6281,13.69802 -5.1097,4.29948 -6.5955,4.37821 -21.3937,1.13354 -3.85,-0.84416 -9.066303,-1.54265 -11.591703,-1.5522 -4.5452,-0.0172 -4.6043,0.0257 -5.8326,4.23264 -0.6825,2.3375 -2.4842,5.825 -4.0038,7.75 -4.1164,5.21447 -5.7424,8.83655 -7.1278,15.8787 -1.4929,7.58799 -5.9766,14.68051 -10.9285,17.28715 -4.792,2.52244 -16.0275,2.46584 -21.6995,-0.10931 -6.2135,-2.82103 -9.112,-7.87733 -10.3883,-18.12188 -2.3338,-18.73343 -3.5494,-22.63461 -13.419,-43.06524 C 7.5738773,402.12778 3.5480773,390.82013 0.76727728,372.8172 c -1.5871,-10.27436 -0.603,-26.63581 1.94890002,-32.40498 3.2078,-7.25166 10.3874997,-9.48243 19.1871997,-5.9615 3.9618,1.5852 4.1269,1.57024 5.5809,-0.50571 1.8322,-2.61574 6.4745,-5.1167 9.5773,-5.15961 1.2648,-0.0175 3.1732,-0.6925 4.2408,-1.5 2.7375,-2.07053 8.8616,-1.82939 17.3369,0.68262 6.2715,1.85882 7.6199,1.97419 9.75,0.83419 1.3596,-0.72763 2.472,-1.79448 2.472,-2.37078 0,-0.5763 -2.0422,-6.09373 -4.5381,-12.26097 -6.0075,-14.84377 -7.2938,-21.01686 -5.5436,-26.60359 0.7323,-2.33732 1.2451,-7.47759 1.1397,-11.42283 -0.185,-6.92461 -0.069,-7.30911 3.3529,-11.09658 l 3.5446,-3.92342 -2.5402,-2.38636 c -6.6656,-6.26209 -8.4014,-13.99424 -4.5349,-20.20173 2.1793,-3.49892 11.1242,-12.4326 15.0921,-15.07328 1.3599,-0.90501 4.0966,-1.64547 6.0816,-1.64547 3.2063,0 3.953,-0.53003 6.6909,-4.75 1.6951,-2.6125 4.242,-5.83736 5.66,-7.16635 2.4241,-2.2721 2.5409,-2.81643 1.9552,-9.11823 -0.8218,-8.84225 0.8894,-15.61383 5.806703,-22.97744 6.3485,-9.50702 20.9709,-19.96972 26.0521,-18.64096 1.1172,0.29216 5.4387,-1.34229 10.3725,-3.9231 5.1385,-2.68783 9.7821,-4.42392 11.833,-4.42392 2.5134,0 4.2544,-0.87886 6.8166,-3.44106 1.8925,-1.89258 4.75,-3.77081 6.35,-4.17386 1.822,-0.459 9.1694,0.32651 19.6643,2.10233 9.2155,1.55932 16.8655,2.65006 17,2.42386 0.1345,-0.2262 1.3344,-2.57653 2.6663,-5.22297 3.0016,-5.9639 8.1622,-10.64787 28.8781,-26.21088 10.9567,-8.23139 17.7761,-12.65872 20.8036,-13.50637 3.5784,-1.00188 4.8858,-2.00182 6.3626,-4.86603 4.2053,-8.156215 12.6962,-13.398195 21.534,-13.294348 11.4033,0.133992 27.3353,9.296722 30.4364,17.504428 0.585,1.5483 1.0636,5.68288 1.0636,9.18795 0,3.50506 0.756,9.43827 1.68,13.1849 1.1921,4.83406 1.6843,11.18168 1.695,21.86077 l 0.015,15.04871 4.3682,-1.43806 c 3.6091,-1.18816 5.0957,-1.22045 8.5549,-0.18582 10.0286,2.99948 14.0974,9.22517 13.5187,20.68515 -0.3059,6.05678 -0.1049,7.34493 1.1487,7.36207 8.3376,0.114 29.5603,3.10362 31.6222,4.45458 3.2639,2.13859 6.3888,7.34786 6.3935,10.65802 0,1.73666 0.6455,2.80119 1.8884,3.12622 1.6213,0.42399 1.9527,-0.21472 2.3713,-4.57135 0.6273,-6.52845 5.2213,-11.18739 12.0398,-12.20989 6.4054,-0.96055 10.7531,1.38634 15.5204,8.37799 2.1164,3.10401 6.393,7.62397 9.5035,10.04435 l 5.6554,4.40069 2.0883,-2.65482 c 1.1486,-1.46015 4.1917,-4.08281 6.7625,-5.82813 2.5708,-1.74533 7.3016,-5.58172 10.513,-8.52534 3.2113,-2.94361 9.2782,-7.67289 13.4819,-10.50951 6.2311,-4.2047 8.6152,-5.23812 12.9054,-5.59389 5.0436,-0.41826 5.429,-0.26987 9.2681,3.56931 3.075,3.07498 4.0093,4.78818 4.021,7.37335 0.02,4.44543 0.6609,5.16335 5.9847,6.70715 8.7172,2.52777 9.9996,2.53122 14.3497,0.0386 3.6194,-2.0739 5.5292,-2.39227 14.9287,-2.48867 l 10.7783,-0.11054 2.5751,-5.16742 c 3.0996,-6.22019 6.3466,-8.82912 17.4352,-14.00924 9.5983,-4.48389 17.9478,-6.8558 27.1051,-7.7 8.2484,-0.76039 12.8279,-2.19888 12.8279,-4.02944 0,-4.73007 13.317,-20.63021 18.8152,-22.46475 5.9284,-1.97812 9.7646,-0.42436 16.4927,6.67984 3.3659,3.55409 6.6965,6.24066 7.4014,5.97016 2.0474,-0.78563 12.3769,1.44529 16.5505,3.57448 9.2702,4.72934 15.4624,14.45333 16.3679,25.70377 0.295,3.66504 0.985,7.85531 1.5334,9.31171 0.9523,2.52918 1.2515,2.62516 6.668,2.13904 3.6838,-0.33062 6.8802,-0.0134 9.1222,0.9054 l 3.4513,1.41436 2.0487,-4.0534 c 2.4515,-4.85044 7.5626,-7.66238 18.4128,-10.13009 13.8935,-3.15986 25.4576,0.63171 32.4725,10.64691 1.3656,1.94961 1.8219,2.03257 5.1461,0.93549 2.0062,-0.66211 5.1582,-0.92045 7.0045,-0.57409 2.0709,0.3885 3.625,0.19582 4.0569,-0.50297 0.385,-0.62299 2.2201,-1.76784 4.078,-2.5441 3.666,-1.53175 3.7213,-1.72549 2.3936,-8.38455 -1.2454,-6.24601 0.3167,-11.32047 5.0735,-16.48091 3.3323,-3.61514 7.1032,-5.70466 23.687,-13.12518 21.6716,-9.69708 25.4606,-10.49769 31.0032,-6.55098 4.9861,3.5504 6.5772,2.89381 11.7147,-4.8341 9.7095,-14.60519 22.1562,-20.10926 35.0059,-15.47999 2.2,0.79257 4.2953,1.44782 4.6562,1.4561 0.8409,0.0193 7.2324,-8.85938 9.0816,-12.61563 0.777,-1.57812 2.0026,-6.01931 2.7237,-9.86931 1.5881,-8.478498 4.1515,-13.752107 13.362,-27.48882 11.84503,-17.665866 19.03549,-24.107793 37.1765,-33.306384 4.95,-2.50995 11.7,-6.616599 15,-9.125887 3.3,-2.509288 7.35,-5.015248 9,-5.568799 1.86104,-0.624352 4.06956,-2.700812 5.8172,-5.469354 5.86555,-9.291993 23.26658,-22.1387297 31.47922,-23.24026865 7.6105,-1.020788 14.1334,4.71817795 14.3033,12.58437065 0.1988,9.206887 1.4615,10.530444 11.9937,12.57194 6.0071,1.164396 10.6063,9.425254 8.8297,15.85964 -0.5037,1.824042 -4.7649,7.877026 -9.4695,13.451077 -6.8133,8.072467 -9.6627,10.659247 -14.0037,12.712856 -2.9974,1.41802 -5.4582,2.902536 -5.4683,3.298923 -0.01,0.396388 0.7774,3.304358 1.75,6.462157 l 1.7684,5.741451 12.3489,0.0085 c 14.9831,0.01037 18.0535,1.109851 21.1894,7.587658 1.5538,3.209814 1.9366,5.272343 1.421,7.657034 -0.7986,3.693566 -4.7062,11.833266 -7.7539,16.151916 l -2.0382,2.88805 2.189,14.86063 c 1.204,8.17335 3.7539,20.29721 5.6664,26.94192 3.937,13.6779 4.2616,18.12565 1.6368,22.42134 -1.7447,2.8554 -3.3069,3.91494 -9.2845,6.29715 -2.3521,0.93735 -2.7006,1.75132 -3.3511,7.82532 -0.3993,3.72853 -1.1368,7.85969 -1.6389,9.18035 -0.7494,1.97107 -0.3862,3.00112 2.0276,5.75035 2.2541,2.5672 3.2297,5.06944 4.1787,10.71712 l 1.238,7.36796 11.7747,6.7144 c 6.4761,3.69293 12.9679,8.13243 14.4263,9.86556 2.3566,2.8007 2.6136,3.83829 2.3106,9.32965 l -0.3408,6.1785 4.5,3.4327 c 6.3278,4.82702 7.558,8.91863 5.2667,17.51762 l -1.7354,6.51275 4.2039,3.65529 c 6.2421,5.42746 7.8164,11.25409 4.6798,17.31974 -1.5048,2.90995 -1.4539,3.35744 1.0059,8.83862 2.8455,6.34053 8.5648,27.02932 8.569,30.99692 0.01,6.63195 -7.427,12.99009 -15.1953,12.99626 -4.3899,0.003 -6.066,-0.91238 -25,-13.66123 -20.2638,-13.64426 -34.2896,-23.90019 -40.6749,-29.74229 -5.5841,-5.10908 -11.7152,-14.06948 -14.95961,-21.86277 -1.68224,-4.04093 -4.14784,-9.26475 -5.47911,-11.60849 l -2.42048,-4.26134 -10.06857,13.92305 c -11.0918,15.33801 -12.98467,16.77945 -21.02061,16.0073 -4.57358,-0.43947 -4.8988,-0.30279 -6.73842,2.83176 -1.12761,1.92134 -7.52553,7.37318 -15.35642,13.08563 -7.38292,5.38567 -14.31118,11.00001 -15.39613,12.47633 -2.4775,3.37119 -3.42326,12.47162 -2.46376,23.70722 1.70486,19.96384 10.47907,34.21965 28.19064,45.80251 3.90101,2.55115 10.15968,6.64279 13.90816,9.09254 7.78846,5.09 10.76413,9.03886 13.73545,18.22762 1.15352,3.56725 4.50972,10.7768 7.45823,16.02123 10.80215,19.2135 13.12938,31.82164 12.17586,65.96467 -0.8348,29.89237 -3.9832,53.70389 -8.8047,66.5905 -4.21427,11.26366 -14.49419,19.98584 -25.80806,21.8973 -3.80329,0.64257 -4.04623,0.91108 -5.5716,6.15818 -0.92169,3.17049 -2.98285,7.00082 -4.883,9.07424 -2.84757,3.10723 -4.0135,3.64171 -8.70283,3.98951 -4.18568,0.31045 -6.14014,-0.0542 -8.61043,-1.60632 z m 26.93084,-46.1455 c 4.91816,-6.07368 8.76483,-36.18775 8.76483,-68.61646 0,-25.15849 -1.02896,-30.52403 -8.24206,-42.97833 -2.82326,-4.87472 -6.57014,-12.63053 -8.32639,-17.23515 l -3.19319,-8.37204 -8.63406,-5.33097 c -26.0574,-16.08871 -38.2659,-31.26708 -44.7442,-55.62852 -3.2571,-12.24787 -3.3084,-35.2802 -0.1015,-45.47997 3.1269,-9.94522 6.8528,-14.3633 21.26216,-25.21206 11.16956,-8.40954 12.74977,-9.98377 15.05698,-15 3.08579,-6.709 8.13011,-11.37084 16.58479,-15.32726 6.05402,-2.83302 6.23908,-3.03125 5.69712,-6.10264 -0.30809,-1.74598 -1.66723,-8.79951 -3.02031,-15.67451 -1.41098,-7.16917 -2.20419,-13.87346 -1.85996,-15.72056 1.35379,-7.26421 8.80398,-12.06387 16.85246,-10.85693 13.56038,2.03351 44.35958,24.22314 48.80868,35.16475 0.875,2.15201 2.6032,6.38774 3.8404,9.41274 1.2373,3.025 3.1818,7.91831 4.3213,10.87402 1.1395,2.95571 4.1867,7.68071 6.7716,10.5 4.0868,4.45744 23.1953,19.5261 25.9443,20.45931 0.5551,0.18844 0.9819,-1.81533 0.9819,-4.60953 0,-3.61259 -0.8707,-6.63105 -3.2351,-11.21559 -2.6641,-5.16564 -3.2593,-7.50639 -3.3723,-13.26262 l -0.1372,-6.98991 -4.7633,-4.07158 c -5.3341,-4.55946 -8.4373,-10.36664 -8.4701,-15.85077 -0.026,-4.30942 -0.8269,-4.73601 -7.6519,-4.07509 -3.8289,0.37078 -5.9056,0.0385 -8.1889,-1.31029 -6.5335,-3.85941 -20.82002,-27.51323 -21.81508,-36.11857 -0.38122,-3.29688 -0.0185,-6.25736 1.14305,-9.32938 0.93581,-2.475 1.82753,-6.8628 1.98163,-9.75066 0.2719,-5.0987 2.4278,-9.9177 5.1666,-11.54903 0.7384,-0.43983 1.3426,-1.65518 1.3426,-2.70078 0,-5.81504 2.3652,-12.13285 6.1533,-16.43635 l 4.014,-4.56019 -2.0393,-8.75149 c -3.2371,-13.89192 -6.2077,-36.39061 -5.4932,-41.60391 0.7778,-5.6747 0.9032,-5.65807 -11.50218,-1.5252 -8.30009,2.76517 -9.80777,2.99191 -13.17878,1.98193 -4.62029,-1.38427 -8.63866,-5.90726 -9.54623,-10.74501 -0.76594,-4.08282 0.99574,-8.555593 5.7183,-14.518315 l 2.95296,-3.728409 -2.28945,-1.198623 c -6.27017,-3.282708 -13.01965,-8.458463 -14.3269,-10.986407 -1.84308,-3.564128 -1.82539,-9.668836 0.0375,-12.927557 2.30156,-4.026149 1.79615,-4.066058 -3.75,-0.296118 -2.8875,1.962749 -7.725,4.674653 -10.75,6.026453 -10.24303,4.577367 -18.70056,10.991656 -23.66362,17.946753 -3.71476,5.205776 -4.36531,6.691243 -3.24187,7.402486 0.77302,0.48939 1.8838,0.896691 2.4684,0.905113 1.87609,0.02703 6.44589,5.559214 7.43182,8.996934 1.31407,4.58191 -0.4867,11.15747 -3.96931,14.49403 -1.72754,1.65509 -6.08495,3.68621 -11.47033,5.34668 l -8.68453,2.67767 -8.7561,13 c -9.795,14.54234 -14.1169,18.4078 -21.5136,19.24151 -3.8348,0.43225 -5.7487,-0.032 -11.2049,-2.71808 -4.8811,-2.40295 -6.8791,-2.95056 -7.738,-2.12085 -0.6369,0.61519 -3.633,4.81511 -6.658,9.33316 -4.4006,6.57266 -6.4686,8.70617 -10.3456,10.67373 -6.2077,3.15034 -18.9673,4.04759 -25.4494,1.7896 l -4.2949,-1.49611 -10.7051,4.81764 c -8.474,3.81362 -10.6445,5.1992 -10.4147,6.64852 0.1596,1.00698 0.3383,4.8176 0.397,8.46804 0.088,5.46266 -0.4388,7.8031 -2.9764,13.22589 -3.5424,7.56984 -7.4454,10.60699 -13.7109,10.66917 -2.7036,0.0268 -4.9575,0.82223 -6.9543,2.45417 -2.5853,2.11295 -2.9197,2.97594 -2.6777,6.91066 0.401,6.52017 -2.0831,11.04458 -7.5049,13.66923 -3.6766,1.77978 -5.1065,1.98829 -8.2186,1.19836 -6.2123,-1.57684 -17.6864,-8.91826 -22.4505,-14.36438 -5.1595,-5.89806 -6.1846,-7.73412 -7.7608,-13.90026 l -1.1504,-4.5 -1.9172,5.1319 c -2.3578,6.31099 -6.4289,9.3354 -16.72,12.42115 -8.7528,2.62448 -16.0482,2.25375 -22.0521,-1.12065 l -3.9425,-2.21584 -8.5954,2.15578 c -4.7275,1.18568 -9.6518,1.89065 -10.9429,1.56659 -1.6818,-0.42209 -3.1368,0.14229 -5.1305,1.99 -5.5116,5.10793 -19.6333,12.8438 -23.4461,12.8438 -7.8954,0 -13.4058,-5.77308 -13.2827,-13.91598 0.084,-5.57679 0.6947,-6.56168 14.903,-24.04863 11.5877,-14.26161 13.9277,-18.39067 11.6902,-20.6282 -0.3594,-0.35938 -2.0469,0.19946 -3.75,1.24185 -1.7031,1.0424 -5.0143,2.40519 -7.3582,3.02842 -3.6905,0.98129 -4.8841,0.85778 -8.9068,-0.92164 -3.9561,-1.74997 -4.8815,-1.85292 -6.2384,-0.69399 -3.5343,3.01866 -22.1882,8.83011 -30.9952,9.65624 -5.8298,0.54687 -11.28,1.81945 -16.1928,3.78087 l -7.4052,2.95656 -0.018,7.38588 c -0.02,8.24467 -1.6895,11.90745 -6.5811,14.437 -3.5061,1.81306 -12.6094,1.83927 -20.1789,0.0581 -5.2523,-1.2359 -5.7323,-1.21174 -5.2779,0.26562 3.1312,10.18054 3.774,15.21278 3.2096,25.12517 -0.3289,5.775 -1.433,14.46375 -2.4535,19.30832 -2.3407,11.11128 -5.3728,14.7395 -12.8576,15.38521 -8.575,0.73978 -13.4352,-4.27197 -16.8476,-17.37313 -1.8531,-7.11456 -1.9053,-14.3039 -0.1528,-21.05998 0.9315,-3.59092 1.0233,-5.49461 0.3,-6.21793 -0.5734,-0.57337 -4.3275,-1.04249 -8.3425,-1.04249 -6.8275,0 -7.3,0.14068 -7.3,2.17343 0,1.89214 -1.5789,5.5359 -9.8557,22.74555 -2.4742,5.1446 -6.2498,7.46564 -12.1443,7.46564 -5.3447,0 -8.7386,-1.81448 -12.2892,-6.57018 -1.6249,-2.17631 -1.8943,-4.16044 -1.7899,-13.18074 0.068,-5.84032 0.569,-11.79216 1.1143,-13.22632 l 0.9914,-2.60755 -3.0444,2.56165 c -3.1695,2.66699 -8.6896,4.63188 -12.9822,4.62107 -4.2937,-0.0108 -12.6514,-2.64354 -18.572,-5.85026 l -5.6829,-3.07798 -1.9671,2.50075 c -3.4301,4.36071 -9.4859,6.74675 -18.3604,7.2342 -7.9021,0.43405 -8.1619,0.37419 -11.6443,-2.68344 -1.959,-1.72007 -3.8279,-4.18739 -4.1531,-5.48294 -0.5118,-2.03906 -2.0179,-2.73369 -11.2096,-5.16999 -11.1616,-2.95844 -15.731,-5.89713 -16.994,-10.92906 -0.667,-2.65755 -1.1729,-2.76187 -22.4166,-4.62205 -7.425,-0.65016 -14.9433,-1.76306 -16.7074,-2.47311 -2.3637,-0.95143 -4.1747,-1.02391 -6.885,-0.27554 -7.4546,2.05831 -16.4076,-4.21725 -16.4076,-11.50084 0,-2.02601 -0.8688,-3.05485 -3.8742,-4.58812 -6.4753,-3.30344 -9.1258,-7.29949 -9.1258,-13.75854 0,-5.0705 0.3187,-5.85962 3.7538,-9.2947 2.1071,-2.10711 6.0284,-4.56167 8.9391,-5.59544 3.4362,-1.22046 5.3699,-2.52873 5.7325,-3.87858 1.1224,-4.17766 0.5099,-25.1756 -0.9054,-31.03691 -0.7968,-3.3 -1.4648,-8.34667 -1.4844,-11.21482 -0.028,-4.12167 -0.4438,-5.43326 -1.9828,-6.25692 -1.6754,-0.89665 -2.3778,-0.41631 -5.0319,3.44136 -3.1208,4.53593 -8.8199,8.55983 -15.0898,10.65433 -3.4548,1.15409 -20.1219,13.11708 -31.6422,22.71143 -4.7414,3.94877 -6.5116,6.17579 -7.4811,9.41179 -1.6996,5.6727 -9.0653,13.2132 -14.3078,14.6474 -5.9425,1.62567 -16.0175,1.10921 -27.1202,-1.39021 -1.8419,-0.41465 -2.1946,0.0785 -2.6882,3.75858 -0.8315,6.19891 -6.006,10.73706 -12.2427,10.73706 -5.134,0 -7.1767,-0.8756 -12.9489,-5.55052 l -4,-3.23958 -7.384,4.89505 c -5.9526,3.94618 -8.213,4.89505 -11.6611,4.89505 -7.3635,0 -11.3512,7.00709 -8.3571,14.6849 1.5605,4.00172 1.2541,10.7167 -0.6635,14.54334 -0.9018,1.79947 -4.0539,5.61026 -7.0045,8.46842 -2.9507,2.85816 -5.566,6.23316 -5.8119,7.5 -2.1201,10.92653 -2.9123,13.75835 -4.6468,16.61039 -1.0941,1.7991 -3.5832,4.21154 -5.5313,5.36097 -3.069703,1.81114 -3.460403,2.46161 -2.929903,4.87709 0.9879,4.49787 -0.5262,9.82299 -4.1384,14.5553 -2.421,3.17167 -3.3777,5.47167 -3.3935,8.15824 -0.012,2.05774 -0.8541,5.57347 -1.8711,7.81273 l -1.8492,4.07137 4.982,12.35512 c 5.853,14.5152 6.8506,21.2035 4.3056,28.86585 -2.9979,9.02578 -15.8229,19.03768 -26.5928,20.75986 -2.9438,0.47074 -5.0718,1.52965 -6.3567,3.1632 -2.1465,2.72873 -7.307,5.21322 -10.8285,5.21322 -1.2633,0 -3.9528,-0.88748 -5.9766,-1.97218 -3.3781,-1.81055 -3.9684,-1.85153 -7.2031,-0.5 -1.9378,0.8097 -5.5628,1.47218 -8.0555,1.47218 -5.3202,0 -5.4516,0.49805 -3.0912,11.71899 2.2414,10.6555 6.9859,22.7373 16.564,42.18087 4.8458,9.8368 9.8381,21.07582 11.0942,24.97562 l 2.2836,7.09053 2.768,-3.233 c 1.9371,-2.26245 2.7802,-4.36841 2.8087,-7.01513 0.045,-4.2404 2.246,-10.18164 4.8287,-13.03769 0.9416,-1.04116 3.5119,-2.85517 5.7119,-4.03114 3.5417,-1.89317 5.5108,-2.12628 17.1871,-2.03461 l 13.187103,0.10353 1.0984,-2.65185 c 0.8444,-2.03855 0.7653,-3.45138 -0.3419,-6.10898 -3.676,-8.82309 -2.6138,-18.35728 2.842,-25.5102 5.1297,-6.72546 31.4937,-22.44995 37.6287,-22.4432 3.6863,0.004 9.6176,3.10054 10.5392,5.50198 0.4295,1.11944 2.2498,1.49428 7.2563,1.49428 13.1364,0 26.5496,5.46514 35.7437,14.56362 6.126,6.06227 9.0463,11.4407 10.8232,19.93326 1.894,9.05252 4.3494,11.88502 12.1277,13.99052 6.7421,1.82501 14.7975,6.5025 16.4203,9.53471 0.8916,1.666 1.1945,1.5876 4.0035,-1.03637 1.6713,-1.5613 4.3845,-3.13427 6.0291,-3.4955 1.8861,-0.41425 3.536,-1.71187 4.4679,-3.51395 0.8126,-1.57144 2.7781,-3.6255 4.3679,-4.56458 1.5897,-0.93907 3.6112,-3.21895 4.4922,-5.0664 1.9168,-4.01954 6.9693,-7.33642 11.1833,-7.34157 1.6806,-0.002 7.0499,1.60688 11.9318,3.57541 6.2196,2.50794 16.2292,5.05356 33.4443,8.50543 33.2572,6.66854 45.1246,10.97538 50.315,18.26001 1.7926,2.51591 2.2487,4.51365 2.2507,9.85726 0,5.83958 0.2731,6.82536 2.106,7.66182 1.157,0.52799 3.825,2.93895 5.9291,5.3577 l 3.8255,4.39771 10.9844,-1.33316 c 12.6418,-1.53435 16.1474,-0.86932 20.085,3.81027 3.3111,3.93509 4.1164,8.6664 2.2394,13.15853 -1.4092,3.37283 -1.3333,4.04486 1.3239,11.71862 1.5503,4.47732 3.3581,11.93996 4.0173,16.58363 0.8334,5.87112 1.6133,8.44303 2.5604,8.44303 2.0519,0 8.0291,5.61437 9.3359,8.76919 1.0187,2.45946 1.5859,2.7369 4.9409,2.41696 10.7356,-1.02381 17.5958,4.20526 24.2971,18.51994 4.0208,8.5891 5.1947,10.29755 7.0883,10.31587 2.243,0.0217 8.7467,2.82261 11.893,5.12188 1.3244,0.96788 4.6608,-0.0382 18.1011,-5.45821 19.0033,-7.66345 23.3059,-8.21536 40.2547,-5.16366 9.3295,1.67981 10.0836,2.00719 15.1106,6.55962 4.4,3.98467 10.1343,6.88662 13.6599,6.91283 0.4125,0.003 0.7544,-2.58192 0.7598,-5.74442 0.015,-9.14715 4.581,-16.89544 14.2506,-24.185 0.9681,-0.72989 3.7871,-1.70573 6.2643,-2.16852 3.902,-0.72897 6.1395,-0.30268 16.7397,3.18913 16.6625,5.48885 25.3621,11.49011 30.1898,20.82581 1.4303,2.76599 1.8067,2.93872 4.3066,1.97624 4.5132,-1.73765 20.4899,-2.29311 27.4236,-0.95342 3.4736,0.67114 10.5906,3.05422 15.8156,5.29573 10.2706,4.40605 17.7656,5.66254 23.1593,3.88248 1.8609,-0.61415 7.827,-5.15356 13.2581,-10.08759 5.7712,-5.24311 11.6308,-9.64167 14.1009,-10.58501 4.373,-1.67006 4.8022,-1.6539 31.2317,1.17588 l 6.25,0.66918 v -6.98883 c 0,-3.84386 0.2771,-10.99546 0.6158,-15.89246 0.6127,-8.8596 0.6003,-8.92284 -2.5,-12.79112 -3.5524,-4.43223 -4.1318,-9.74719 -1.5969,-14.64909 1.5678,-3.03184 14.9578,-12.64056 23.9811,-17.20892 15.9292,-8.06477 33.6904,-7.61607 47.4261,1.19812 6.4558,4.14264 17.7496,16.10039 22.5464,23.87181 2.0965,3.39657 4.3103,6.2428 4.9196,6.32495 0.6094,0.0822 6.5079,0.20537 13.1079,0.2738 12.6664,0.13134 17.1578,1.34873 24.6448,6.67998 l 3.0569,2.17669 2.4232,-2.88992 c 1.3327,-1.58946 5.38488,-6.61543 9.00474,-11.16884 3.61987,-4.55341 7.86171,-8.94091 9.42633,-9.75 6.28221,-3.24866 14.61556,-0.4902 17.43753,5.77208 2.39778,5.32092 9.79011,52.39893 9.22618,58.75684 -0.43807,4.93903 -3.85176,12.93351 -5.56842,13.04064 -0.35817,0.0223 -2.1577,1.32934 -3.99895,2.90441 -2.41509,2.06597 -3.17739,3.40043 -2.73632,4.79013 0.5501,1.73322 1.18633,1.84833 6.34595,1.14816 4.01893,-0.54538 6.25472,-1.42059 7.47327,-2.92543 z"
     id="path420"
     inkscape:connector-curvature="0" />
</svg>
