<?xml version="1.0" encoding="UTF-8" standalone="no"?>
<!-- Created with Inkscape (http://www.inkscape.org/) -->

<svg
   xmlns:dc="http://purl.org/dc/elements/1.1/"
   xmlns:cc="http://creativecommons.org/ns#"
   xmlns:rdf="http://www.w3.org/1999/02/22-rdf-syntax-ns#"
   xmlns:svg="http://www.w3.org/2000/svg"
   xmlns="http://www.w3.org/2000/svg"
   xmlns:sodipodi="http://sodipodi.sourceforge.net/DTD/sodipodi-0.dtd"
   xmlns:inkscape="http://www.inkscape.org/namespaces/inkscape"
   version="1.1"
   id="svg247"
   xml:space="preserve"
   width="241.15466"
   height="211.82001"
   viewBox="0 0 241.15466 211.82001"
   sodipodi:docname="delivery-icon-1.svg"
   inkscape:version="0.92.4 (unknown)"><metadata
     id="metadata253"><rdf:RDF><cc:Work
         rdf:about=""><dc:format>image/svg+xml</dc:format><dc:type
           rdf:resource="http://purl.org/dc/dcmitype/StillImage" /><dc:title></dc:title></cc:Work></rdf:RDF></metadata><defs
     id="defs251"><clipPath
       clipPathUnits="userSpaceOnUse"
       id="clipPath263"><path
         d="M 0,158.865 H 180.866 V 0 H 0 Z"
         id="path261"
         inkscape:connector-curvature="0" /></clipPath></defs><sodipodi:namedview
     pagecolor="#ffffff"
     bordercolor="#666666"
     borderopacity="1"
     objecttolerance="10"
     gridtolerance="10"
     guidetolerance="10"
     inkscape:pageopacity="0"
     inkscape:pageshadow="2"
     inkscape:window-width="1920"
     inkscape:window-height="1007"
     id="namedview249"
     showgrid="false"
     inkscape:zoom="1.1141535"
     inkscape:cx="120.57733"
     inkscape:cy="105.91"
     inkscape:window-x="0"
     inkscape:window-y="24"
     inkscape:window-maximized="1"
     inkscape:current-layer="g255" /><g
     id="g255"
     inkscape:groupmode="layer"
     inkscape:label="delivery-icon-1"
     transform="matrix(1.3333333,0,0,-1.3333333,0,211.82)"><g
       id="g257"><g
         id="g259"
         clip-path="url(#clipPath263)"><g
           id="g265"
           transform="translate(100.8858,14.4023)"><path
             d="m 0,0 c -3.479,-4.863 -8.792,-7.998 -14.574,-8.6 -0.532,-0.055 -1.068,-0.1 -1.604,-0.143 l -0.819,-0.07 -0.118,0.001 c -5.757,0.045 -11.327,2.511 -15.281,6.765 -3.93,4.23 -5.891,9.677 -5.521,15.338 0.542,8.288 4.933,14.555 12.699,18.122 l 0.418,0.192 0.459,0.031 c 1.064,0.071 2.18,0.367 3.362,0.68 2.311,0.612 4.929,1.306 7.929,0.515 4.549,-1.201 7.923,-2.98 10.62,-5.599 C 0.531,24.359 2.509,20.816 3.45,16.703 4.759,10.98 3.501,4.893 0,0 m 58.311,34.517 c 6.537,2.589 13.074,5.179 19.621,7.743 1.006,0.394 1.619,1.027 2.048,2.145 v 0.97 c -1.177,2.679 -2.417,2.759 -4.494,1.936 L 12.56,22.413 C 12.069,22.22 11.574,22.032 11.107,21.856 L 8.45,20.844 7.423,22.82 C 1.642,33.939 -7.155,39.162 -19.456,38.734 l -1.749,-0.057 -0.746,1.851 c -0.089,0.215 -0.183,0.445 -0.269,0.677 l -6.92,18.844 c -9.976,27.159 -19.951,54.318 -29.888,81.49 -0.726,1.984 -1.62,2.64 -2.726,2.924 h -0.485 l -12.759,-3.859 c -7.912,-2.399 -15.823,-4.799 -23.732,-7.206 -1.294,-0.394 -2.099,-1.337 -2.152,-2.525 -0.044,-0.96 0.322,-1.793 1.03,-2.346 0.74,-0.578 1.738,-0.738 2.741,-0.439 5.993,1.793 11.979,3.609 17.965,5.425 l 15.379,4.667 37.108,-101 -2.036,-1.17 c -0.141,-0.082 -0.251,-0.146 -0.362,-0.205 -10.805,-5.798 -16.047,-16.47 -14.021,-28.547 1.643,-9.788 9.864,-18.52 19.546,-20.764 1.181,-0.273 2.399,-0.455 3.687,-0.646 0.544,-0.081 1.088,-0.162 1.631,-0.25 h 2.45 c 0.457,0.069 0.916,0.133 1.374,0.197 1.097,0.153 2.132,0.299 3.138,0.514 10.768,2.298 19.207,11.563 20.524,22.531 0.16,1.325 0.181,2.742 0.189,3.968 0.012,1.556 0.801,2.721 2.222,3.283 12.847,5.065 25.689,10.142 38.531,15.221 z"
             style="fill:fill-opacity:1;fill-rule:nonzero;stroke:none"
             id="path267"
             inkscape:connector-curvature="0" /></g><g
           id="g269"
           transform="translate(113.6319,50.9258)"><path
             d="M 0,0 -16.477,43.843 27.349,60.313 43.843,16.501 Z M -30.911,82.176 2.195,94.632 14.636,61.525 -18.473,49.086 Z M 49.851,16.351 c -5.995,15.948 -11.991,31.897 -17.99,47.844 -0.46,1.222 -1.04,1.998 -1.725,2.307 -0.68,0.307 -1.641,0.23 -2.853,-0.232 -1.144,-0.436 -2.293,-0.864 -3.472,-1.304 l -3.889,-1.455 -1.038,2.646 c -0.103,0.26 -0.187,0.473 -0.268,0.689 L 6.686,98.558 c -0.623,1.652 -1.43,2.422 -2.674,2.422 -0.517,0 -1.11,-0.133 -1.795,-0.391 L -34.996,86.605 c -0.722,-0.271 -1.665,-0.774 -2.06,-1.634 -0.392,-0.851 -0.157,-1.873 0.109,-2.58 10.849,-28.854 21.704,-57.706 32.563,-86.557 0.759,-2.019 2.123,-2.625 4.171,-1.854 16.036,6.025 32.072,12.054 48.108,18.084 2.161,0.814 2.764,2.135 1.956,4.287"
             style="fill:fill-opacity:1;fill-rule:nonzero;stroke:none"
             id="path271"
             inkscape:connector-curvature="0" /></g><g
           id="g273"
           transform="translate(89.4483,21.084)"><path
             d="m 0,0 c -1.494,-1.512 -3.473,-2.346 -5.571,-2.35 h -0.001 -0.011 c -2.077,0 -4.044,0.827 -5.541,2.327 -1.499,1.504 -2.32,3.481 -2.311,5.565 0.018,4.254 3.506,7.762 7.775,7.819 2.09,0 4.048,-0.766 5.551,-2.235 C 1.407,9.644 2.254,7.666 2.274,5.558 2.295,3.477 1.486,1.503 0,0 m -5.526,18.947 c -3.572,0.052 -6.979,-1.379 -9.539,-3.931 -2.554,-2.546 -3.957,-5.92 -3.951,-9.499 0.014,-7.403 6.039,-13.435 13.433,-13.449 h 0.022 c 7.364,0 13.371,6.02 13.396,13.43 0.026,7.382 -5.968,13.415 -13.361,13.449"
             style="fill:fill-opacity:1;fill-rule:nonzero;stroke:none"
             id="path275"
             inkscape:connector-curvature="0" /></g></g></g></g></svg>