<?xml version="1.0" encoding="UTF-8" standalone="no"?>
<!-- Created with Inkscape (http://www.inkscape.org/) -->

<svg
   xmlns:dc="http://purl.org/dc/elements/1.1/"
   xmlns:cc="http://creativecommons.org/ns#"
   xmlns:rdf="http://www.w3.org/1999/02/22-rdf-syntax-ns#"
   xmlns:svg="http://www.w3.org/2000/svg"
   xmlns="http://www.w3.org/2000/svg"
   xmlns:sodipodi="http://sodipodi.sourceforge.net/DTD/sodipodi-0.dtd"
   xmlns:inkscape="http://www.inkscape.org/namespaces/inkscape"
   version="1.1"
   id="svg225"
   xml:space="preserve"
   width="208.95067"
   height="147.05867"
   viewBox="0 0 208.95067 147.05867"
   sodipodi:docname="delivery-icon-2.svg"
   inkscape:version="0.92.4 (unknown)"><metadata
     id="metadata231"><rdf:RDF><cc:Work
         rdf:about=""><dc:format>image/svg+xml</dc:format><dc:type
           rdf:resource="http://purl.org/dc/dcmitype/StillImage" /><dc:title></dc:title></cc:Work></rdf:RDF></metadata><defs
     id="defs229"><clipPath
       clipPathUnits="userSpaceOnUse"
       id="clipPath241"><path
         d="M 0,110.294 H 156.713 V 0 H 0 Z"
         id="path239"
         inkscape:connector-curvature="0" /></clipPath></defs><sodipodi:namedview
     pagecolor="#ffffff"
     bordercolor="#666666"
     borderopacity="1"
     objecttolerance="10"
     gridtolerance="10"
     guidetolerance="10"
     inkscape:pageopacity="0"
     inkscape:pageshadow="2"
     inkscape:window-width="1920"
     inkscape:window-height="1007"
     id="namedview227"
     showgrid="false"
     inkscape:zoom="1.6048017"
     inkscape:cx="104.47533"
     inkscape:cy="73.529335"
     inkscape:window-x="0"
     inkscape:window-y="24"
     inkscape:window-maximized="1"
     inkscape:current-layer="g233" /><g
     id="g233"
     inkscape:groupmode="layer"
     inkscape:label="delivery-icon-2"
     transform="matrix(1.3333333,0,0,-1.3333333,0,147.05867)"><g
       id="g235"><g
         id="g237"
         clip-path="url(#clipPath241)"><g
           id="g243"
           transform="translate(152.4269,56.292)"><path
             d="m 0,0 c -0.816,-1.227 -2.31,-1.228 -3.111,-1.229 h -14.744 c -1.371,0.001 -2.741,0.01 -4.11,0.018 -3.303,0.024 -6.718,0.042 -10.056,-0.052 -0.066,-0.002 -0.133,-0.003 -0.2,-0.003 -1.84,0 -3.592,0.723 -4.837,2 -1.241,1.274 -1.869,2.983 -1.768,4.812 0.133,2.418 0.102,4.919 0.073,7.338 -0.015,1.182 -0.028,2.365 -0.025,3.547 0.009,3.44 2.454,5.955 5.812,5.98 5.43,0.039 11.362,0.035 18.131,-0.012 1.17,-0.007 2.258,-0.722 2.815,-1.427 0.584,-0.736 1.172,-1.471 1.76,-2.205 2.221,-2.774 4.517,-5.643 6.614,-8.615 1.56,-2.208 2.672,-4.66 3.642,-6.98 C 0.24,2.588 0.812,1.22 0,0 m -40.032,-29.729 c 2.558,2.571 5.981,3.989 9.639,3.992 h 0.015 c 7.429,0 13.483,-5.909 13.502,-13.177 0.009,-3.524 -1.378,-6.843 -3.904,-9.347 -2.52,-2.496 -5.866,-3.876 -9.421,-3.885 h -0.041 c -7.607,0 -13.584,5.774 -13.615,13.161 -0.015,3.475 1.344,6.762 3.825,9.256 m -23.664,0.344 c -0.003,-3.872 -1.962,-5.837 -5.824,-5.838 -6.396,-0.004 -12.795,-10e-4 -19.193,10e-4 l -11.046,0.001 -0.874,2.986 c -1.888,6.388 -8.246,11.3 -15.12,11.678 -6.23,0.343 -11.185,-1.323 -15.156,-5.091 -1.981,-1.88 -3.386,-4.233 -4.176,-6.994 -0.61,-2.131 -2.091,-2.63 -3.342,-2.63 -0.113,0 -0.223,0.003 -0.331,0.011 -0.584,0.038 -1.195,0.03 -1.84,0.021 -0.526,-0.009 -1.051,-0.015 -1.577,0.001 -3.595,0.107 -6.103,2.684 -6.101,6.266 l 0.051,72.034 -0.001,0.127 c 0,0.147 0,0.293 0.003,0.44 0.098,3.851 2.44,6.149 6.267,6.149 l 57.549,-0.007 14.873,0.006 c 3.871,-0.001 5.835,-1.963 5.836,-5.833 0.003,-12.773 0.003,-25.546 0.002,-38.319 l -0.001,-17.031 0.002,-6.344 c 10e-4,-3.878 0.002,-7.756 -10e-4,-11.634 m -53.996,-23.204 h -0.078 c -3.66,0 -7.117,1.401 -9.74,3.948 -2.653,2.577 -4.123,6.002 -4.141,9.647 -0.017,3.618 1.395,7.035 3.976,9.62 2.641,2.646 6.171,4.103 9.943,4.103 h 0.045 c 7.644,-0.024 13.868,-6.151 13.877,-13.659 0.008,-7.492 -6.22,-13.619 -13.882,-13.659 m 114.846,12.651 c 4.047,0.38 7.108,3.707 7.12,7.736 0.025,7.659 0.006,15.319 -0.012,22.978 l -0.02,9.091 c -0.006,4.056 -1.115,7.621 -3.3,10.595 -3.321,4.524 -6.985,9.368 -11.202,14.809 -1.937,2.5 -4.21,5.389 -6.646,8.019 -2.718,2.931 -6.093,4.34 -10.293,4.258 -4.914,-0.077 -9.904,-0.064 -14.73,-0.052 -3.031,0.008 -6.063,0.016 -9.092,0.003 -1.36,-0.007 -2.745,-0.091 -4.211,-0.18 -0.721,-0.043 -1.458,-0.088 -2.223,-0.125 l -2.098,-0.103 10e-4,4.061 c 0.002,1.528 0.004,3.111 -0.003,4.693 -0.022,5.238 -2.925,8.122 -8.175,8.122 h -0.005 c -7.726,-0.003 -15.455,0.003 -23.182,0.01 l -22.958,0.015 c -10.446,0.008 -20.894,0.016 -31.339,0 -4.566,-0.007 -7.184,-2.626 -7.185,-7.186 l -0.016,-56.493 c -0.006,-7.254 -0.013,-14.509 -0.012,-21.764 0.001,-5.009 3.385,-8.392 8.424,-8.417 0.461,-0.003 0.922,-0.011 1.383,-0.019 1.22,-0.019 2.372,-0.04 3.508,0.04 0.141,0.01 0.278,0.015 0.41,0.015 2.889,0 3.427,-2.311 3.61,-3.093 1.808,-7.755 9.046,-13.367 17.225,-13.367 h 0.065 c 8.594,0.031 15.857,5.554 17.66,13.431 0.445,1.94 1.633,2.883 3.63,2.883 h 0.03 c 9.141,-0.041 18.284,0.006 27.425,-0.049 3.26,-0.022 5.65,0.265 7.23,1.756 l 0.925,0.873 1.182,-0.467 c 0.637,-0.251 1.242,-0.516 1.83,-0.773 1.186,-0.517 2.21,-0.966 3.222,-1.18 1.041,-0.222 2.203,-0.233 3.434,-0.245 0.598,-0.004 1.2,-0.011 1.8,-0.039 l 1.427,-0.066 0.486,-1.652 c 0.066,-0.22 0.13,-0.434 0.186,-0.65 2.49,-9.829 9.978,-14.915 20.045,-13.604 4.605,0.598 8.684,3.024 11.482,6.83 2.793,3.799 3.892,8.403 3.093,12.966 -1.409,8.045 -7.356,13.632 -15.522,14.583 -8.547,0.991 -14.616,-2.253 -18.029,-9.651 -1.397,-3.026 -3.334,-4.198 -6.491,-3.901 -3.887,0.359 -6.208,2.781 -6.208,6.477 l 0.021,57.952 c 0.001,3.213 1.369,4.717 4.572,5.03 0.526,0.052 1.042,0.051 1.492,0.051 h 0.123 c 6.253,0.001 12.506,0.002 18.757,0 l 1.727,0.002 c 1.677,0.004 3.352,0.006 5.028,-0.018 4.85,-0.072 7.671,-3.122 9.789,-6.097 l 2.251,-3.16 h -5.675 c -1.369,0 -2.738,0.005 -4.106,0.009 -3.015,0.01 -6.135,0.02 -9.194,-0.016 -4.717,-0.055 -8.04,-3.391 -8.08,-8.111 -0.018,-2.234 -0.027,-4.469 -0.036,-6.704 -0.009,-2.293 -0.017,-4.585 -0.037,-6.878 -0.018,-1.994 0.686,-3.714 2.149,-5.261 1.695,-1.788 3.697,-2.658 6.12,-2.658 h 0.022 c 10.393,0.024 20.784,0.003 31.175,0.023 0.564,0.005 1.666,0.002 2.501,-0.835 0.841,-0.843 0.837,-1.957 0.836,-2.323 -0.014,-3.947 -0.001,-7.894 0.01,-11.841 0.011,-3.252 0.022,-6.504 0.017,-9.756 -0.006,-3.673 -2.218,-5.873 -5.919,-5.886 -0.876,-0.003 -7.502,-0.003 -8.385,-0.002 v -4.743 c 0.178,-0.004 0.355,-0.009 0.53,-0.013 1.647,-0.036 8.955,-0.074 10.431,0.067"
             style="fill-opacity:1;fill-rule:nonzero;stroke:none"
             id="path245"
             inkscape:connector-curvature="0" /></g></g></g></g></svg>