<?xml version="1.0" encoding="UTF-8" standalone="no"?>
<!-- Created with Inkscape (http://www.inkscape.org/) -->

<svg
   xmlns:dc="http://purl.org/dc/elements/1.1/"
   xmlns:cc="http://creativecommons.org/ns#"
   xmlns:rdf="http://www.w3.org/1999/02/22-rdf-syntax-ns#"
   xmlns:svg="http://www.w3.org/2000/svg"
   xmlns="http://www.w3.org/2000/svg"
   xmlns:sodipodi="http://sodipodi.sourceforge.net/DTD/sodipodi-0.dtd"
   xmlns:inkscape="http://www.inkscape.org/namespaces/inkscape"
   version="1.1"
   id="svg55"
   xml:space="preserve"
   width="682.86932"
   height="683.12933"
   viewBox="0 0 682.86932 683.12933"
   sodipodi:docname="insta-icon.svg"
   inkscape:version="0.92.4 (unknown)"><metadata
     id="metadata61"><rdf:RDF><cc:Work
         rdf:about=""><dc:format>image/svg+xml</dc:format><dc:type
           rdf:resource="http://purl.org/dc/dcmitype/StillImage" /><dc:title></dc:title></cc:Work></rdf:RDF></metadata><defs
     id="defs59"><clipPath
       clipPathUnits="userSpaceOnUse"
       id="clipPath71"><path
         d="M 0,512.347 H 512.152 V 0 H 0 Z"
         id="path69"
         inkscape:connector-curvature="0" /></clipPath></defs><sodipodi:namedview
     pagecolor="#ffffff"
     bordercolor="#666666"
     borderopacity="1"
     objecttolerance="10"
     gridtolerance="10"
     guidetolerance="10"
     inkscape:pageopacity="0"
     inkscape:pageshadow="2"
     inkscape:window-width="1920"
     inkscape:window-height="1007"
     id="namedview57"
     showgrid="false"
     inkscape:zoom="0.34546899"
     inkscape:cx="341.43466"
     inkscape:cy="341.56467"
     inkscape:window-x="0"
     inkscape:window-y="24"
     inkscape:window-maximized="1"
     inkscape:current-layer="g63" /><g
     id="g63"
     inkscape:groupmode="layer"
     inkscape:label="insta-icon"
     transform="matrix(1.3333333,0,0,-1.3333333,0,683.12933)"><g
       id="g65"><g
         id="g67"
         clip-path="url(#clipPath71)"><g
           id="g73"
           transform="translate(255.6184,45.8027)"><path
             d="m 0,0 v -0.064 c 18.662,0 37.323,-0.009 55.984,0.002 18.828,0.01 37.683,-0.55 56.475,0.282 11.186,0.496 22.814,1.611 33.312,5.183 40.867,13.907 65.109,49.043 65.195,93.088 0.146,74.481 0.142,148.961 0,223.441 -0.015,7.776 -0.505,15.756 -2.27,23.292 -10.942,46.726 -49.184,76.15 -97.062,75.986 -73.979,-0.253 -147.959,-0.089 -221.938,-0.053 -15.172,0.007 -29.999,-2.05 -43.667,-8.809 -36.96,-18.277 -55.858,-48.434 -56.062,-89.503 -0.373,-74.978 -0.073,-149.96 -0.048,-224.94 0.009,-24.401 7.291,-46.254 23.485,-64.696 C -166.875,10.747 -141.771,0 -111.969,0 Z m 125.46,466.544 c 8.634,-1.638 17.388,-2.812 25.883,-4.99 53.864,-13.812 95.293,-59.525 103.011,-114.518 2.002,-14.266 2.012,-28.883 2.053,-43.341 0.197,-68.483 0.115,-136.967 0.077,-205.451 -0.021,-39.288 -13.231,-73.479 -40.88,-101.478 -27.779,-28.129 -61.921,-42.099 -101.423,-42.2 -75.815,-0.193 -151.64,-0.816 -227.443,0.185 -61.113,0.806 -104.826,30.475 -130.817,85.651 -8.321,17.666 -11.467,36.808 -11.476,56.346 -0.034,76.148 -0.154,152.298 0.066,228.446 0.197,68.103 48.603,126.442 114.735,138.793 5.377,1.004 10.808,1.712 16.214,2.557 z"
             style="fill:#231200;fill-opacity:1;fill-rule:nonzero;stroke:none"
             id="path75"
             inkscape:connector-curvature="0" /></g><g
           id="g77"
           transform="translate(255.8381,170.0107)"><path
             d="M 0,0 C 47.578,-0.285 86.295,38.179 86.659,86.094 87.02,133.513 48.48,172.26 0.472,172.745 -46.819,173.223 -85.821,134.427 -86.17,86.562 -86.517,39.104 -47.875,0.288 0,0 m -131.734,85.753 c -0.779,72.104 58.665,132.006 131.509,132.525 C 71.916,218.792 131.348,159.963 132.219,87.177 133.083,15.032 73.967,-44.781 0.949,-45.641 -71.118,-46.489 -130.945,12.757 -131.734,85.753"
             style="fill:#231200;fill-opacity:1;fill-rule:nonzero;stroke:none"
             id="path79"
             inkscape:connector-curvature="0" /></g><g
           id="g81"
           transform="translate(393.5188,426.6855)"><path
             d="M 0,0 C 18.281,0.081 33.377,-15.056 33.347,-33.436 33.317,-51.435 18.185,-66.423 0.055,-66.412 -18.17,-66.4 -33.169,-51.6 -33.289,-33.509 -33.411,-15.212 -18.379,-0.082 0,0"
             style="fill:#231200;fill-opacity:1;fill-rule:nonzero;stroke:none"
             id="path83"
             inkscape:connector-curvature="0" /></g></g></g></g></svg>