<?xml version="1.0" encoding="UTF-8" standalone="no"?>
<!-- Created with Inkscape (http://www.inkscape.org/) -->

<svg
   xmlns:dc="http://purl.org/dc/elements/1.1/"
   xmlns:cc="http://creativecommons.org/ns#"
   xmlns:rdf="http://www.w3.org/1999/02/22-rdf-syntax-ns#"
   xmlns:svg="http://www.w3.org/2000/svg"
   xmlns="http://www.w3.org/2000/svg"
   xmlns:sodipodi="http://sodipodi.sourceforge.net/DTD/sodipodi-0.dtd"
   xmlns:inkscape="http://www.inkscape.org/namespaces/inkscape"
   version="1.1"
   id="svg160"
   width="32.000004"
   height="42.008251"
   viewBox="0 0 32.000004 42.008251"
   sodipodi:docname="map-marker.svg"
   inkscape:version="0.92.4 (unknown)">
  <metadata
     id="metadata166">
    <rdf:RDF>
      <cc:Work
         rdf:about="">
        <dc:format>image/svg+xml</dc:format>
        <dc:type
           rdf:resource="http://purl.org/dc/dcmitype/StillImage" />
        <dc:title></dc:title>
      </cc:Work>
    </rdf:RDF>
  </metadata>
  <defs
     id="defs164" />
  <sodipodi:namedview
     pagecolor="#ffffff"
     bordercolor="#666666"
     borderopacity="1"
     objecttolerance="10"
     gridtolerance="10"
     guidetolerance="10"
     inkscape:pageopacity="0"
     inkscape:pageshadow="2"
     inkscape:window-width="1920"
     inkscape:window-height="1007"
     id="namedview162"
     showgrid="false"
     inkscape:zoom="5.2149125"
     inkscape:cx="85.073068"
     inkscape:cy="-2.3205026"
     inkscape:window-x="0"
     inkscape:window-y="24"
     inkscape:window-maximized="1"
     inkscape:current-layer="svg160" />
  <path
     style="fill:#fb4040;stroke-width:0.12653209"
     d="M 14.789353,40.711291 C 6.9483332,31.795171 1.8778632,24.030621 0.35839316,18.612711 c -0.61666,-2.19874 -0.42724,-5.2329 0.48877,-7.8294 C 2.5590232,5.9309005 6.2714632,2.2879805 11.115253,0.70754053 12.625463,0.21479053 14.117053,4.5052817e-4 16.038943,5.2817438e-7 19.267783,-7.4947183e-4 22.045053,0.79723053 24.636233,2.4702405 c 1.17932,0.76143 1.45513,0.9882 2.73897,2.25196 2.92503,2.8793 4.59209,6.8103405 4.62416,10.9041005 0.0147,1.88461 -0.21968,3.00994 -1.08077,5.18782 -1.93571,4.89575 -6.74397,11.9279 -13.31085,19.46729 -0.82727,0.94976 -1.54319,1.72684 -1.59097,1.72684 -0.0477,0 -0.6001,-0.58363 -1.22742,-1.29696 z m 2.6723,-19.14192 c 3.35878,-0.87485 5.35863,-4.35938 4.35914,-7.59534 -1.11653,-3.61493 -5.03186,-5.3475905 -8.46618,-3.74657 -0.92312,0.43034 -2.37459,1.88181 -2.80494,2.80494 -0.6614898,1.41895 -0.7829498,2.95382 -0.34689,4.38367 0.9433,3.09309 4.19227,4.95205 7.25887,4.1533 z"
     id="path170"
     inkscape:connector-curvature="0" />
</svg>
