<?xml version="1.0" encoding="UTF-8" standalone="no"?>
<!-- Created with Inkscape (http://www.inkscape.org/) -->

<svg
   xmlns:dc="http://purl.org/dc/elements/1.1/"
   xmlns:cc="http://creativecommons.org/ns#"
   xmlns:rdf="http://www.w3.org/1999/02/22-rdf-syntax-ns#"
   xmlns:svg="http://www.w3.org/2000/svg"
   xmlns="http://www.w3.org/2000/svg"
   xmlns:sodipodi="http://sodipodi.sourceforge.net/DTD/sodipodi-0.dtd"
   xmlns:inkscape="http://www.inkscape.org/namespaces/inkscape"
   version="1.1"
   id="svg83"
   xml:space="preserve"
   width="17.999996"
   height="17.999992"
   viewBox="0 0 17.999996 17.999992"
   sodipodi:docname="mobile-icon.svg"
   inkscape:version="0.92.4 (unknown)"><metadata
     id="metadata89"><rdf:RDF><cc:Work
         rdf:about=""><dc:format>image/svg+xml</dc:format><dc:type
           rdf:resource="http://purl.org/dc/dcmitype/StillImage" /><dc:title></dc:title></cc:Work></rdf:RDF></metadata><defs
     id="defs87"><clipPath
       clipPathUnits="userSpaceOnUse"
       id="clipPath99"><path
         d="M 0,980 H 980 V 0 H 0 Z"
         id="path97"
         inkscape:connector-curvature="0" /></clipPath></defs><sodipodi:namedview
     pagecolor="#ffffff"
     bordercolor="#666666"
     borderopacity="1"
     objecttolerance="10"
     gridtolerance="10"
     guidetolerance="10"
     inkscape:pageopacity="0"
     inkscape:pageshadow="2"
     inkscape:window-width="1920"
     inkscape:window-height="1007"
     id="namedview85"
     showgrid="false"
     inkscape:zoom="5.7795915"
     inkscape:cx="51.735526"
     inkscape:cy="16.54263"
     inkscape:window-x="0"
     inkscape:window-y="24"
     inkscape:window-maximized="1"
     inkscape:current-layer="g91" /><g
     id="g91"
     inkscape:groupmode="layer"
     inkscape:label="mobile-icon"
     transform="matrix(1.3333333,0,0,-1.3333333,0,17.999992)"><g
       id="g93"
       transform="scale(0.01377551)"><g
         id="g95"
         clip-path="url(#clipPath99)"><g
           id="g101"
           transform="translate(489.9944,927.4316)"><path
             d="m 0,0 c -17.163,0 -34.325,0.053 -51.487,-0.022 -8.685,-0.038 -14.905,-4.255 -17.478,-11.534 -4.291,-12.142 4.351,-23.329 18.477,-23.388 33.658,-0.139 67.317,-0.07 100.975,0.003 2.626,0.006 5.374,0.319 7.853,1.135 7.89,2.598 12.724,10.749 11.509,18.87 C 68.555,-6.276 61.703,-0.15 52.487,-0.06 34.993,0.113 17.496,-0.009 0,0 m -52.432,-839.954 c 0.021,-29.015 23.367,-52.418 52.335,-52.462 29.013,-0.044 52.33,23.158 52.528,52.267 0.197,29.158 -23.355,52.765 -52.58,52.702 -28.97,-0.062 -52.304,-23.496 -52.283,-52.507 m -174.901,87.923 h 454.524 v 664.198 h -454.524 z m 445.338,-175.401 h -436 c -2.084,0.485 -4.163,0.994 -6.254,1.451 -33.304,7.274 -55.728,35.276 -55.733,69.834 -0.026,164.986 -0.013,329.973 -0.012,494.959 0,114.324 -0.026,228.648 0.017,342.972 0.012,32.441 20.551,59.632 51.36,68.249 3.503,0.98 7.08,1.696 10.622,2.535 h 436 c 2.088,-0.484 4.17,-0.991 6.263,-1.45 33.48,-7.337 55.727,-35.351 55.73,-70.349 0.016,-207.308 0.008,-414.616 0.007,-621.924 0,-71.991 0.058,-143.983 -0.027,-215.974 -0.039,-32.043 -20.704,-59.128 -51.375,-67.732 -3.498,-0.981 -7.063,-1.72 -10.598,-2.571"
             style="fill-opacity:1;fill-rule:nonzero;stroke:none"
             id="path103"
             inkscape:connector-curvature="0" /></g><g
           id="g105"
           transform="translate(979.9998,471)"><path
             d="m 0,0 c -0.971,-9.249 -1.807,-18.514 -2.935,-27.743 -7.919,-64.795 -31.296,-123.545 -69.371,-176.477 -8.75,-12.164 -24.875,-14.773 -36.742,-6.331 -11.92,8.478 -14.774,24.285 -5.971,36.726 19.359,27.36 34.887,56.637 45.472,88.47 16.141,48.548 20.595,98.194 13.838,148.877 -7.206,54.048 -27.205,102.964 -58.739,147.345 -11.441,16.102 -4.398,36.627 13.869,41.591 10.697,2.907 21.673,-1.146 28.531,-10.662 27.94,-38.768 48.113,-81.202 60.001,-127.52 C -5.989,90.673 -2.088,66.725 -0.829,42.366 -0.753,40.9 -0.285,39.455 0,38 Z"
             style="fill-opacity:1;fill-rule:nonzero;stroke:none"
             id="path107"
             inkscape:connector-curvature="0" /></g><g
           id="g109"
           transform="translate(-2e-4,509)"><path
             d="m 0,0 c 0.982,9.416 1.808,18.852 2.971,28.245 8.001,64.602 31.311,123.206 69.309,175.988 8.577,11.914 24.572,14.619 36.388,6.504 11.967,-8.217 15.123,-24.337 6.458,-36.656 C 98.189,149.997 83.91,124.542 73.562,96.94 53.991,44.742 48.245,-9.001 55.688,-64.188 c 7.242,-53.687 27.187,-102.291 58.498,-146.395 10.713,-15.09 5.997,-33.668 -9.931,-40.685 -11.712,-5.16 -24.516,-1.28 -32.528,9.859 -22.117,30.75 -39.412,63.998 -51.586,99.874 C 9.277,-109.521 2.754,-76.645 0.846,-42.869 0.754,-41.235 0.291,-39.623 0,-38 Z"
             style="fill-opacity:1;fill-rule:nonzero;stroke:none"
             id="path111"
             inkscape:connector-curvature="0" /></g><g
           id="g113"
           transform="translate(91.952,503.7935)"><path
             d="m 0,0 c 0.266,40.058 14.1,90.117 41.969,136.247 8.276,13.698 23.557,18.066 36.497,10.466 13.048,-7.665 16.799,-23.536 8.449,-37.406 C 68.688,79.032 57.42,46.445 53.859,11.266 c -5.341,-52.757 5.404,-101.988 32.824,-147.44 4.312,-7.146 6.904,-14.46 4.775,-22.752 -2.798,-10.9 -9.933,-17.76 -20.929,-19.639 -11.427,-1.953 -20.675,2.361 -26.931,12.216 -10.83,17.062 -19.607,35.167 -26.448,54.175 C 5.58,-80.022 0,-47.586 0,0"
             style="fill-opacity:1;fill-rule:nonzero;stroke:none"
             id="path115"
             inkscape:connector-curvature="0" /></g><g
           id="g117"
           transform="translate(888.1502,489.8579)"><path
             d="m 0,0 c -0.292,-54.382 -14.44,-104.847 -42.874,-151.259 -6.468,-10.556 -16.525,-15.386 -27.808,-13.47 -10.278,1.744 -18.597,9.765 -20.963,20.333 -1.787,7.987 0.575,15.038 4.755,21.82 15.278,24.787 25.569,51.573 30.554,80.221 10.16,58.389 0.333,113.295 -29.944,164.355 -4.191,7.068 -6.34,14.291 -4.354,22.364 2.564,10.42 11.186,18.371 21.608,19.596 11.537,1.356 20.526,-3.092 26.603,-13.024 C -25.958,124.025 -14.217,95.17 -7.236,64.407 -2.429,43.221 0.1,21.762 0,0"
             style="fill-opacity:1;fill-rule:nonzero;stroke:none"
             id="path119"
             inkscape:connector-curvature="0" /></g></g></g></g></svg>