<?xml version="1.0" encoding="UTF-8" standalone="no"?>
<!-- Created with Inkscape (http://www.inkscape.org/) -->

<svg
   xmlns:dc="http://purl.org/dc/elements/1.1/"
   xmlns:cc="http://creativecommons.org/ns#"
   xmlns:rdf="http://www.w3.org/1999/02/22-rdf-syntax-ns#"
   xmlns:svg="http://www.w3.org/2000/svg"
   xmlns="http://www.w3.org/2000/svg"
   xmlns:sodipodi="http://sodipodi.sourceforge.net/DTD/sodipodi-0.dtd"
   xmlns:inkscape="http://www.inkscape.org/namespaces/inkscape"
   version="1.1"
   id="svg370"
   xml:space="preserve"
   width="220.15067"
   height="220.15733"
   viewBox="0 0 220.15067 220.15733"
   sodipodi:docname="payment-icon-1.svg"
   inkscape:version="0.92.4 (unknown)"><metadata
     id="metadata376"><rdf:RDF><cc:Work
         rdf:about=""><dc:format>image/svg+xml</dc:format><dc:type
           rdf:resource="http://purl.org/dc/dcmitype/StillImage" /><dc:title></dc:title></cc:Work></rdf:RDF></metadata><defs
     id="defs374"><clipPath
       clipPathUnits="userSpaceOnUse"
       id="clipPath386"><path
         d="M 0,165.118 H 165.113 V 0 H 0 Z"
         id="path384"
         inkscape:connector-curvature="0" /></clipPath></defs><sodipodi:namedview
     pagecolor="#ffffff"
     bordercolor="#666666"
     borderopacity="1"
     objecttolerance="10"
     gridtolerance="10"
     guidetolerance="10"
     inkscape:pageopacity="0"
     inkscape:pageshadow="2"
     inkscape:window-width="1920"
     inkscape:window-height="1007"
     id="namedview372"
     showgrid="false"
     inkscape:zoom="1.0719607"
     inkscape:cx="110.07533"
     inkscape:cy="110.07867"
     inkscape:window-x="0"
     inkscape:window-y="24"
     inkscape:window-maximized="1"
     inkscape:current-layer="g378" /><g
     id="g378"
     inkscape:groupmode="layer"
     inkscape:label="payment-icon-1"
     transform="matrix(1.3333333,0,0,-1.3333333,0,220.15733)"><g
       id="g380"><g
         id="g382"
         clip-path="url(#clipPath386)"><g
           id="g388"
           transform="translate(22.6754,139.22)"><path
             d="m 0,0 c -13.854,-14.691 -21.443,-32.472 -22.557,-52.849 -0.574,-10.5 0.942,-20.913 4.507,-30.95 6.619,-18.639 18.476,-33.263 35.242,-43.466 15.954,-9.708 33.531,-13.535 52.243,-11.366 11.052,1.279 21.522,4.71 31.117,10.196 13.237,7.569 23.726,18.066 31.178,31.199 4.115,7.248 7.129,15.167 8.961,23.539 0.246,1.121 0.003,2.198 -0.666,2.955 -0.608,0.687 -1.491,1.017 -2.462,0.926 -1.377,-0.127 -2.3,-1.146 -2.743,-3.027 -1.366,-5.806 -3.029,-10.833 -5.084,-15.368 -4.984,-11.005 -12.236,-20.393 -21.554,-27.906 -13.617,-10.978 -29.507,-16.768 -47.23,-17.21 -5.309,-0.171 -10.864,0.357 -16.514,1.557 -17.088,3.631 -31.327,11.992 -42.32,24.849 -16.207,18.955 -22.025,40.994 -17.292,65.504 3.291,17.046 11.659,31.347 24.872,42.507 21.875,18.476 46.483,23.594 73.137,15.204 26.214,-8.248 43.447,-26.323 51.224,-53.722 1.587,-5.593 2.411,-11.843 2.52,-19.108 0.014,-0.96 0.318,-1.753 0.879,-2.293 0.53,-0.512 1.246,-0.745 2.133,-0.754 1.742,0.039 2.859,1.323 2.846,3.273 -0.065,10.072 -1.849,19.722 -5.301,28.68 -7.147,18.551 -19.411,32.892 -36.454,42.625 -12.71,7.258 -26.186,10.903 -40.232,10.903 -5.7,0 -11.491,-0.6 -17.366,-1.802 C 26.345,20.671 11.849,12.564 0,0"
             style="fill:#231f20;fill-opacity:1;fill-rule:nonzero;stroke:none"
             id="path390"
             inkscape:connector-curvature="0" /></g><g
           id="g392"
           transform="translate(110.607,95.863)"><path
             d="m 0,0 c -1.169,-5.069 -4.936,-9.186 -10.332,-11.294 -3.869,-1.511 -7.826,-1.764 -10.841,-1.815 -2.348,-0.039 -4.716,-0.051 -7.064,-0.051 -1.728,0 -3.444,0.006 -5.137,0.013 -1.565,0.006 -3.131,0.012 -4.697,0.013 -0.27,0 -0.542,0.025 -0.87,0.065 l -2.579,0.257 v 33.416 l 2.415,0.324 c 0.351,0.057 0.852,0.094 1.371,0.095 1.667,0 3.332,0.009 4.997,0.019 4.321,0.022 8.789,0.048 13.199,-0.096 6.392,-0.208 11.528,-2.369 15.266,-6.424 C -0.397,10.319 1.16,5.026 0,0 m 1.932,16.293 c -4.903,6.533 -11.763,10.047 -20.392,10.445 -5.996,0.277 -12.137,0.257 -18.075,0.237 -2.348,-0.008 -4.695,-0.015 -7.045,-0.006 -1.468,0.012 -2.483,-0.281 -3.059,-0.855 -0.575,-0.573 -0.867,-1.6 -0.868,-3.052 -0.002,-7.634 10e-4,-15.267 0.003,-22.901 l 0.002,-13.313 h -2.5 c -0.778,0 -1.54,0.008 -2.291,0.015 -1.632,0.016 -3.174,0.031 -4.699,-0.032 -1.512,-0.062 -2.733,-1.297 -2.781,-2.811 -0.048,-1.533 1.06,-2.783 2.634,-2.975 0.555,-0.066 1.174,-0.069 1.829,-0.072 l 0.394,-0.002 c 1.134,-0.009 2.268,-0.006 3.402,-0.006 l 3.904,0.002 V -31.5 l -4.473,0.001 c -1.487,0.002 -2.935,0.003 -4.384,-0.002 -1.534,-0.006 -2.186,-0.585 -2.584,-1.089 -0.811,-1.03 -0.945,-1.939 -0.445,-3.038 0.53,-1.168 1.341,-1.708 2.63,-1.75 1.512,-0.051 3.033,-0.04 4.644,-0.027 0.729,0.005 1.469,0.011 2.223,0.011 h 2.5 l 0.002,-13.071 c 0.002,-1.098 0.334,-1.85 1.078,-2.439 0.976,-0.772 1.897,-0.915 2.989,-0.457 1.525,0.64 1.735,1.672 1.761,2.394 0.074,2.129 0.071,4.318 0.068,6.436 -0.002,1.036 -0.003,2.073 0.004,3.109 0.002,0.373 0.024,0.747 0.048,1.148 l 0.148,2.88 18.822,-0.004 c 4.371,-0.006 8.742,-0.01 13.113,0.019 1.093,0.006 2.043,0.459 2.61,1.24 0.539,0.743 0.667,1.677 0.362,2.627 -0.53,1.655 -2.135,2.006 -3.387,2.009 -6.507,0.013 -13.015,0.009 -19.522,0.007 l -12.118,-0.002 v 12.45 l 8.563,0.003 c 3.649,0.003 7.298,0.004 10.947,0.014 5.568,0.015 10.387,0.876 14.733,2.633 6.33,2.559 10.989,7.721 12.781,14.161 1.776,6.384 0.476,13.138 -3.571,18.53"
             style="fill:#231f20;fill-opacity:1;fill-rule:nonzero;stroke:none"
             id="path394"
             inkscape:connector-curvature="0" /></g><g
           id="g396"
           transform="translate(144.4879,85.4207)"><path
             d="m 0,0 c -0.021,0 -0.043,0 -0.065,0 -1.563,-0.029 -2.706,-1.089 -2.844,-2.637 -0.084,-0.936 -0.135,-1.872 -0.187,-2.809 -0.045,-0.817 -0.09,-1.635 -0.154,-2.45 -0.532,-6.762 -2.284,-13.399 -5.207,-19.727 -3.62,-7.838 -8.836,-14.669 -15.501,-20.3 -6.334,-5.353 -13.611,-9.247 -21.628,-11.576 -5.628,-1.635 -11.296,-2.116 -16.098,-2.37 -1.083,-0.057 -1.934,-0.398 -2.46,-0.986 -0.606,-0.677 -0.688,-1.589 -0.651,-2.234 0.117,-2.009 1.974,-2.706 3.527,-2.662 9.586,0.164 18.741,2.307 27.208,6.369 9.091,4.36 16.841,10.569 23.035,18.454 8.451,10.76 13.12,23.138 13.879,36.796 0,0.474 0.012,0.928 0.024,1.368 0.023,0.856 0.043,1.596 -0.032,2.26 C 2.677,-0.999 1.536,0 0,0"
             style="fill:#231f20;fill-opacity:1;fill-rule:nonzero;stroke:none"
             id="path398"
             inkscape:connector-curvature="0" /></g><g
           id="g400"
           transform="translate(81.9722,147.3708)"><path
             d="m 0,0 c -9.586,-0.148 -18.74,-2.28 -27.208,-6.338 -9.112,-4.366 -16.867,-10.568 -23.05,-18.433 -8.529,-10.849 -13.212,-23.305 -13.919,-37.024 -10e-4,-0.459 -0.012,-0.894 -0.023,-1.311 -0.02,-0.792 -0.038,-1.477 0.029,-2.081 0.171,-1.549 1.318,-2.554 2.878,-2.557 1.566,0.02 2.723,1.074 2.88,2.62 0.097,0.961 0.148,1.928 0.203,2.952 0.038,0.71 0.076,1.42 0.128,2.129 0.521,6.943 2.333,13.762 5.385,20.27 3.62,7.716 8.803,14.45 15.406,20.016 6.339,5.343 13.623,9.225 21.647,11.54 5.621,1.62 11.221,2.091 15.958,2.338 1.244,0.065 3.309,0.565 3.172,3.189 C 3.402,-1.049 2.071,0 0.088,0 0.059,0 0.03,0 0,0"
             style="fill:#231f20;fill-opacity:1;fill-rule:nonzero;stroke:none"
             id="path402"
             inkscape:connector-curvature="0" /></g></g></g></g></svg>