<?xml version="1.0" encoding="UTF-8" standalone="no"?>
<!-- Created with Inkscape (http://www.inkscape.org/) -->

<svg
   xmlns:dc="http://purl.org/dc/elements/1.1/"
   xmlns:cc="http://creativecommons.org/ns#"
   xmlns:rdf="http://www.w3.org/1999/02/22-rdf-syntax-ns#"
   xmlns:svg="http://www.w3.org/2000/svg"
   xmlns="http://www.w3.org/2000/svg"
   xmlns:sodipodi="http://sodipodi.sourceforge.net/DTD/sodipodi-0.dtd"
   xmlns:inkscape="http://www.inkscape.org/namespaces/inkscape"
   version="1.1"
   id="svg246"
   xml:space="preserve"
   width="162.252"
   height="197.09866"
   viewBox="0 0 162.252 197.09866"
   sodipodi:docname="payment-icon-3.svg"
   inkscape:version="0.92.4 (unknown)"><metadata
     id="metadata252"><rdf:RDF><cc:Work
         rdf:about=""><dc:format>image/svg+xml</dc:format><dc:type
           rdf:resource="http://purl.org/dc/dcmitype/StillImage" /><dc:title></dc:title></cc:Work></rdf:RDF></metadata><defs
     id="defs250"><clipPath
       clipPathUnits="userSpaceOnUse"
       id="clipPath262"><path
         d="M 0,147.824 H 121.689 V 0 H 0 Z"
         id="path260"
         inkscape:connector-curvature="0" /></clipPath></defs><sodipodi:namedview
     pagecolor="#ffffff"
     bordercolor="#666666"
     borderopacity="1"
     objecttolerance="10"
     gridtolerance="10"
     guidetolerance="10"
     inkscape:pageopacity="0"
     inkscape:pageshadow="2"
     inkscape:window-width="1920"
     inkscape:window-height="1007"
     id="namedview248"
     showgrid="false"
     inkscape:zoom="1.1973699"
     inkscape:cx="81.125999"
     inkscape:cy="98.549332"
     inkscape:window-x="0"
     inkscape:window-y="24"
     inkscape:window-maximized="1"
     inkscape:current-layer="g254" /><g
     id="g254"
     inkscape:groupmode="layer"
     inkscape:label="payment-icon-3"
     transform="matrix(1.3333333,0,0,-1.3333333,0,197.09867)"><g
       id="g256"><g
         id="g258"
         clip-path="url(#clipPath262)"><g
           id="g264"
           transform="translate(70.6914,78.9804)"><path
             d="m 0,0 c -3.92,0.015 -7.841,0.014 -11.763,0.012 l -3.653,-0.001 h -6.185 c -2.851,0 -5.703,0.001 -8.554,0.001 -6.426,0 -12.852,-0.002 -19.278,-0.007 -0.643,-0.001 -1.195,-0.2 -1.554,-0.562 -0.295,-0.297 -0.449,-0.693 -0.446,-1.149 0.008,-1.127 0.793,-1.857 2.001,-1.857 5.965,-0.004 11.93,-0.002 17.893,-0.002 l 6.711,0.005 h 4.725 c 6.664,-10e-4 13.326,-0.002 19.989,0.015 0.367,10e-4 0.729,0.071 0.968,0.189 0.749,0.37 1.137,1.201 0.944,2.023 C 1.607,-0.527 0.901,-0.003 0,0"
             style="fill:#231200;fill-opacity:1;fill-rule:nonzero;stroke:none"
             id="path266"
             inkscape:connector-curvature="0" /></g><g
           id="g268"
           transform="translate(70.5938,118.2816)"><path
             d="m 0,0 -32.85,-0.002 h -4.107 c -4.125,0 -8.249,0 -12.374,-0.003 -0.67,0 -1.208,-0.185 -1.555,-0.536 -0.303,-0.306 -0.454,-0.731 -0.449,-1.265 0.013,-1.307 1.091,-1.773 2.098,-1.773 h 0.002 l 32.209,0.019 c 5.67,0 11.339,0 17.01,0.004 0.619,0 1.125,0.181 1.466,0.524 0.304,0.306 0.463,0.737 0.461,1.248 C 1.905,-0.667 1.191,0 0.001,0 Z"
             style="fill:#231200;fill-opacity:1;fill-rule:nonzero;stroke:none"
             id="path270"
             inkscape:connector-curvature="0" /></g><g
           id="g272"
           transform="translate(55.7842,59.3148)"><path
             d="m 0,0 -20.207,0.002 c -1.257,0.001 -2.515,0.001 -3.772,0.001 -3.455,0 -6.909,-0.002 -10.364,-0.008 -0.271,-0.001 -0.723,-0.001 -0.987,-0.087 -0.771,-0.253 -1.331,-1.112 -1.196,-1.837 0.201,-1.077 0.934,-1.695 2.01,-1.695 h 0.003 l 26.528,0.019 2.578,-0.003 c 2.344,-0.006 4.768,-0.009 7.145,0.034 1.072,0.019 1.849,0.714 1.849,1.65 10e-4,1.261 -0.552,1.826 -1.848,1.89 C 1.159,-0.005 0.58,0 0,0"
             style="fill:#231200;fill-opacity:1;fill-rule:nonzero;stroke:none"
             id="path274"
             inkscape:connector-curvature="0" /></g><g
           id="g276"
           transform="translate(57.3301,98.6537)"><path
             d="m 0,0 c -4.314,-0.005 -8.628,-0.004 -12.942,-0.004 l -3.584,0.001 v -0.04 l -6.617,0.002 c -1.704,0 -3.409,0.001 -5.114,0.001 -2.635,0 -5.269,-0.002 -7.904,-0.009 -0.613,-0.001 -1.117,-0.185 -1.457,-0.53 -0.303,-0.307 -0.46,-0.735 -0.453,-1.238 0.012,-1.033 0.787,-1.761 1.883,-1.769 3.402,-0.028 6.802,-0.025 10.205,-0.026 l 10.926,0.006 c 5.008,0.004 10.015,0.007 15.02,0.003 h 0.003 c 0.492,0 2.082,0.127 2.1,1.746 C 2.072,-1.313 1.916,-0.876 1.6,-0.558 1.244,-0.198 0.677,0 0.004,0 Z"
             style="fill:#231200;fill-opacity:1;fill-rule:nonzero;stroke:none"
             id="path278"
             inkscape:connector-curvature="0" /></g><g
           id="g280"
           transform="translate(80.0977,19.6322)"><path
             d="m 0,0 c 7.298,-0.016 13.824,-0.007 19.953,0.023 0.599,0.003 1.129,0.21 1.492,0.584 0.332,0.341 0.502,0.788 0.492,1.289 -0.023,1.035 -0.83,1.706 -2.056,1.708 -2.217,0.007 -4.435,0.004 -6.65,0.004 L 9.903,3.607 C 8.934,3.607 7.964,3.6 6.993,3.592 4.699,3.574 2.327,3.556 -0.019,3.642 -0.035,3.643 -0.053,3.643 -0.069,3.643 -0.617,3.643 -1.038,3.32 -1.243,3.124 -1.674,2.711 -1.872,2.201 -1.874,1.902 -1.877,1.409 -1.673,0.919 -1.314,0.558 -0.959,0.199 -0.492,0.001 0,0"
             style="fill:#231200;fill-opacity:1;fill-rule:nonzero;stroke:none"
             id="path282"
             inkscape:connector-curvature="0" /></g><g
           id="g284"
           transform="translate(102.0049,57.4818)"><path
             d="M 0,0 C -0.017,1.088 -0.721,1.775 -1.837,1.793 -3.032,1.812 -4.23,1.808 -5.423,1.803 L -8.52,1.799 v 0.036 l -0.083,0.001 c -0.524,0.002 -1.048,0.003 -1.573,0.003 -0.676,0 -1.351,-0.003 -2.028,-0.013 -0.927,-0.014 -1.697,-0.776 -1.715,-1.699 -0.011,-0.506 0.201,-1.034 0.565,-1.411 0.174,-0.18 0.541,-0.483 1.041,-0.489 3.538,-0.052 7.1,-0.039 10.585,0.038 C -0.662,-1.713 0.016,-1.031 0,0"
             style="fill:#231200;fill-opacity:1;fill-rule:nonzero;stroke:none"
             id="path286"
             inkscape:connector-curvature="0" /></g><g
           id="g288"
           transform="translate(96.5322,114.6933)"><path
             d="M 0,0 C 1.119,-0.002 2.239,-0.005 3.358,0.005 4.61,0.017 5.492,0.747 5.504,1.78 5.51,2.278 5.348,2.708 5.037,3.022 4.66,3.404 4.072,3.614 3.381,3.614 0.791,3.617 -1.792,3.605 -4.379,3.593 L -6.364,3.585 C -8.158,3.578 -8.377,2.568 -8.385,1.81 -8.391,1.284 -8.24,0.862 -7.937,0.556 -7.587,0.2 -7.047,0.011 -6.375,0.009 -5.254,0.007 -4.13,0.007 -3.006,0.007 l 3.002,0.001 V 0 Z"
             style="fill:#231200;fill-opacity:1;fill-rule:nonzero;stroke:none"
             id="path290"
             inkscape:connector-curvature="0" /></g><g
           id="g292"
           transform="translate(88.1406,96.891)"><path
             d="m 0,0 c -0.007,-0.542 0.156,-0.996 0.469,-1.315 0.326,-0.334 0.808,-0.512 1.393,-0.517 3.321,-0.027 6.668,-0.027 9.95,0.001 1.285,0.011 2.083,0.696 2.084,1.789 0,1.053 -0.843,1.774 -2.101,1.795 -1.14,0.019 -2.28,0.014 -3.42,0.01 L 6.831,1.72 5.299,1.724 C 4.791,1.726 4.284,1.728 3.776,1.728 3.141,1.728 2.505,1.725 1.87,1.714 0.02,1.683 0.005,0.417 0,0"
             style="fill:#231200;fill-opacity:1;fill-rule:nonzero;stroke:none"
             id="path294"
             inkscape:connector-curvature="0" /></g><g
           id="g296"
           transform="translate(89.8174,78.9755)"><path
             d="m 0,0 c -0.969,-0.015 -1.689,-0.725 -1.676,-1.651 0.017,-1.252 0.619,-1.893 1.79,-1.906 1.171,-0.014 2.341,-0.009 3.512,-0.007 l 2.326,0.008 c 0.256,0 0.512,10e-4 0.768,10e-4 0.322,0 0.644,-10e-4 0.967,-0.003 0.329,-0.002 0.659,-0.007 0.989,-0.013 0.526,-0.01 1.05,-0.019 1.58,-0.01 1.158,0.018 1.946,0.697 1.961,1.691 0.008,0.514 -0.18,0.995 -0.529,1.353 -0.342,0.352 -0.811,0.549 -1.321,0.555 C 6.939,0.06 3.452,0.053 0,0"
             style="fill:#231200;fill-opacity:1;fill-rule:nonzero;stroke:none"
             id="path298"
             inkscape:connector-curvature="0" /></g><g
           id="g300"
           transform="translate(21.5366,39.6537)"><path
             d="m 0,0 c -0.47,-0.005 -0.943,-0.218 -1.3,-0.584 -0.338,-0.348 -0.528,-0.793 -0.52,-1.221 0.015,-0.924 0.911,-1.786 1.849,-1.786 H 0.05 C 0.953,-3.578 1.777,-2.725 1.78,-1.8 1.781,-1.312 1.591,-0.854 1.246,-0.511 0.914,-0.181 0.478,0 0.017,0 Z"
             style="fill:#231200;fill-opacity:1;fill-rule:nonzero;stroke:none"
             id="path302"
             inkscape:connector-curvature="0" /></g><g
           id="g304"
           transform="translate(41.1504,39.6459)"><path
             d="m 0,0 c -0.443,-0.003 -0.89,-0.206 -1.228,-0.557 -0.345,-0.357 -0.535,-0.826 -0.521,-1.284 0.028,-0.917 0.921,-1.746 1.813,-1.724 v 0 c 0.498,0.006 0.963,0.209 1.309,0.568 0.328,0.34 0.503,0.777 0.493,1.232 C 1.844,-0.756 1.049,0 0.016,0 Z"
             style="fill:#231200;fill-opacity:1;fill-rule:nonzero;stroke:none"
             id="path306"
             inkscape:connector-curvature="0" /></g><g
           id="g308"
           transform="translate(60.938,39.6576)"><path
             d="m 0,0 c -0.989,0 -1.831,-0.8 -1.841,-1.754 -0.006,-0.486 0.186,-0.948 0.538,-1.3 0.355,-0.355 0.816,-0.54 1.317,-0.543 0.914,0.01 1.722,0.853 1.73,1.805 0.003,0.411 -0.202,0.869 -0.549,1.225 C 0.852,-0.215 0.41,-0.003 0.014,0 Z"
             style="fill:#231200;fill-opacity:1;fill-rule:nonzero;stroke:none"
             id="path310"
             inkscape:connector-curvature="0" /></g><g
           id="g312"
           transform="translate(80.6182,39.6039)"><path
             d="m 0,0 c -1.082,-0.002 -1.871,-0.731 -1.878,-1.736 -0.003,-0.461 0.171,-0.892 0.49,-1.214 0.345,-0.35 0.826,-0.543 1.352,-0.545 h 0.009 c 1.021,0 1.684,0.679 1.689,1.73 0.003,0.519 -0.173,0.983 -0.494,1.304 C 0.868,-0.159 0.465,0 0.004,0 Z"
             style="fill:#231200;fill-opacity:1;fill-rule:nonzero;stroke:none"
             id="path314"
             inkscape:connector-curvature="0" /></g><g
           id="g316"
           transform="translate(50.9282,36.1205)"><path
             d="M 0,0 C 0.542,-0.039 1.027,0.155 1.358,0.476 1.671,0.776 1.839,1.194 1.846,1.683 1.861,2.715 1.175,3.455 0.178,3.484 -0.855,3.465 -1.644,2.786 -1.677,1.752 -1.691,1.286 -1.531,0.851 -1.225,0.527 -0.914,0.198 -0.479,0.011 0,0"
             style="fill:#231200;fill-opacity:1;fill-rule:nonzero;stroke:none"
             id="path318"
             inkscape:connector-curvature="0" /></g><g
           id="g320"
           transform="translate(70.6045,36.0844)"><path
             d="M 0,0 C 1.029,0.009 1.905,0.811 1.915,1.75 1.92,2.198 1.742,2.628 1.415,2.96 1.045,3.336 0.536,3.544 -0.017,3.547 H -0.023 C -0.424,3.547 -0.836,3.364 -1.155,3.045 -1.504,2.696 -1.702,2.229 -1.7,1.766 -1.698,1.295 -1.499,0.83 -1.153,0.49 -0.828,0.17 -0.418,-0.031 0,0"
             style="fill:#231200;fill-opacity:1;fill-rule:nonzero;stroke:none"
             id="path322"
             inkscape:connector-curvature="0" /></g><g
           id="g324"
           transform="translate(100.1895,36.1039)"><path
             d="M 0,0 C 0.534,-0.022 0.973,0.171 1.304,0.5 1.625,0.82 1.8,1.266 1.796,1.754 1.787,2.722 1.011,3.491 0.027,3.504 -0.965,3.526 -1.743,2.771 -1.765,1.806 -1.776,1.3 -1.612,0.857 -1.292,0.525 -0.972,0.193 -0.513,0.007 0,0"
             style="fill:#231200;fill-opacity:1;fill-rule:nonzero;stroke:none"
             id="path326"
             inkscape:connector-curvature="0" /></g><g
           id="g328"
           transform="translate(90.2598,36.0814)"><path
             d="M 0,0 C 0.461,-0.02 0.974,0.175 1.348,0.531 1.705,0.873 1.913,1.328 1.917,1.78 1.925,2.684 1.086,3.529 0.156,3.556 -0.339,3.559 -0.791,3.405 -1.122,3.092 -1.457,2.774 -1.649,2.32 -1.664,1.813 -1.689,0.834 -0.958,0.037 0,0"
             style="fill:#231200;fill-opacity:1;fill-rule:nonzero;stroke:none"
             id="path330"
             inkscape:connector-curvature="0" /></g><g
           id="g332"
           transform="translate(31.4146,36.099)"><path
             d="m 0,0 c 1.009,0.016 1.741,0.757 1.74,1.763 0,0.942 -0.802,1.745 -1.75,1.753 H -0.029 C -0.537,3.516 -0.972,3.35 -1.29,3.034 -1.613,2.712 -1.784,2.266 -1.783,1.744 V 1.743 C -1.782,1.224 -1.613,0.783 -1.294,0.47 -0.973,0.154 -0.512,0.008 0,0"
             style="fill:#231200;fill-opacity:1;fill-rule:nonzero;stroke:none"
             id="path334"
             inkscape:connector-curvature="0" /></g><g
           id="g336"
           transform="translate(118.0029,3.6713)"><path
             d="m 0,0 h -114.259 v 139.216 l 2.592,-1.156 c 0.37,-0.159 0.712,-0.308 1.042,-0.48 0.756,-0.397 1.466,-0.38 2.301,0.055 0.398,0.207 0.801,0.406 1.203,0.605 0.788,0.39 1.532,0.758 2.236,1.18 1.239,0.745 2.491,0.729 3.824,-0.045 0.689,-0.399 1.408,-0.752 2.169,-1.126 0.434,-0.213 0.868,-0.426 1.297,-0.648 0.786,-0.407 1.504,-0.404 2.325,0.014 0.381,0.193 0.76,0.39 1.139,0.588 0.929,0.484 1.89,0.984 2.884,1.424 0.801,0.354 1.867,0.361 2.653,0.015 1.065,-0.469 2.093,-1.006 3.087,-1.526 l 0.944,-0.491 c 0.806,-0.415 1.491,-0.435 2.22,-0.065 0.478,0.241 0.961,0.475 1.444,0.708 0.823,0.397 1.601,0.773 2.359,1.192 0.778,0.43 1.984,0.901 3.468,0.034 0.757,-0.443 1.545,-0.831 2.379,-1.243 0.461,-0.227 0.922,-0.454 1.379,-0.69 0.69,-0.36 1.313,-0.366 2.016,-0.022 0.432,0.211 0.863,0.426 1.293,0.642 0.984,0.492 2.001,1.001 3.04,1.46 0.785,0.348 1.813,0.357 2.557,0.023 1.468,-0.659 2.876,-1.401 4.239,-2.119 0.671,-0.354 1.273,-0.352 2.012,0.006 l 1.087,0.522 c 0.97,0.464 1.974,0.943 2.922,1.452 1.113,0.598 2.166,0.599 3.224,0.006 0.673,-0.377 1.364,-0.721 2.057,-1.067 0.585,-0.292 1.169,-0.584 1.745,-0.894 0.724,-0.39 1.377,-0.383 2.179,0.025 0.509,0.259 1.026,0.505 1.542,0.751 0.792,0.378 1.54,0.734 2.262,1.137 1.147,0.639 2.278,0.633 3.453,-0.019 0.568,-0.315 1.149,-0.605 1.729,-0.896 0.601,-0.301 1.2,-0.602 1.788,-0.926 0.848,-0.468 1.529,-0.483 2.351,-0.05 0.474,0.251 0.964,0.477 1.453,0.702 0.679,0.312 1.322,0.608 1.894,0.965 1.372,0.857 2.761,0.865 4.242,0.028 0.545,-0.309 1.109,-0.588 1.671,-0.868 0.513,-0.256 1.027,-0.511 1.53,-0.786 0.835,-0.457 1.489,-0.478 2.256,-0.077 1.244,0.651 2.696,1.397 4.189,2.026 0.809,0.342 1.863,0.344 2.688,0.006 1.329,-0.543 2.589,-1.159 3.747,-1.831 1.09,-0.635 1.927,-0.636 2.885,-0.001 0.277,0.183 0.544,0.297 0.803,0.408 0.1,0.042 0.208,0.088 0.327,0.143 L 0,139.3 Z M 3.497,21.099 H 3.646 L 3.645,38.664 c 0,9.896 -10e-4,19.791 0.003,29.687 0.003,4.742 0.011,9.483 0.019,14.225 0.01,5.652 0.019,11.304 0.02,16.956 0.001,7.997 -0.012,15.993 -0.025,23.99 l -0.011,7.304 c -0.002,1.082 0.003,2.165 0.007,3.248 0.012,2.752 0.024,5.598 -0.071,8.38 -0.023,0.649 -0.29,1.16 -0.754,1.438 -0.522,0.314 -1.243,0.301 -1.924,-0.033 -0.421,-0.207 -0.845,-0.411 -1.268,-0.614 -0.912,-0.437 -1.854,-0.889 -2.742,-1.368 -1.07,-0.576 -2.12,-0.568 -3.212,0.027 -0.677,0.37 -1.373,0.704 -2.069,1.039 -0.589,0.284 -1.178,0.567 -1.757,0.869 -0.772,0.403 -1.459,0.394 -2.298,-0.038 l -0.339,-0.175 c -1.2,-0.619 -2.44,-1.259 -3.723,-1.81 -0.779,-0.334 -1.805,-0.327 -2.615,0.014 -1.432,0.608 -2.782,1.264 -4.016,1.952 -0.87,0.485 -1.638,0.462 -2.653,-0.081 -0.426,-0.228 -0.859,-0.445 -1.292,-0.662 -0.6,-0.301 -1.2,-0.6 -1.781,-0.936 -1.383,-0.799 -2.702,-0.799 -4.034,-0.003 -0.53,0.318 -1.11,0.589 -1.724,0.876 -0.549,0.257 -1.116,0.522 -1.677,0.836 -0.797,0.445 -1.536,0.431 -2.471,-0.046 -0.352,-0.18 -0.702,-0.365 -1.052,-0.551 -0.892,-0.471 -1.815,-0.958 -2.78,-1.376 -0.811,-0.35 -1.902,-0.359 -2.72,-0.02 -1.533,0.634 -2.858,1.28 -4.051,1.975 -0.805,0.465 -1.514,0.464 -2.453,-0.008 -0.396,-0.198 -0.787,-0.405 -1.179,-0.611 -0.852,-0.448 -1.732,-0.911 -2.657,-1.305 -0.849,-0.361 -1.974,-0.373 -2.801,-0.03 -1.446,0.603 -2.835,1.323 -4.178,2.019 l -0.117,0.06 c -0.764,0.397 -1.264,0.258 -1.613,0.095 l -0.299,-0.14 c -1.169,-0.544 -2.274,-1.059 -3.317,-1.675 -1.561,-0.92 -3.025,-0.911 -4.474,0.026 -0.511,0.33 -1.103,0.601 -1.73,0.887 -0.512,0.235 -1.024,0.471 -1.515,0.741 -0.725,0.401 -1.342,0.417 -2.056,0.057 -0.389,-0.196 -0.776,-0.396 -1.163,-0.596 -0.99,-0.513 -2.014,-1.042 -3.076,-1.503 -0.817,-0.355 -1.922,-0.348 -2.749,0.015 -1.084,0.475 -2.133,1.02 -3.146,1.547 -0.362,0.188 -0.724,0.376 -1.087,0.561 -0.655,0.332 -1.221,0.328 -1.893,-0.018 -0.481,-0.248 -0.965,-0.489 -1.448,-0.73 -0.822,-0.41 -1.645,-0.82 -2.45,-1.262 -1.15,-0.63 -2.246,-0.634 -3.351,-0.014 -0.944,0.53 -1.948,1.029 -2.919,1.511 l -0.95,0.474 c -0.726,0.364 -1.314,0.367 -1.97,0.015 -0.638,-0.345 -1.29,-0.664 -1.941,-0.983 -0.668,-0.326 -1.336,-0.652 -1.988,-1.01 -1.124,-0.618 -2.214,-0.621 -3.332,-0.012 -1.301,0.709 -2.691,1.454 -4.127,2.071 -0.665,0.287 -1.293,0.27 -1.772,-0.044 -0.5,-0.329 -0.786,-0.96 -0.785,-1.73 l 0.004,-3.319 c 0.007,-6.416 0.015,-12.832 0.013,-19.249 -0.003,-5.43 -0.009,-10.86 -0.015,-16.291 -0.008,-7.193 -0.017,-14.388 -0.016,-21.582 0,-8.838 0.008,-17.677 0.017,-26.516 l 0.013,-17.478 c 0.004,-5.72 0.003,-11.44 0.002,-17.161 V 6.419 h -0.12 V -3.636 c 1.314,-10e-4 2.625,0.004 3.914,0.009 1.218,0.006 2.43,0.008 3.653,0.011 l 34.808,10e-4 c 6.613,0 13.228,0.003 19.844,-0.004 5.194,-0.005 10.388,-0.014 15.583,-0.024 4.934,-0.009 9.869,-0.018 14.803,-0.023 9.412,-0.008 18.822,-0.006 28.23,-10e-4 l 0.665,-0.002 z"
             style="fill:#231200;fill-opacity:1;fill-rule:nonzero;stroke:none"
             id="path338"
             inkscape:connector-curvature="0" /></g></g></g></g></svg>