<?xml version="1.0" encoding="UTF-8" standalone="no"?>
<!-- Created with Inkscape (http://www.inkscape.org/) -->

<svg
   xmlns:dc="http://purl.org/dc/elements/1.1/"
   xmlns:cc="http://creativecommons.org/ns#"
   xmlns:rdf="http://www.w3.org/1999/02/22-rdf-syntax-ns#"
   xmlns:svg="http://www.w3.org/2000/svg"
   xmlns="http://www.w3.org/2000/svg"
   xmlns:sodipodi="http://sodipodi.sourceforge.net/DTD/sodipodi-0.dtd"
   xmlns:inkscape="http://www.inkscape.org/namespaces/inkscape"
   version="1.1"
   id="svg340"
   xml:space="preserve"
   width="221.59599"
   height="184.07867"
   viewBox="0 0 221.59599 184.07867"
   sodipodi:docname="payment-icon-2.svg"
   inkscape:version="0.92.4 (unknown)"><metadata
     id="metadata346"><rdf:RDF><cc:Work
         rdf:about=""><dc:format>image/svg+xml</dc:format><dc:type
           rdf:resource="http://purl.org/dc/dcmitype/StillImage" /><dc:title></dc:title></cc:Work></rdf:RDF></metadata><defs
     id="defs344"><clipPath
       clipPathUnits="userSpaceOnUse"
       id="clipPath356"><path
         d="M 0,138.059 H 166.197 V 0 H 0 Z"
         id="path354"
         inkscape:connector-curvature="0" /></clipPath></defs><sodipodi:namedview
     pagecolor="#ffffff"
     bordercolor="#666666"
     borderopacity="1"
     objecttolerance="10"
     gridtolerance="10"
     guidetolerance="10"
     inkscape:pageopacity="0"
     inkscape:pageshadow="2"
     inkscape:window-width="1920"
     inkscape:window-height="1007"
     id="namedview342"
     showgrid="false"
     inkscape:zoom="1.2820605"
     inkscape:cx="110.798"
     inkscape:cy="92.039337"
     inkscape:window-x="0"
     inkscape:window-y="24"
     inkscape:window-maximized="1"
     inkscape:current-layer="g348" /><g
     id="g348"
     inkscape:groupmode="layer"
     inkscape:label="payment-icon-2"
     transform="matrix(1.3333333,0,0,-1.3333333,0,184.07867)"><g
       id="g350"><g
         id="g352"
         clip-path="url(#clipPath356)"><g
           id="g358"
           transform="translate(155.9072,58.3949)"><path
             d="m 0,0 c -2.314,-1.094 -4.737,-2.011 -7.08,-2.897 -0.813,-0.309 -1.626,-0.617 -2.435,-0.931 -1.512,-0.589 -3.034,-1.152 -4.616,-1.738 l -3.339,-1.244 -0.145,1.271 c -0.027,0.23 -0.058,0.449 -0.088,0.662 -0.068,0.484 -0.133,0.942 -0.138,1.431 -0.023,2.412 -0.04,4.823 -0.056,7.234 -0.02,2.821 -0.04,5.644 -0.071,8.465 -0.014,1.393 -0.103,2.821 -0.188,4.201 l -0.013,0.202 c -0.134,2.17 -0.897,4.239 -2.334,6.325 -2.353,3.415 -5.127,5.611 -8.48,6.714 -1.295,0.426 -2.758,0.662 -4.233,0.682 -10.515,0.147 -21.209,0.242 -31.551,0.333 l -4.903,0.044 c -3.686,0.033 -7.373,0.056 -11.059,0.078 l -6.097,0.04 c -0.328,0.002 -0.767,0.044 -1.241,0.353 l -1.784,1.162 80.301,24.933 0.649,-1.804 c 0.216,-0.594 0.417,-1.141 0.592,-1.698 l 2.034,-6.44 C -2.812,36.402 0.653,25.426 4.076,14.437 4.739,12.306 5.118,10.455 5.235,8.777 5.509,4.844 3.65,1.727 0,0 m -22.59,-36.435 c -0.008,-2.606 -0.179,-5.405 -0.51,-8.318 -0.155,-1.37 -0.867,-2.65 -1.437,-3.482 -1.4,-2.041 -3.36,-3.637 -5.997,-4.877 -0.444,-0.208 -0.924,-0.238 -1.335,-0.239 -10.527,-0.027 -21.051,-0.051 -31.577,-0.065 -5.307,-0.007 -10.615,-0.004 -15.922,-0.004 l -6.076,0.002 -0.998,-0.097 h -41.359 c -1.144,0 -2.289,0.006 -3.434,0.011 -2.778,0.015 -5.651,0.028 -8.467,-0.043 -0.088,-0.002 -0.175,-0.003 -0.263,-0.003 -2.293,0 -4.394,0.776 -6.589,2.429 -1.778,1.34 -3.166,3.213 -4.243,5.726 -0.189,0.44 -0.21,0.912 -0.209,1.229 l 0.044,16.932 c 0.038,13.804 0.076,27.609 0.075,41.414 0,3.256 1.115,5.972 3.408,8.304 1.858,1.889 3.975,2.834 6.47,2.889 1.552,0.034 3.105,0.075 4.658,0.115 3.706,0.097 7.539,0.198 11.315,0.202 18.156,0.022 36.312,0.008 54.468,-0.006 l 11.776,-0.01 c 3.163,-0.002 6.327,-0.01 9.49,-0.018 5.386,-0.012 10.774,-0.025 16.161,-0.012 h 0.025 c 1.396,0 2.618,-0.301 3.734,-0.92 3.976,-2.203 6.021,-4.918 6.433,-8.544 0.233,-2.046 0.354,-4.243 0.359,-6.533 0.036,-18.518 0.036,-32.73 0,-46.082 m -113.374,69.853 c 0.535,0.841 1.068,1.658 1.701,2.411 1.684,2.002 3.663,3.373 6.05,4.192 23.819,8.171 48.022,16.522 71.429,24.599 l 20.813,7.185 c 2.128,0.74 4.256,1.48 6.394,2.19 6.65,2.208 13.199,-0.311 16.688,-6.418 0.975,-1.705 1.318,-2.988 1.36,-5.082 l 0.014,-0.751 -14.662,-4.563 c -28.045,-8.71 -56.09,-17.42 -84.138,-26.116 -0.654,-0.203 -1.393,-0.311 -2.141,-0.312 -1.616,-0.002 -3.234,-0.003 -4.851,-0.003 -5.048,0 -10.096,0.01 -15.145,0.025 -0.406,0.001 -0.812,0.033 -1.218,0.067 -0.313,0.025 -0.626,0.052 -0.939,0.058 -0.943,0.02 -1.364,0.443 -1.552,0.793 -0.187,0.351 -0.305,0.935 0.197,1.725 M 4.116,30.202 C 0.18,42.646 -3.892,55.514 -8.029,68.123 c -1.857,5.66 -6.055,9.377 -12.478,11.05 -3.346,0.872 -6.898,0.587 -11.178,-0.897 -12.857,-4.459 -25.946,-8.943 -38.604,-13.278 -8.917,-3.055 -17.834,-6.109 -26.745,-9.18 -4.586,-1.58 -9.16,-3.193 -13.735,-4.806 -6.487,-2.287 -13.195,-4.652 -19.83,-6.881 -4.132,-1.388 -7.139,-4.065 -9.463,-8.423 -0.503,-0.946 -0.864,-1.977 -1.245,-3.068 l -0.213,-0.606 c -0.245,-0.69 -0.722,-1.649 -2.041,-2.013 -5.83,-1.606 -9.73,-5.403 -11.921,-11.607 -0.101,-0.286 -0.233,-0.56 -0.366,-0.834 l -0.059,-0.124 v -62.405 l 0.154,-0.401 c 0.166,-0.428 0.332,-0.856 0.473,-1.293 1.577,-4.883 4.834,-8.468 9.68,-10.655 1.829,-0.825 3.842,-0.849 5.974,-0.876 l 0.46,-0.006 c 9.491,-0.135 17.42,-0.203 24.953,-0.211 13.324,-0.013 26.646,0.008 39.969,0.031 l 7.994,0.013 c 10.528,0.017 22.778,0.04 34.918,0.107 0.555,0.003 1.211,0.241 1.846,0.471 l 0.113,0.041 c 3.543,1.285 6.261,3.244 8.311,5.988 2.025,2.711 3.014,5.618 3.025,8.887 0.013,3.876 0.032,7.752 0.051,11.628 0.029,5.763 0.057,11.525 0.065,17.287 0.003,1.289 0.506,2.025 1.681,2.464 5.864,2.193 11.67,4.43 17.114,6.534 5.027,1.942 8.062,5.853 9.276,11.956 0.033,0.164 0.08,0.324 0.13,0.484 l 0.01,0.032 v 2.453 c -0.361,1.221 -0.717,2.442 -1.073,3.664 -0.796,2.735 -1.62,5.563 -2.493,8.318 z"
             style="fill:#231f20;fill-opacity:1;fill-rule:nonzero;stroke:none"
             id="path360"
             inkscape:connector-curvature="0" /></g><g
           id="g362"
           transform="translate(51.5029,35.1771)"><path
             d="m 0,0 h -28.202 c -1.264,0 -2.299,1.035 -2.299,2.3 0,1.264 1.035,2.3 2.299,2.3 H 0 C 1.265,4.6 2.299,3.564 2.299,2.3 2.299,1.035 1.265,0 0,0"
             style="fill:#231f20;fill-opacity:1;fill-rule:nonzero;stroke:none"
             id="path364"
             inkscape:connector-curvature="0" /></g><g
           id="g366"
           transform="translate(72.3198,23.0141)"><path
             d="m 0,0 h -48.873 c -1.344,0 -2.445,1.101 -2.445,2.445 0,1.345 1.101,2.446 2.445,2.446 H 0 C 1.345,4.891 2.445,3.79 2.445,2.445 2.445,1.101 1.345,0 0,0"
             style="fill:#231f20;fill-opacity:1;fill-rule:nonzero;stroke:none"
             id="path368"
             inkscape:connector-curvature="0" /></g></g></g></g></svg>