<?xml version="1.0" encoding="UTF-8" standalone="no"?>
<!-- Created with Inkscape (http://www.inkscape.org/) -->

<svg
   xmlns:dc="http://purl.org/dc/elements/1.1/"
   xmlns:cc="http://creativecommons.org/ns#"
   xmlns:rdf="http://www.w3.org/1999/02/22-rdf-syntax-ns#"
   xmlns:svg="http://www.w3.org/2000/svg"
   xmlns="http://www.w3.org/2000/svg"
   xmlns:sodipodi="http://sodipodi.sourceforge.net/DTD/sodipodi-0.dtd"
   xmlns:inkscape="http://www.inkscape.org/namespaces/inkscape"
   version="1.1"
   id="svg222"
   width="798.33447"
   height="798.7207"
   viewBox="0 0 798.33447 798.7207"
   sodipodi:docname="play-icon.svg"
   inkscape:version="0.92.4 (unknown)">
  <defs
     id="defs226" />
  <sodipodi:namedview
     pagecolor="#ffffff"
     bordercolor="#666666"
     borderopacity="1"
     objecttolerance="10"
     gridtolerance="10"
     guidetolerance="10"
     inkscape:pageopacity="0"
     inkscape:pageshadow="2"
     inkscape:window-width="1920"
     inkscape:window-height="1007"
     id="namedview224"
     showgrid="false"
     inkscape:zoom="0.29353234"
     inkscape:cx="1271.9695"
     inkscape:cy="403.62692"
     inkscape:window-x="0"
     inkscape:window-y="24"
     inkscape:window-maximized="1"
     inkscape:current-layer="svg222" />
  <path
     style=";stroke-width:1.33333337"
     d="M 363.55127,797.80064 C 190.66159,781.055 50.00712,659.10146 9.89725,491.16724 1.96167,457.9421 0,439.70741 0,399.16724 c 0,-40.54018 1.96167,-58.77487 9.89725,-92 C 45.19902,159.36381 159.36382,45.19902 307.16724,9.8972482 340.39238,1.9616664 358.62707,0 399.16724,0 c 40.54018,0 58.77487,1.9616664 92,9.8972482 C 638.97067,45.19902 753.13546,159.36381 788.43723,307.16724 c 7.93559,33.22513 9.89725,51.45982 9.89725,92 0,31.17333 -0.4432,39.56314 -2.95826,56 -16.51086,107.90429 -70.5269,199.14186 -156.20898,263.84988 -53.2738,40.23293 -115.43168,66.06144 -183.33333,76.18061 -21.3158,3.17663 -71.68987,4.59747 -92.28264,2.60291 z m 80.94931,-35.47432 c 117.8993,-14.10179 223.91108,-87.72535 279.1738,-193.88194 27.94528,-53.6813 41.12376,-107.9277 41.12376,-169.27714 0,-61.34944 -13.17848,-115.59584 -41.12376,-169.27715 C 668.25952,123.44126 564.22862,51.276593 443.83391,35.768993 c -23.24408,-2.993985 -66.08925,-2.993985 -89.33333,0 C 272.19104,46.370982 198.53188,82.402714 140.4673,140.46729 82.40271,198.53188 46.37098,272.19104 35.76899,354.50057 c -2.99398,23.24408 -2.99398,66.08925 0,89.33333 10.60199,82.30954 46.63372,155.9687 104.69831,214.03328 80.32998,80.32999 190.1907,118.07571 304.03328,104.45914 z m -101.37416,-205.207 c -8.19663,-2.52676 -16.85014,-10.14472 -18.57391,-16.35122 -1.88895,-6.80128 -1.88895,-276.40045 0,-283.20173 2.63596,-9.49088 17.4586,-18.39913 30.61473,-18.39913 2.66714,0 8.10823,0.9529 12.09134,2.11757 6.95817,2.03457 9.84572,4.71268 73.67714,68.33333 48.2326,48.07332 67.40268,68.04236 69.96642,72.88243 2.91297,5.4994 3.53125,8.41756 3.53125,16.66667 0,8.2491 -0.61828,11.16726 -3.53125,16.66666 -2.56374,4.84007 -21.73382,24.80911 -69.96642,72.88243 -63.83142,63.62065 -66.71897,66.29876 -73.67714,68.33333 -8.71495,2.54827 -16.02326,2.56936 -24.13216,0.0696 z M 480.50058,399.16724 c 0,-1.10598 -27.6,-29.60598 -61.33334,-63.33334 l -61.33333,-61.32246 v 124.6558 124.6558 l 61.33333,-61.32247 c 33.73334,-33.72736 61.33334,-62.22736 61.33334,-63.33333 z"
     id="path232"
     inkscape:connector-curvature="0" />
</svg>
