<?xml version="1.0" encoding="UTF-8" standalone="no"?>
<!-- Created with Inkscape (http://www.inkscape.org/) -->

<svg
   xmlns:dc="http://purl.org/dc/elements/1.1/"
   xmlns:cc="http://creativecommons.org/ns#"
   xmlns:rdf="http://www.w3.org/1999/02/22-rdf-syntax-ns#"
   xmlns:svg="http://www.w3.org/2000/svg"
   xmlns="http://www.w3.org/2000/svg"
   xmlns:sodipodi="http://sodipodi.sourceforge.net/DTD/sodipodi-0.dtd"
   xmlns:inkscape="http://www.inkscape.org/namespaces/inkscape"
   version="1.1"
   id="svg29"
   xml:space="preserve"
   width="752.07202"
   height="752.07202"
   viewBox="0 0 752.07202 752.07202"
   sodipodi:docname="plus-icon.svg"
   inkscape:version="0.92.4 (unknown)"><metadata
     id="metadata35"><rdf:RDF><cc:Work
         rdf:about=""><dc:format>image/svg+xml</dc:format><dc:type
           rdf:resource="http://purl.org/dc/dcmitype/StillImage" /><dc:title></dc:title></cc:Work></rdf:RDF></metadata><defs
     id="defs33"><clipPath
       clipPathUnits="userSpaceOnUse"
       id="clipPath45"><path
         d="M 0,564.054 H 564.054 V 0 H 0 Z"
         id="path43"
         inkscape:connector-curvature="0" /></clipPath></defs><sodipodi:namedview
     pagecolor="#ffffff"
     bordercolor="#666666"
     borderopacity="1"
     objecttolerance="10"
     gridtolerance="10"
     guidetolerance="10"
     inkscape:pageopacity="0"
     inkscape:pageshadow="2"
     inkscape:window-width="1920"
     inkscape:window-height="1007"
     id="namedview31"
     showgrid="false"
     inkscape:zoom="1.1501558"
     inkscape:cx="376.03601"
     inkscape:cy="376.03601"
     inkscape:window-x="0"
     inkscape:window-y="24"
     inkscape:window-maximized="1"
     inkscape:current-layer="g37" /><g
     id="g37"
     inkscape:groupmode="layer"
     inkscape:label="plus-icon"
     transform="matrix(1.3333333,0,0,-1.3333333,0,752.072)"><g
       id="g39"><g
         id="g41"
         clip-path="url(#clipPath45)"><g
           id="g47"
           transform="translate(401.1585,267.1678)"><path
             d="m 0,0 c 0.921,0 1.898,0.008 2.818,0.086 2.332,0.201 5.127,1.301 5.195,5.4 0.092,5.631 0.094,11.776 0.004,18.786 -0.035,2.617 -1.295,4.473 -3.459,5.092 -1.175,0.337 -2.6,0.381 -3.71,0.382 -27.299,0.024 -54.597,0.024 -81.896,0.022 h -23.241 v 6.893 c 0,32.48 0,64.96 -0.004,97.439 v 0.133 c 0,0.958 0,1.863 -0.066,2.714 -0.245,3.134 -2.209,5.026 -5.253,5.064 -5.66,0.072 -11.706,0.074 -19.025,0.004 -2.439,-0.023 -4.454,-1.421 -5.014,-3.481 -0.312,-1.148 -0.356,-2.549 -0.356,-3.767 -0.023,-27.248 -0.022,-54.496 -0.021,-81.744 l 0.001,-23.255 h -20.325 c -28.177,0 -56.361,0 -84.542,-0.007 -0.809,0 -1.756,-0.016 -2.649,-0.131 -2.89,-0.371 -4.65,-2.223 -4.707,-4.954 -0.127,-6.015 -0.129,-12.424 -0.006,-19.591 0.041,-2.332 1.529,-4.299 3.621,-4.781 1.164,-0.269 2.564,-0.291 4.141,-0.292 27.125,-0.019 54.249,-0.02 81.373,-0.016 h 16.275 6.819 V -20.91 c 0,-27.96 -0.001,-55.919 0.004,-83.879 0,-0.908 0,-1.746 0.087,-2.484 0.263,-2.239 1.399,-4.921 5.316,-4.994 5.917,-0.107 12.125,-0.108 18.978,-0.002 2.58,0.041 4.518,1.425 5.058,3.613 0.276,1.12 0.277,2.582 0.278,3.871 0.018,27.658 0.017,55.319 0.017,82.978 v 21.803 h 19.03 C -56.839,-0.005 -28.42,-0.004 0,0"
             style="fill:#fff;fill-opacity:1;fill-rule:nonzero;stroke:none"
             id="path49"
             inkscape:connector-curvature="0" /></g><g
           id="g51"
           transform="translate(550.554,282.0272)"><path
             d="m 0,0 c 0,-148.304 -120.224,-268.527 -268.527,-268.527 -148.304,0 -268.527,120.223 -268.527,268.527 0,148.303 120.223,268.526 268.527,268.526 C -120.224,268.526 0,148.303 0,0 Z"
             style="fill:none;stroke:#fff;stroke-width:27;stroke-linecap:butt;stroke-linejoin:miter;stroke-miterlimit:10;stroke-dasharray:none;stroke-opacity:1"
             id="path53"
             inkscape:connector-curvature="0" /></g></g></g></g></svg>