<?xml version="1.0" encoding="UTF-8" standalone="no"?>
<!-- Created with Inkscape (http://www.inkscape.org/) -->

<svg
   xmlns:dc="http://purl.org/dc/elements/1.1/"
   xmlns:cc="http://creativecommons.org/ns#"
   xmlns:rdf="http://www.w3.org/1999/02/22-rdf-syntax-ns#"
   xmlns:svg="http://www.w3.org/2000/svg"
   xmlns="http://www.w3.org/2000/svg"
   xmlns:sodipodi="http://sodipodi.sourceforge.net/DTD/sodipodi-0.dtd"
   xmlns:inkscape="http://www.inkscape.org/namespaces/inkscape"
   version="1.1"
   id="svg121"
   xml:space="preserve"
   width="173.47066"
   height="203.45866"
   viewBox="0 0 173.47065 203.45866"
   sodipodi:docname="sert-icon.svg"
   inkscape:version="0.92.4 (unknown)"><metadata
     id="metadata127"><rdf:RDF><cc:Work
         rdf:about=""><dc:format>image/svg+xml</dc:format><dc:type
           rdf:resource="http://purl.org/dc/dcmitype/StillImage" /><dc:title></dc:title></cc:Work></rdf:RDF></metadata><defs
     id="defs125"><clipPath
       clipPathUnits="userSpaceOnUse"
       id="clipPath137"><path
         d="M 0,152.594 H 130.103 V 0 H 0 Z"
         id="path135"
         inkscape:connector-curvature="0" /></clipPath></defs><sodipodi:namedview
     pagecolor="#ffffff"
     bordercolor="#666666"
     borderopacity="1"
     objecttolerance="10"
     gridtolerance="10"
     guidetolerance="10"
     inkscape:pageopacity="0"
     inkscape:pageshadow="2"
     inkscape:window-width="1920"
     inkscape:window-height="1007"
     id="namedview123"
     showgrid="false"
     inkscape:zoom="1.1599408"
     inkscape:cx="325.54064"
     inkscape:cy="97.418773"
     inkscape:window-x="0"
     inkscape:window-y="24"
     inkscape:window-maximized="1"
     inkscape:current-layer="g129" /><g
     id="g129"
     inkscape:groupmode="layer"
     inkscape:label="sert-icon"
     transform="matrix(1.3333333,0,0,-1.3333333,238.8053,207.76923)"><g
       id="g131"
       transform="translate(-179.10398,3.2329238)"><g
         id="g133"
         clip-path="url(#clipPath137)"><path
           d="M 4.88,4.907 H 125.167 V 147.686 H 4.88 Z m 123.653,147.687 c 1.308,-0.849 1.571,-2.087 1.57,-3.576 -0.026,-48.469 -0.021,-96.937 -0.022,-145.406 0,-2.921 -0.685,-3.611 -3.575,-3.612 L 3.597,0 C 0.707,0.001 0.022,0.691 0.022,3.612 0.021,52.081 0.026,100.55 0,149.018 c -0.001,1.489 0.262,2.727 1.57,3.576 z"
           style="fill-opacity:1;fill-rule:nonzero;stroke:none"
           id="path139"
           inkscape:connector-curvature="0" /><g
           id="g141"
           transform="translate(73.6666,96.9552)"><path
             d="M 0,0 C 2.863,1.55 5.508,2.983 8.21,4.446 6.332,8.162 4.532,11.724 2.87,15.013 0.082,13.593 -2.524,12.266 -5.169,10.919 -3.504,7.402 -1.791,3.783 0,0 m -17.225,0.009 c 1.793,3.791 3.52,7.443 5.159,10.907 -2.706,1.39 -5.312,2.729 -8.026,4.123 -1.707,-3.388 -3.502,-6.949 -5.345,-10.606 2.782,-1.498 5.426,-2.923 8.212,-4.424 M 3.269,27.621 C 3.181,33.945 -2.15,39.071 -8.627,39.059 -15.173,39.046 -20.623,33.717 -20.5,27.448 c 0.125,-6.413 5.509,-11.701 11.896,-11.684 6.466,0.018 11.96,5.506 11.873,11.857 M -8.655,6.881 c -1.704,-3.626 -3.259,-6.944 -4.823,-10.259 -1.214,-2.574 -2.198,-2.914 -4.665,-1.601 -3.633,1.933 -7.264,3.872 -10.888,5.822 -2.123,1.142 -2.466,2.213 -1.394,4.359 2.215,4.435 4.473,8.85 6.634,13.311 0.27,0.556 0.292,1.445 0.041,2.007 -2.886,6.44 -1.691,13.525 3.19,18.443 4.883,4.92 12.543,6.331 18.864,3.476 C 4.659,39.567 8.542,33.311 7.987,26.449 7.83,24.512 7.179,22.581 6.52,20.731 6.187,19.798 6.166,19.119 6.608,18.259 8.828,13.937 11,9.59 13.176,5.246 14.262,3.079 13.932,1.992 11.839,0.864 8.13,-1.138 4.416,-3.13 0.691,-5.104 c -2.115,-1.122 -3.25,-0.74 -4.286,1.432 -1.43,2.997 -2.832,6.008 -4.252,9.01 -0.204,0.432 -0.442,0.847 -0.808,1.543"
             style="fill-opacity:1;fill-rule:nonzero;stroke:none"
             id="path143"
             inkscape:connector-curvature="0" /></g><g
           id="g145"
           transform="translate(65.0006,37.3849)"><path
             d="m 0,0 c -15.348,0 -30.695,-0.002 -46.042,0.006 -0.692,0 -1.396,0.018 -2.072,0.149 -1.196,0.231 -1.799,1.125 -1.812,2.241 -0.014,1.119 0.584,2.007 1.77,2.273 0.574,0.129 1.179,0.172 1.769,0.172 30.944,0.008 61.886,0.007 92.829,0.006 2.38,0 3.601,-0.821 3.619,-2.407 C 50.078,0.849 48.853,0.002 46.488,0.001 30.992,-0.002 15.496,0 0,0"
             style="fill-opacity:1;fill-rule:nonzero;stroke:none"
             id="path147"
             inkscape:connector-curvature="0" /></g><g
           id="g149"
           transform="translate(65.0504,82.0622)"><path
             d="m 0,0 c 15.347,0 30.693,0 46.041,-0.001 0.546,0 1.096,0.014 1.637,-0.041 1.354,-0.137 2.347,-1.066 2.313,-2.275 C 49.955,-3.602 49.269,-4.468 47.97,-4.718 47.439,-4.82 46.885,-4.826 46.342,-4.826 15.449,-4.831 -15.444,-4.83 -46.336,-4.83 c -2.436,0 -3.73,0.889 -3.671,2.509 0.059,1.582 1.216,2.32 3.667,2.32 C -30.893,0 -15.447,0 0,0"
             style="fill-opacity:1;fill-rule:nonzero;stroke:none"
             id="path151"
             inkscape:connector-curvature="0" /></g><g
           id="g153"
           transform="translate(65.2066,68.5978)"><path
             d="m 0,0 c 15.396,0 30.792,0.001 46.188,0 2.436,0 3.609,-0.745 3.665,-2.318 0.057,-1.62 -1.225,-2.491 -3.676,-2.491 -30.893,-10e-4 -61.784,-0.002 -92.676,0.008 -0.687,0.001 -1.411,0.014 -2.052,0.223 -1.113,0.363 -1.691,1.26 -1.564,2.416 0.124,1.134 0.814,1.916 1.994,2.096 0.584,0.089 1.188,0.064 1.784,0.064 C -30.892,0.001 -15.446,0 0,0"
             style="fill-opacity:1;fill-rule:nonzero;stroke:none"
             id="path155"
             inkscape:connector-curvature="0" /></g><g
           id="g157"
           transform="translate(65.0416,50.6242)"><path
             d="m 0,0 h -46.04 c -0.447,0 -0.895,-0.014 -1.341,0.007 -1.536,0.071 -2.575,0.994 -2.617,2.309 -0.041,1.286 1.008,2.338 2.489,2.469 0.443,0.039 0.893,0.016 1.34,0.016 30.793,0 61.585,0.002 92.378,-0.009 0.736,0 1.51,-0.01 2.201,-0.225 C 49.533,4.219 50.096,3.305 49.97,2.152 49.845,1.02 49.156,0.236 47.974,0.061 47.389,-0.025 46.784,0.002 46.189,0.002 30.793,-0.001 15.396,0 0,0"
             style="fill-opacity:1;fill-rule:nonzero;stroke:none"
             id="path159"
             inkscape:connector-curvature="0" /></g><g
           id="g161"
           transform="translate(65.148,28.7433)"><path
             d="m 0,0 h 23.833 c 0.397,0 0.795,0.007 1.191,-0.003 1.992,-0.044 3.126,-0.94 3.096,-2.439 -0.031,-1.484 -1.184,-2.384 -3.183,-2.386 -16.682,-0.009 -33.365,-0.007 -50.048,0.003 -0.49,0 -0.997,0.056 -1.466,0.192 -1.154,0.334 -1.716,1.193 -1.656,2.346 0.06,1.147 0.685,1.964 1.878,2.172 0.581,0.101 1.185,0.11 1.778,0.11 C -16.384,0.002 -8.192,0 0,0"
             style="fill-opacity:1;fill-rule:nonzero;stroke:none"
             id="path163"
             inkscape:connector-curvature="0" /></g></g></g></g></svg>