<?xml version="1.0" encoding="UTF-8" standalone="no"?>
<!-- Created with Inkscape (http://www.inkscape.org/) -->

<svg
   xmlns:dc="http://purl.org/dc/elements/1.1/"
   xmlns:cc="http://creativecommons.org/ns#"
   xmlns:rdf="http://www.w3.org/1999/02/22-rdf-syntax-ns#"
   xmlns:svg="http://www.w3.org/2000/svg"
   xmlns="http://www.w3.org/2000/svg"
   xmlns:sodipodi="http://sodipodi.sourceforge.net/DTD/sodipodi-0.dtd"
   xmlns:inkscape="http://www.inkscape.org/namespaces/inkscape"
   version="1.1"
   id="svg318"
   xml:space="preserve"
   width="30"
   height="29.999939"
   viewBox="0 0 30.000001 29.999939"
   sodipodi:docname="soc-icon-1.svg"
   inkscape:version="0.92.4 (unknown)"><metadata
     id="metadata324"><rdf:RDF><cc:Work
         rdf:about=""><dc:format>image/svg+xml</dc:format><dc:type
           rdf:resource="http://purl.org/dc/dcmitype/StillImage" /><dc:title></dc:title></cc:Work></rdf:RDF></metadata><defs
     id="defs322"><clipPath
       clipPathUnits="userSpaceOnUse"
       id="clipPath334"><path
         d="M 0,99.035 H 99.036 V 0 H 0 Z"
         id="path332"
         inkscape:connector-curvature="0" /></clipPath></defs><sodipodi:namedview
     pagecolor="#ffffff"
     bordercolor="#666666"
     borderopacity="1"
     objecttolerance="10"
     gridtolerance="10"
     guidetolerance="10"
     inkscape:pageopacity="0"
     inkscape:pageshadow="2"
     inkscape:window-width="1920"
     inkscape:window-height="1007"
     id="namedview320"
     showgrid="false"
     inkscape:zoom="1.7872451"
     inkscape:cx="66.022863"
     inkscape:cy="66.023134"
     inkscape:window-x="0"
     inkscape:window-y="24"
     inkscape:window-maximized="1"
     inkscape:current-layer="g326" /><g
     id="g326"
     inkscape:groupmode="layer"
     inkscape:label="soc-icon-1"
     transform="matrix(1.3333333,0,0,-1.3333333,-0.0012,30.000206)"><g
       id="g328"
       transform="matrix(0.22719241,0,0,0.22719241,6.9552683e-4,1.5456152e-4)"><g
         id="g330"
         clip-path="url(#clipPath334)"><g
           id="g336"
           transform="translate(81.8169,81.7892)"><path
             d="M 0,0 C -8.28,8.253 -19.687,13.381 -32.299,13.381 -44.884,13.381 -56.317,8.253 -64.57,0 c -8.254,-8.253 -13.38,-19.659 -13.38,-32.271 0,-12.613 5.126,-24.019 13.38,-32.299 8.253,-8.254 19.686,-13.353 32.271,-13.353 12.612,0 24.019,5.099 32.299,13.353 8.254,8.28 13.353,19.686 13.353,32.299 C 13.353,-19.659 8.254,-8.253 0,0 m -32.299,17.246 c 13.682,0 26.074,-5.538 35.013,-14.504 8.967,-8.967 14.505,-21.332 14.505,-35.013 0,-13.682 -5.538,-26.048 -14.505,-35.014 -8.939,-8.966 -21.331,-14.504 -35.013,-14.504 -13.654,0 -26.047,5.538 -35.014,14.504 -8.965,8.966 -14.503,21.332 -14.503,35.014 0,13.681 5.538,26.046 14.503,35.013 8.967,8.966 21.36,14.504 35.014,14.504"
             style="fill-opacity:1;fill-rule:nonzero;stroke:none"
             id="path338"
             inkscape:connector-curvature="0" /></g><g
           id="g340"
           transform="translate(49.5181,37.8365)"><path
             d="m 0,0 c -6.434,0 -11.668,5.246 -11.668,11.695 0,6.449 5.234,11.695 11.668,11.695 6.449,0 11.695,-5.246 11.695,-11.695 C 11.695,5.246 6.449,0 0,0 m 0,28.707 c -9.381,0 -17.013,-7.632 -17.013,-17.012 0,-9.381 7.632,-17.013 17.013,-17.013 9.38,0 17.012,7.632 17.012,17.013 0,9.38 -7.632,17.012 -17.012,17.012"
             style="fill-opacity:1;fill-rule:nonzero;stroke:none"
             id="path342"
             inkscape:connector-curvature="0" /></g><g
           id="g344"
           transform="translate(62.6245,28.6246)"><path
             d="m 0,0 h -26.185 c -4.301,0 -7.801,3.499 -7.801,7.8 v 26.185 c 0,4.302 3.5,7.801 7.801,7.801 H 0 c 4.302,0 7.801,-3.499 7.801,-7.801 V 7.8 C 7.801,3.499 4.302,0 0,0 m 0,46.72 h -26.185 c -7.022,0 -12.735,-5.713 -12.735,-12.735 V 7.8 c 0,-7.022 5.713,-12.734 12.735,-12.734 H 0 c 7.021,0 12.734,5.712 12.734,12.734 V 33.985 C 12.734,41.007 7.021,46.72 0,46.72"
             style="fill-opacity:1;fill-rule:nonzero;stroke:none"
             id="path346"
             inkscape:connector-curvature="0" /></g><g
           id="g348"
           transform="translate(65.229,68.7096)"><path
             d="m 0,0 c -1.973,0 -3.577,-1.604 -3.577,-3.577 0,-1.972 1.604,-3.577 3.577,-3.577 1.973,0 3.577,1.605 3.577,3.577 C 3.577,-1.604 1.973,0 0,0"
             style="fill-opacity:1;fill-rule:nonzero;stroke:none"
             id="path350"
             inkscape:connector-curvature="0" /></g></g></g></g></svg>