<?xml version="1.0" encoding="UTF-8" standalone="no"?>
<!-- Created with Inkscape (http://www.inkscape.org/) -->

<svg
   xmlns:dc="http://purl.org/dc/elements/1.1/"
   xmlns:cc="http://creativecommons.org/ns#"
   xmlns:rdf="http://www.w3.org/1999/02/22-rdf-syntax-ns#"
   xmlns:svg="http://www.w3.org/2000/svg"
   xmlns="http://www.w3.org/2000/svg"
   xmlns:sodipodi="http://sodipodi.sourceforge.net/DTD/sodipodi-0.dtd"
   xmlns:inkscape="http://www.inkscape.org/namespaces/inkscape"
   version="1.1"
   id="svg240"
   xml:space="preserve"
   width="30"
   height="30.007906"
   viewBox="0 0 30.000001 30.007906"
   sodipodi:docname="soc-icon-4.svg"
   inkscape:version="0.92.4 (unknown)"><metadata
     id="metadata246"><rdf:RDF><cc:Work
         rdf:about=""><dc:format>image/svg+xml</dc:format><dc:type
           rdf:resource="http://purl.org/dc/dcmitype/StillImage" /><dc:title></dc:title></cc:Work></rdf:RDF></metadata><defs
     id="defs244"><clipPath
       clipPathUnits="userSpaceOnUse"
       id="clipPath256"><path
         d="M 0,99.063 H 99.036 V 0 H 0 Z"
         id="path254"
         inkscape:connector-curvature="0" /></clipPath></defs><sodipodi:namedview
     pagecolor="#ffffff"
     bordercolor="#666666"
     borderopacity="1"
     objecttolerance="10"
     gridtolerance="10"
     guidetolerance="10"
     inkscape:pageopacity="0"
     inkscape:pageshadow="2"
     inkscape:window-width="1920"
     inkscape:window-height="1007"
     id="namedview242"
     showgrid="false"
     inkscape:zoom="1.7867509"
     inkscape:cx="66.02393"
     inkscape:cy="66.040999"
     inkscape:window-x="0"
     inkscape:window-y="24"
     inkscape:window-maximized="1"
     inkscape:current-layer="g248" /><g
     id="g248"
     inkscape:groupmode="layer"
     inkscape:label="soc-icon-4"
     transform="matrix(1.3333333,0,0,-1.3333333,-1.3333333e-4,30.008573)"><g
       id="g250"
       transform="matrix(0.22719035,0,0,0.22719035,7.7280965e-5,3.8640483e-4)"><g
         id="g252"
         clip-path="url(#clipPath256)"><g
           id="g258"
           transform="translate(81.7901,81.8165)"><path
             d="m 0,0 c -8.254,8.254 -19.66,13.353 -32.272,13.353 -12.613,0 -24.019,-5.099 -32.273,-13.353 -8.278,-8.253 -13.379,-19.687 -13.379,-32.299 0,-12.585 5.101,-24.019 13.379,-32.272 8.254,-8.252 19.66,-13.38 32.273,-13.38 12.612,0 24.018,5.128 32.272,13.38 8.279,8.253 13.378,19.687 13.378,32.272 C 13.378,-19.687 8.279,-8.253 0,0 m -32.272,17.246 c 13.682,0 26.047,-5.565 35.013,-14.504 8.965,-8.966 14.505,-21.359 14.505,-35.041 0,-13.654 -5.54,-26.048 -14.505,-35.013 -8.966,-8.938 -21.331,-14.504 -35.013,-14.504 -13.683,0 -26.048,5.566 -35.014,14.504 -8.965,8.965 -14.504,21.359 -14.504,35.013 0,13.682 5.539,26.075 14.504,35.041 8.966,8.939 21.331,14.504 35.014,14.504"
             style="fill-opacity:1;fill-rule:nonzero;stroke:none"
             id="path260"
             inkscape:connector-curvature="0" /></g><g
           id="g262"
           transform="translate(57.9629,50.0929)"><path
             d="M 0,0 -13.683,-7.375 V 3.977 7.431 l 6.198,-3.373 z m 16.341,9.981 c 0,0 -0.52,3.646 -2.029,5.237 -1.918,2.083 -4.085,2.111 -5.044,2.249 -7.075,0.52 -17.685,0.52 -17.685,0.52 h -0.057 c 0,0 -10.582,0 -17.658,-0.52 -1.013,-0.138 -3.151,-0.166 -5.07,-2.249 -1.509,-1.591 -2.028,-5.237 -2.028,-5.237 0,0 -0.523,-4.277 -0.523,-8.5 V 0.933 -2.549 c 0,-4.277 0.523,-8.5 0.523,-8.5 0,0 0.519,-3.647 2.028,-5.264 1.919,-2.111 4.442,-2.03 5.594,-2.249 4.03,-0.411 17.191,-0.548 17.191,-0.548 0,0 10.61,0.054 17.685,0.548 0.959,0.138 3.126,0.138 5.044,2.249 1.509,1.617 2.029,5.264 2.029,5.264 0,0 0.493,4.223 0.493,8.5 v 3.262 0.768 c 0,4.223 -0.493,8.5 -0.493,8.5"
             style="fill-opacity:1;fill-rule:evenodd;stroke:none"
             id="path264"
             inkscape:connector-curvature="0" /></g></g></g></g></svg>