<?xml version="1.0" encoding="UTF-8" standalone="no"?>
<!-- Created with Inkscape (http://www.inkscape.org/) -->

<svg
   xmlns:dc="http://purl.org/dc/elements/1.1/"
   xmlns:cc="http://creativecommons.org/ns#"
   xmlns:rdf="http://www.w3.org/1999/02/22-rdf-syntax-ns#"
   xmlns:svg="http://www.w3.org/2000/svg"
   xmlns="http://www.w3.org/2000/svg"
   xmlns:sodipodi="http://sodipodi.sourceforge.net/DTD/sodipodi-0.dtd"
   xmlns:inkscape="http://www.inkscape.org/namespaces/inkscape"
   version="1.1"
   id="svg266"
   xml:space="preserve"
   width="30"
   height="29.999969"
   viewBox="0 0 30.000001 29.999969"
   sodipodi:docname="soc-icon-3.svg"
   inkscape:version="0.92.4 (unknown)"><metadata
     id="metadata272"><rdf:RDF><cc:Work
         rdf:about=""><dc:format>image/svg+xml</dc:format><dc:type
           rdf:resource="http://purl.org/dc/dcmitype/StillImage" /><dc:title></dc:title></cc:Work></rdf:RDF></metadata><defs
     id="defs270"><clipPath
       clipPathUnits="userSpaceOnUse"
       id="clipPath282"><path
         d="M 0,99.036 H 99.036 V 0 H 0 Z"
         id="path280"
         inkscape:connector-curvature="0" /></clipPath></defs><sodipodi:namedview
     pagecolor="#ffffff"
     bordercolor="#666666"
     borderopacity="1"
     objecttolerance="10"
     gridtolerance="10"
     guidetolerance="10"
     inkscape:pageopacity="0"
     inkscape:pageshadow="2"
     inkscape:window-width="1920"
     inkscape:window-height="1007"
     id="namedview268"
     showgrid="false"
     inkscape:zoom="1.7872253"
     inkscape:cx="66.024063"
     inkscape:cy="66.023872"
     inkscape:window-x="0"
     inkscape:window-y="24"
     inkscape:window-maximized="1"
     inkscape:current-layer="g274" /><g
     id="g274"
     inkscape:groupmode="layer"
     inkscape:label="soc-icon-3"
     transform="matrix(1.3333333,0,0,-1.3333333,0,30.000237)"><g
       id="g276"
       transform="matrix(0.22719035,0,0,0.22719035,0,1.5456193e-4)"><g
         id="g278"
         clip-path="url(#clipPath282)"><g
           id="g284"
           transform="translate(81.7899,81.7892)"><path
             d="m 0,0 c -8.254,8.253 -19.66,13.381 -32.272,13.381 -12.613,0 -24.019,-5.128 -32.273,-13.381 -8.278,-8.253 -13.379,-19.659 -13.379,-32.271 0,-12.613 5.101,-24.018 13.379,-32.298 8.254,-8.253 19.66,-13.354 32.273,-13.354 12.612,0 24.018,5.101 32.272,13.354 8.279,8.28 13.378,19.685 13.378,32.298 C 13.378,-19.659 8.279,-8.253 0,0 m -32.272,17.247 c 13.682,0 26.047,-5.54 35.013,-14.504 8.965,-8.967 14.505,-21.359 14.505,-35.014 0,-13.682 -5.54,-26.047 -14.505,-35.014 -8.966,-8.965 -21.331,-14.504 -35.013,-14.504 -13.683,0 -26.048,5.539 -35.014,14.504 -8.965,8.967 -14.504,21.332 -14.504,35.014 0,13.655 5.539,26.047 14.504,35.014 8.966,8.964 21.331,14.504 35.014,14.504"
             style="fill-opacity:1;fill-rule:nonzero;stroke:none"
             id="path286"
             inkscape:connector-curvature="0" /></g><g
           id="g288"
           transform="translate(76.9081,63.3097)"><path
             d="m 0,0 c -0.74,0.548 -3.399,0.548 -6.031,0.548 -2.688,-0.055 -5.375,-0.055 -6.006,-0.302 -0.574,-0.219 -1.863,-3.345 -3.535,-6.552 -1.921,-3.621 -4.25,-7.13 -5.732,-7.073 -1.946,0 -1.479,5.949 -1.342,10.362 0.026,2.88 -0.44,3.813 -0.851,4.058 -1.015,0.714 -3.811,1.397 -3.811,1.397 0,0 -8.391,0.632 -9.569,-2.987 1.617,-0.22 4.359,0.276 3.29,-10.938 -0.082,-0.55 -1.289,-5.156 -5.183,1.069 -0.987,1.562 -4.714,10.911 -6.031,10.966 -4.306,0.083 -8.582,0.274 -10.061,-0.548 -1.4,-0.823 1.863,-7.238 7.375,-15.849 4.467,-7.073 9.212,-12.557 17.437,-13.927 1.563,-0.166 5.567,-0.328 6.856,0.273 0.848,0.412 -0.221,6.498 2.714,7.103 1.289,0.246 6.304,-6.363 8.196,-7.103 1.154,-0.466 3.676,-0.657 6.253,-0.547 2.797,0.081 5.975,-0.275 6.277,1.644 0.687,4.195 -8.47,9.68 -8.718,12.257 -0.219,1.864 3.346,5.291 5.155,7.923 C -1.07,-5.045 1.399,-1.207 0,0"
             style="fill-opacity:1;fill-rule:evenodd;stroke:none"
             id="path290"
             inkscape:connector-curvature="0" /></g></g></g></g></svg>