<?xml version="1.0" encoding="UTF-8" standalone="no"?>
<!-- Created with Inkscape (http://www.inkscape.org/) -->

<svg
   xmlns:dc="http://purl.org/dc/elements/1.1/"
   xmlns:cc="http://creativecommons.org/ns#"
   xmlns:rdf="http://www.w3.org/1999/02/22-rdf-syntax-ns#"
   xmlns:svg="http://www.w3.org/2000/svg"
   xmlns="http://www.w3.org/2000/svg"
   xmlns:sodipodi="http://sodipodi.sourceforge.net/DTD/sodipodi-0.dtd"
   xmlns:inkscape="http://www.inkscape.org/namespaces/inkscape"
   version="1.1"
   id="svg292"
   xml:space="preserve"
   width="30"
   height="29.999788"
   viewBox="0 0 30.000001 29.999789"
   sodipodi:docname="soc-icon-2.svg"
   inkscape:version="0.92.4 (unknown)"><metadata
     id="metadata298"><rdf:RDF><cc:Work
         rdf:about=""><dc:format>image/svg+xml</dc:format><dc:type
           rdf:resource="http://purl.org/dc/dcmitype/StillImage" /><dc:title></dc:title></cc:Work></rdf:RDF></metadata><defs
     id="defs296"><clipPath
       clipPathUnits="userSpaceOnUse"
       id="clipPath308"><path
         d="M 0,99.035 H 99.036 V 0 H 0 Z"
         id="path306"
         inkscape:connector-curvature="0" /></clipPath></defs><sodipodi:namedview
     pagecolor="#ffffff"
     bordercolor="#666666"
     borderopacity="1"
     objecttolerance="10"
     gridtolerance="10"
     guidetolerance="10"
     inkscape:pageopacity="0"
     inkscape:pageshadow="2"
     inkscape:window-width="1920"
     inkscape:window-height="1007"
     id="namedview294"
     showgrid="false"
     inkscape:zoom="1.7872451"
     inkscape:cx="66.023137"
     inkscape:cy="66.023134"
     inkscape:window-x="0"
     inkscape:window-y="24"
     inkscape:window-maximized="1"
     inkscape:current-layer="g300" /><g
     id="g300"
     inkscape:groupmode="layer"
     inkscape:label="soc-icon-2"
     transform="matrix(1.3333333,0,0,-1.3333333,-6.6666666e-4,30.000055)"><g
       id="g302"
       transform="matrix(0.22719127,0,0,0.22719127,3.8640437e-4,1.5456175e-4)"><g
         id="g304"
         clip-path="url(#clipPath308)"><g
           id="g310"
           transform="translate(81.8165,81.7892)"><path
             d="M 0,0 C -8.279,8.253 -19.687,13.381 -32.299,13.381 -44.911,13.381 -56.317,8.253 -64.57,0 c -8.254,-8.253 -13.38,-19.659 -13.38,-32.271 0,-12.613 5.126,-24.019 13.38,-32.299 8.253,-8.254 19.659,-13.353 32.271,-13.353 12.612,0 24.02,5.099 32.299,13.353 8.254,8.28 13.354,19.686 13.354,32.299 C 13.354,-19.659 8.254,-8.253 0,0 m -32.299,17.246 c 13.682,0 26.048,-5.538 35.014,-14.504 8.966,-8.967 14.505,-21.332 14.505,-35.013 0,-13.682 -5.539,-26.048 -14.505,-35.014 -8.966,-8.966 -21.332,-14.504 -35.014,-14.504 -13.681,0 -26.047,5.538 -35.014,14.504 -8.965,8.966 -14.503,21.332 -14.503,35.014 0,13.681 5.538,26.046 14.503,35.013 8.967,8.966 21.333,14.504 35.014,14.504"
             style="fill-opacity:1;fill-rule:nonzero;stroke:none"
             id="path312"
             inkscape:connector-curvature="0" /></g><g
           id="g314"
           transform="translate(53.3008,59.649)"><path
             d="M 0,0 V 4.058 C 0,6.004 1.289,6.47 2.223,6.47 h 5.674 v 8.665 H 0.083 c -8.691,0 -10.639,-6.416 -10.639,-10.584 V 0 h -5.045 v -6.114 -4.004 h 5.1 v -25.28 h 10.118 v 25.28 H 7.103 L 7.432,-6.142 8.035,0 Z"
             style="fill-opacity:1;fill-rule:evenodd;stroke:none"
             id="path316"
             inkscape:connector-curvature="0" /></g></g></g></g></svg>