<?xml version="1.0" encoding="UTF-8" standalone="no"?>
<!-- Created with Inkscape (http://www.inkscape.org/) -->

<svg
   xmlns:dc="http://purl.org/dc/elements/1.1/"
   xmlns:cc="http://creativecommons.org/ns#"
   xmlns:rdf="http://www.w3.org/1999/02/22-rdf-syntax-ns#"
   xmlns:svg="http://www.w3.org/2000/svg"
   xmlns="http://www.w3.org/2000/svg"
   xmlns:sodipodi="http://sodipodi.sourceforge.net/DTD/sodipodi-0.dtd"
   xmlns:inkscape="http://www.inkscape.org/namespaces/inkscape"
   version="1.1"
   id="svg210"
   xml:space="preserve"
   width="45"
   height="45"
   viewBox="0 0 45 45"
   sodipodi:docname="totop-icon.svg"
   inkscape:version="0.92.4 (unknown)"><metadata
     id="metadata216"><rdf:RDF><cc:Work
         rdf:about=""><dc:format>image/svg+xml</dc:format><dc:type
           rdf:resource="http://purl.org/dc/dcmitype/StillImage" /><dc:title></dc:title></cc:Work></rdf:RDF></metadata><defs
     id="defs214"><clipPath
       clipPathUnits="userSpaceOnUse"
       id="clipPath226"><path
         d="M 0,473 H 473 V 0 H 0 Z"
         id="path224"
         inkscape:connector-curvature="0" /></clipPath></defs><sodipodi:namedview
     pagecolor="#ffffff"
     bordercolor="#666666"
     borderopacity="1"
     objecttolerance="10"
     gridtolerance="10"
     guidetolerance="10"
     inkscape:pageopacity="0"
     inkscape:pageshadow="2"
     inkscape:window-width="1920"
     inkscape:window-height="1007"
     id="namedview212"
     showgrid="false"
     inkscape:zoom="0.37420718"
     inkscape:cx="315.33334"
     inkscape:cy="315.33333"
     inkscape:window-x="0"
     inkscape:window-y="24"
     inkscape:window-maximized="1"
     inkscape:current-layer="g218" /><g
     id="g218"
     inkscape:groupmode="layer"
     inkscape:label="totop-icon"
     transform="matrix(1.3333333,0,0,-1.3333333,0,45.000002)"><g
       id="g220"
       transform="scale(0.07135307)"><g
         id="g222"
         clip-path="url(#clipPath226)"><g
           id="g228"
           transform="translate(236.5,473)"><path
             d="m 0,0 c -130.615,0 -236.5,-105.885 -236.5,-236.5 0,-130.615 105.885,-236.5 236.5,-236.5 130.615,0 236.5,105.885 236.5,236.5 C 236.5,-105.885 130.615,0 0,0 m 0,-20 c 29.236,0 57.587,-5.722 84.266,-17.005 25.778,-10.904 48.933,-26.517 68.823,-46.406 19.889,-19.89 35.502,-43.046 46.405,-68.823 11.284,-26.679 17.006,-55.03 17.006,-84.266 0,-29.236 -5.722,-57.587 -17.006,-84.266 -10.903,-25.778 -26.516,-48.933 -46.405,-68.823 -19.89,-19.889 -43.045,-35.502 -68.823,-46.405 C 57.587,-447.278 29.236,-453 0,-453 c -29.236,0 -57.587,5.722 -84.266,17.006 -25.777,10.903 -48.933,26.516 -68.823,46.405 -19.889,19.89 -35.502,43.045 -46.406,68.823 -11.283,26.679 -17.005,55.03 -17.005,84.266 0,29.236 5.722,57.587 17.005,84.266 10.904,25.777 26.517,48.933 46.406,68.823 19.89,19.889 43.046,35.502 68.823,46.406 C -57.587,-25.722 -29.236,-20 0,-20"
             style="fill-opacity:1;fill-rule:nonzero;stroke:none"
             id="path230"
             inkscape:connector-curvature="0" /></g><g
           id="g232"
           transform="translate(236.7344,283.876)"><path
             d="m 0,0 -80.61,-80.61 14.142,-14.142 80.61,80.61 z"
             style="fill-opacity:1;fill-rule:nonzero;stroke:none"
             id="path234"
             inkscape:connector-curvature="0" /></g><g
           id="g236"
           transform="translate(236.2656,283.876)"><path
             d="M 0,0 -14.142,-14.142 66.469,-94.752 80.61,-80.61 Z"
             style="fill-opacity:1;fill-rule:nonzero;stroke:none"
             id="path238"
             inkscape:connector-curvature="0" /></g></g></g></g></svg>